font.ufo
<glyph name="greater" format="1">
	<unicode hex="003E"/>
	<advance width="462"/>
	<outline>
		<contour>
			<point x="48" y="150" type="line"/>
			<point x="444" y="312" type="line"/>
			<point x="444" y="348" type="line"/>
			<point x="48" y="510" type="line"/>
			<point x="48" y="472" type="line"/>
			<point x="271" y="382" type="line"/>
			<point x="394" y="332" type="line"/>
			<point x="394" y="328" type="line"/>
			<point x="271" y="279" type="line"/>
			<point x="48" y="189" type="line"/>
		</contour>
	</outline>
</glyph>
<glyph name="Q" format="1">
	<unicode hex="0051"/>
	<advance width="618"/>
	<outline>
		<contour>
			<point x="277" y="-12" type="curve" smooth="yes"/>
			<point x="473" y="-12"/>
			<point x="590" y="214"/>
			<point x="590" y="397" type="curve" smooth="yes"/>
			<point x="590" y="558"/>
			<point x="519" y="671"/>
			<point x="374" y="671" type="curve" smooth="yes"/>
			<point x="179" y="671"/>
			<point x="61" y="445"/>
			<point x="61" y="262" type="curve" smooth="yes"/>
			<point x="61" y="101"/>
			<point x="133" y="-12"/>
		</contour>
		<contour>
			<point x="280" y="25" type="curve" smooth="yes"/>
			<point x="157" y="25"/>
			<point x="105" y="124"/>
			<point x="105" y="267" type="curve" smooth="yes"/>
			<point x="105" y="422"/>
			<point x="202" y="634"/>
			<point x="371" y="634" type="curve" smooth="yes"/>
			<point x="494" y="634"/>
			<point x="547" y="535"/>
			<point x="547" y="392" type="curve" smooth="yes"/>
			<point x="547" y="237"/>
			<point x="449" y="25"/>
		</contour>
		<contour>
			<point x="445" y="-153" type="curve" smooth="yes"/>
			<point x="466" y="-153"/>
			<point x="482" y="-151"/>
			<point x="501" y="-146" type="curve"/>
			<point x="496" y="-109" type="line"/>
			<point x="480" y="-113"/>
			<point x="465" y="-115"/>
			<point x="448" y="-115" type="curve" smooth="yes"/>
			<point x="362" y="-115"/>
			<point x="295" y="-77"/>
			<point x="280" y="3" type="curve"/>
			<point x="237" y="9" type="line"/>
			<point x="256" y="-103"/>
			<point x="342" y="-153"/>
		</contour>
		<contour>
			<point name="aboveUC" x="409" y="682" type="move"/>
		</contour>
	</outline>
</glyph>
<glyph name="z" format="1">
	<unicode hex="007A"/>
	<advance width="391"/>
	<outline>
		<contour>
			<point x="-10" y="0" type="line"/>
			<point x="324" y="0" type="line"/>
			<point x="332" y="36" type="line"/>
			<point x="50" y="36" type="line"/>
			<point x="409" y="455" type="line"/>
			<point x="413" y="480" type="line"/>
			<point x="115" y="480" type="line"/>
			<point x="107" y="444" type="line"/>
			<point x="352" y="444" type="line"/>
			<point x="-6" y="25" type="line"/>
		</contour>
		<contour>
			<point name="aboveLC" x="265" y="504" type="move"/>
		</contour>
		<contour>
			<point name="belowLC" x="167" y="-22" type="move"/>
		</contour>
	</outline>
</glyph>
<glyph name="bar" format="1">
	<unicode hex="007C"/>
	<advance width="217"/>
	<outline>
		<contour>
			<point x="99" y="-250" type="line"/>
			<point x="132" y="-250" type="line"/>
			<point x="132" y="750" type="line"/>
			<point x="99" y="750" type="line"/>
		</contour>
	</outline>
</glyph>
<glyph name="section" format="1">
	<unicode hex="00A7"/>
	<advance width="460"/>
	<outline>
		<contour>
			<point x="285" y="140" type="line"/>
			<point x="368" y="170"/>
			<point x="416" y="205"/>
			<point x="416" y="292" type="curve" smooth="yes"/>
			<point x="416" y="440"/>
			<point x="195" y="444"/>
			<point x="195" y="556" type="curve" smooth="yes"/>
			<point x="195" y="612"/>
			<point x="242" y="646"/>
			<point x="289" y="646" type="curve" smooth="yes"/>
			<point x="334" y="646"/>
			<point x="374" y="620"/>
			<point x="403" y="585" type="curve"/>
			<point x="431" y="612" type="line"/>
			<point x="396" y="649"/>
			<point x="348" y="681"/>
			<point x="291" y="681" type="curve" smooth="yes"/>
			<point x="215" y="681"/>
			<point x="155" y="631"/>
			<point x="155" y="549" type="curve" smooth="yes"/>
			<point x="155" y="418"/>
			<point x="377" y="415"/>
			<point x="377" y="285" type="curve" smooth="yes"/>
			<point x="377" y="216"/>
			<point x="338" y="190"/>
			<point x="268" y="167" type="curve"/>
		</contour>
		<contour>
			<point x="176" y="-48" type="curve" smooth="yes"/>
			<point x="260" y="-48"/>
			<point x="324" y="14"/>
			<point x="324" y="91" type="curve" smooth="yes"/>
			<point x="324" y="233"/>
			<point x="99" y="221"/>
			<point x="99" y="350" type="curve" smooth="yes"/>
			<point x="99" y="414"/>
			<point x="142" y="450"/>
			<point x="207" y="472" type="curve"/>
			<point x="193" y="499" type="line"/>
			<point x="117" y="475"/>
			<point x="60" y="424"/>
			<point x="60" y="343" type="curve" smooth="yes"/>
			<point x="60" y="196"/>
			<point x="284" y="207"/>
			<point x="284" y="84" type="curve" smooth="yes"/>
			<point x="284" y="28"/>
			<point x="236" y="-13"/>
			<point x="179" y="-13" type="curve" smooth="yes"/>
			<point x="131" y="-13"/>
			<point x="84" y="12"/>
			<point x="49" y="51" type="curve"/>
			<point x="23" y="22" type="line"/>
			<point x="66" y="-22"/>
			<point x="119" y="-48"/>
		</contour>
	</outline>
</glyph>
<glyph name="Thorn" format="1">
	<unicode hex="00DE"/>
	<advance width="543"/>
	<outline>
		<contour>
			<point x="39" y="0" type="line"/>
			<point x="81" y="0" type="line"/>
			<point x="114" y="165" type="line"/>
			<point x="235" y="165" type="line" smooth="yes"/>
			<point x="404" y="165"/>
			<point x="514" y="237"/>
			<point x="514" y="386" type="curve" smooth="yes"/>
			<point x="514" y="492"/>
			<point x="440" y="538"/>
			<point x="320" y="538" type="curve" smooth="yes"/>
			<point x="190" y="538" type="line"/>
			<point x="213" y="660" type="line"/>
			<point x="170" y="660" type="line"/>
		</contour>
		<contour>
			<point x="122" y="201" type="line"/>
			<point x="182" y="502" type="line"/>
			<point x="301" y="502" type="line" smooth="yes"/>
			<point x="412" y="502"/>
			<point x="471" y="468"/>
			<point x="471" y="381" type="curve" smooth="yes"/>
			<point x="471" y="263"/>
			<point x="389" y="201"/>
			<point x="231" y="201" type="curve" smooth="yes"/>
		</contour>
	</outline>
</glyph>
<glyph name="eth" format="1">
	<unicode hex="00F0"/>
	<advance width="517"/>
	<outline>
		<contour>
			<point x="212" y="-12" type="curve" smooth="yes"/>
			<point x="359" y="-12"/>
			<point x="454" y="148"/>
			<point x="454" y="342" type="curve" smooth="yes"/>
			<point x="454" y="532"/>
			<point x="365" y="648"/>
			<point x="243" y="724" type="curve"/>
			<point x="222" y="697" type="line"/>
			<point x="339" y="621"/>
			<point x="414" y="519"/>
			<point x="414" y="336" type="curve" smooth="yes"/>
			<point x="414" y="173"/>
			<point x="335" y="24"/>
			<point x="218" y="24" type="curve" smooth="yes"/>
			<point x="135" y="24"/>
			<point x="88" y="93"/>
			<point x="88" y="171" type="curve" smooth="yes"/>
			<point x="88" y="289"/>
			<point x="165" y="406"/>
			<point x="282" y="406" type="curve" smooth="yes"/>
			<point x="345" y="406"/>
			<point x="387" y="357"/>
			<point x="417" y="308" type="curve"/>
			<point x="426" y="343" type="line"/>
			<point x="392" y="401"/>
			<point x="341" y="442"/>
			<point x="281" y="442" type="curve" smooth="yes"/>
			<point x="139" y="442"/>
			<point x="48" y="307"/>
			<point x="48" y="166" type="curve" smooth="yes"/>
			<point x="48" y="67"/>
			<point x="116" y="-12"/>
		</contour>
		<contour>
			<point x="195" y="521" type="line"/>
			<point x="517" y="657" type="line"/>
			<point x="507" y="684" type="line"/>
			<point x="185" y="548" type="line"/>
		</contour>
	</outline>
</glyph>
<glyph name="dcroat" format="1">
	<unicode hex="0111"/>
	<advance width="525"/>
	<outline>
		<contour>
			<point x="184" y="-12" type="curve" smooth="yes"/>
			<point x="250" y="-12"/>
			<point x="312" y="25"/>
			<point x="361" y="76" type="curve"/>
			<point x="365" y="76" type="line"/>
			<point x="354" y="0" type="line"/>
			<point x="389" y="0" type="line"/>
			<point x="534" y="719" type="line"/>
			<point x="493" y="719" type="line"/>
			<point x="447" y="490" type="line"/>
			<point x="428" y="395" type="line"/>
			<point x="424" y="395" type="line"/>
			<point x="401" y="441"/>
			<point x="359" y="472"/>
			<point x="303" y="472" type="curve" smooth="yes"/>
			<point x="170" y="472"/>
			<point x="44" y="326"/>
			<point x="44" y="161" type="curve" smooth="yes"/>
			<point x="44" y="49"/>
			<point x="100" y="-12"/>
		</contour>
		<contour>
			<point x="193" y="24" type="curve" smooth="yes"/>
			<point x="127" y="24"/>
			<point x="86" y="72"/>
			<point x="86" y="169" type="curve" smooth="yes"/>
			<point x="86" y="295"/>
			<point x="189" y="436"/>
			<point x="302" y="436" type="curve" smooth="yes"/>
			<point x="347" y="436"/>
			<point x="386" y="411"/>
			<point x="419" y="349" type="curve"/>
			<point x="373" y="128" type="line"/>
			<point x="316" y="62"/>
			<point x="255" y="24"/>
		</contour>
		<contour>
			<point x="302" y="581" type="line"/>
			<point x="505" y="581" type="line"/>
			<point x="579" y="585" type="line"/>
			<point x="586" y="612" type="line"/>
			<point x="309" y="612" type="line"/>
		</contour>
	</outline>
</glyph>
<glyph name="Hbar" format="1">
	<unicode hex="0126"/>
	<advance width="633"/>
	<outline>
		<contour>
			<point x="79" y="495" type="line"/>
			<point x="651" y="495" type="line"/>
			<point x="658" y="526" type="line"/>
			<point x="160" y="526" type="line"/>
			<point x="86" y="524" type="line"/>
		</contour>
		<component base="H" xOffset="13"/>
	</outline>
</glyph>
<glyph name="bstroke" format="1">
	<unicode hex="0180"/>
	<advance width="504"/>
	<outline>
		<contour>
			<point x="75" y="0" type="line"/>
			<point x="94" y="66" type="line"/>
			<point x="97" y="66" type="line"/>
			<point x="123" y="19"/>
			<point x="164" y="-12"/>
			<point x="221" y="-12" type="curve" smooth="yes"/>
			<point x="353" y="-12"/>
			<point x="477" y="130"/>
			<point x="477" y="309" type="curve" smooth="yes"/>
			<point x="477" y="415"/>
			<point x="422" y="472"/>
			<point x="337" y="472" type="curve" smooth="yes"/>
			<point x="272" y="472"/>
			<point x="211" y="434"/>
			<point x="160" y="393" type="curve"/>
			<point x="158" y="393" type="line"/>
			<point x="179" y="490" type="line"/>
			<point x="225" y="719" type="line"/>
			<point x="184" y="719" type="line"/>
			<point x="40" y="0" type="line"/>
		</contour>
		<contour>
			<point x="328" y="436" type="curve" smooth="yes"/>
			<point x="394" y="436"/>
			<point x="436" y="391"/>
			<point x="436" y="302" type="curve" smooth="yes"/>
			<point x="436" y="162"/>
			<point x="335" y="24"/>
			<point x="221" y="24" type="curve" smooth="yes"/>
			<point x="176" y="24"/>
			<point x="138" y="49"/>
			<point x="103" y="111" type="curve"/>
			<point x="151" y="347" type="line"/>
			<point x="205" y="399"/>
			<point x="275" y="436"/>
		</contour>
		<contour>
			<point x="84" y="581" type="line"/>
			<point x="380" y="581" type="line"/>
			<point x="387" y="612" type="line"/>
			<point x="163" y="612" type="line"/>
			<point x="89" y="608" type="line"/>
		</contour>
	</outline>
</glyph>
<glyph name="acutecmb" format="1">
	<unicode hex="0301"/>
	<outline>
		<contour>
			<point x="85" y="580" type="line"/>
			<point x="249" y="716" type="line"/>
			<point x="222" y="750" type="line"/>
			<point x="64" y="605" type="line"/>
		</contour>
		<contour>
			<point name="_aboveLC" x="105" y="504" type="move"/>
		</contour>
	</outline>
</glyph>
<glyph name="tildecmb" format="1">
	<unicode hex="0303"/>
	<outline>
		<contour>
			<point x="197" y="579" type="curve" smooth="yes"/>
			<point x="259" y="579"/>
			<point x="289" y="643"/>
			<point x="304" y="705" type="curve"/>
			<point x="270" y="707" type="line"/>
			<point x="259" y="656"/>
			<point x="237" y="613"/>
			<point x="201" y="613" type="curve" smooth="yes"/>
			<point x="145" y="613"/>
			<point x="141" y="710"/>
			<point x="70" y="710" type="curve" smooth="yes"/>
			<point x="8" y="710"/>
			<point x="-22" y="648"/>
			<point x="-37" y="584" type="curve"/>
			<point x="-3" y="582" type="line"/>
			<point x="9" y="635"/>
			<point x="30" y="677"/>
			<point x="66" y="677" type="curve" smooth="yes"/>
			<point x="123" y="677"/>
			<point x="127" y="579"/>
		</contour>
		<contour>
			<point name="_aboveLC" x="105" y="504" type="move"/>
		</contour>
	</outline>
</glyph>
<glyph name="quoteleft" format="1">
	<unicode hex="2018"/>
	<advance width="213"/>
	<outline>
		<contour>
			<point x="158" y="481" type="curve" smooth="yes"/>
			<point x="180" y="481"/>
			<point x="196" y="499"/>
			<point x="196" y="522" type="curve" smooth="yes"/>
			<point x="196" y="545"/>
			<point x="180" y="556"/>
			<point x="159" y="556" type="curve" smooth="yes"/>
			<point x="152" y="556"/>
			<point x="142" y="554"/>
			<point x="133" y="544" type="curve"/>
			<point x="159" y="500" type="line"/>
			<point x="155" y="554" type="line"/>
			<point x="155" y="597"/>
			<point x="185" y="643"/>
			<point x="239" y="674" type="curve"/>
			<point x="226" y="699" type="line"/>
			<point x="162" y="666"/>
			<point x="117" y="607"/>
			<point x="117" y="531" type="curve" smooth="yes"/>
			<point x="117" y="499"/>
			<point x="135" y="481"/>
		</contour>
	</outline>
</glyph>
<glyph name="guilsinglleft" format="1">
	<unicode hex="2039"/>
	<advance width="240"/>
	<outline>
		<contour>
			<point x="142" y="72" type="line"/>
			<point x="166" y="87" type="line"/>
			<point x="78" y="251" type="line"/>
			<point x="224" y="410" type="line"/>
			<point x="205" y="430" type="line"/>
			<point x="47" y="276" type="line"/>
			<point x="40" y="236" type="line"/>
		</contour>
	</outline>
</glyph>
<glyph name="colonmonetary" format="1">
	<unicode hex="20A1"/>
	<advance width="462"/>
	<outline>
		<contour>
			<point x="241" y="-12" type="curve" smooth="yes"/>
			<point x="313" y="-12"/>
			<point x="364" y="20"/>
			<point x="405" y="61" type="curve"/>
			<point x="382" y="88" type="line"/>
			<point x="346" y="53"/>
			<point x="302" y="24"/>
			<point x="247" y="24" type="curve" smooth="yes"/>
			<point x="158" y="24"/>
			<point x="105" y="105"/>
			<point x="105" y="230" type="curve" smooth="yes"/>
			<point x="105" y="456"/>
			<point x="221" y="616"/>
			<point x="345" y="616" type="curve" smooth="yes"/>
			<point x="403" y="616"/>
			<point x="433" y="582"/>
			<point x="457" y="534" type="curve"/>
			<point x="489" y="554" type="line"/>
			<point x="464" y="606"/>
			<point x="422" y="652"/>
			<point x="348" y="652" type="curve" smooth="yes"/>
			<point x="200" y="652"/>
			<point x="65" y="477"/>
			<point x="65" y="224" type="curve" smooth="yes"/>
			<point x="65" y="82"/>
			<point x="131" y="-12"/>
		</contour>
		<contour>
			<point x="80" y="-110" type="line"/>
			<point x="109" y="-110" type="line"/>
			<point x="377" y="750" type="line"/>
			<point x="349" y="750" type="line"/>
		</contour>
		<contour>
			<point x="175" y="-110" type="line"/>
			<point x="204" y="-110" type="line"/>
			<point x="472" y="750" type="line"/>
			<point x="444" y="750" type="line"/>
		</contour>
	</outline>
</glyph>
<glyph name="peseta" format="1">
	<unicode hex="20A7"/>
	<advance width="462"/>
	<outline>
		<contour>
			<point x="40" y="0" type="line"/>
			<point x="82" y="0" type="line"/>
			<point x="135" y="268" type="line"/>
			<point x="180" y="268" type="line" smooth="yes"/>
			<point x="323" y="268"/>
			<point x="430" y="343"/>
			<point x="430" y="498" type="curve" smooth="yes"/>
			<point x="430" y="594"/>
			<point x="360" y="640"/>
			<point x="256" y="640" type="curve" smooth="yes"/>
			<point x="168" y="640" type="line"/>
		</contour>
		<contour>
			<point x="143" y="302" type="line"/>
			<point x="203" y="607" type="line"/>
			<point x="236" y="607" type="line" smooth="yes"/>
			<point x="337" y="607"/>
			<point x="390" y="574"/>
			<point x="390" y="491" type="curve" smooth="yes"/>
			<point x="390" y="362"/>
			<point x="306" y="302"/>
			<point x="177" y="302" type="curve" smooth="yes"/>
		</contour>
		<contour>
			<point x="51" y="443" type="line"/>
			<point x="484" y="443" type="line"/>
			<point x="491" y="476" type="line"/>
			<point x="140" y="476" type="line"/>
			<point x="57" y="472" type="line"/>
		</contour>
	</outline>
</glyph>
<glyph name="litre" format="1">
	<unicode hex="2113"/>
	<advance width="360"/>
	<outline>
		<contour>
			<point x="191" y="-12" type="curve" smooth="yes"/>
			<point x="245" y="-12"/>
			<point x="287" y="15"/>
			<point x="322" y="43" type="curve"/>
			<point x="307" y="70" type="line"/>
			<point x="275" y="49"/>
			<point x="243" y="25"/>
			<point x="198" y="25" type="curve" smooth="yes"/>
			<point x="142" y="25"/>
			<point x="107" y="67"/>
			<point x="133" y="192" type="curve" smooth="yes"/>
			<point x="200" y="528" type="line" smooth="yes"/>
			<point x="222" y="634"/>
			<point x="271" y="685"/>
			<point x="307" y="685" type="curve" smooth="yes"/>
			<point x="339" y="685"/>
			<point x="360" y="660"/>
			<point x="360" y="604" type="curve" smooth="yes"/>
			<point x="360" y="468"/>
			<point x="186" y="263"/>
			<point x="11" y="166" type="curve"/>
			<point x="22" y="133" type="line"/>
			<point x="220" y="243"/>
			<point x="398" y="455"/>
			<point x="398" y="611" type="curve" smooth="yes"/>
			<point x="398" y="675"/>
			<point x="366" y="720"/>
			<point x="311" y="720" type="curve" smooth="yes"/>
			<point x="248" y="720"/>
			<point x="186" y="662"/>
			<point x="157" y="515" type="curve" smooth="yes"/>
			<point x="87" y="163" type="line" smooth="yes"/>
			<point x="64" y="51"/>
			<point x="115" y="-12"/>
		</contour>
	</outline>
</glyph>
<glyph name="minus" format="1">
	<unicode hex="2212"/>
	<advance width="462"/>
	<outline>
		<contour>
			<point x="48" y="314" type="line"/>
			<point x="442" y="314" type="line"/>
			<point x="442" y="348" type="line"/>
			<point x="48" y="348" type="line"/>
		</contour>
	</outline>
</glyph>
<glyph name="infinity" format="1">
	<unicode hex="221E"/>
	<advance width="734"/>
	<outline>
		<contour>
			<point x="527" y="171" type="curve" smooth="yes"/>
			<point x="617" y="171"/>
			<point x="682" y="240"/>
			<point x="682" y="332" type="curve" smooth="yes"/>
			<point x="682" y="428"/>
			<point x="617" y="490"/>
			<point x="525" y="490" type="curve" smooth="yes"/>
			<point x="442" y="490"/>
			<point x="392" y="430"/>
			<point x="340" y="364" type="curve"/>
			<point x="336" y="364" type="line"/>
			<point x="302" y="410"/>
			<point x="249" y="476"/>
			<point x="170" y="476" type="curve" smooth="yes"/>
			<point x="89" y="476"/>
			<point x="25" y="418"/>
			<point x="25" y="330" type="curve" smooth="yes"/>
			<point x="25" y="245"/>
			<point x="89" y="184"/>
			<point x="164" y="184" type="curve" smooth="yes"/>
			<point x="246" y="184"/>
			<point x="296" y="248"/>
			<point x="330" y="294" type="curve"/>
			<point x="334" y="294" type="line"/>
			<point x="391" y="223"/>
			<point x="445" y="171"/>
		</contour>
		<contour>
			<point x="169" y="217" type="curve" smooth="yes"/>
			<point x="112" y="217"/>
			<point x="61" y="264"/>
			<point x="61" y="330" type="curve" smooth="yes"/>
			<point x="61" y="397"/>
			<point x="110" y="438"/>
			<point x="168" y="438" type="curve" smooth="yes"/>
			<point x="222" y="438"/>
			<point x="269" y="393"/>
			<point x="315" y="328" type="curve"/>
			<point x="278" y="270"/>
			<point x="228" y="217"/>
		</contour>
		<contour>
			<point x="529" y="211" type="curve" smooth="yes"/>
			<point x="468" y="211"/>
			<point x="417" y="248"/>
			<point x="356" y="332" type="curve"/>
			<point x="408" y="406"/>
			<point x="461" y="457"/>
			<point x="523" y="457" type="curve" smooth="yes"/>
			<point x="598" y="457"/>
			<point x="645" y="402"/>
			<point x="645" y="331" type="curve" smooth="yes"/>
			<point x="645" y="263"/>
			<point x="600" y="211"/>
		</contour>
	</outline>
</glyph>
<glyph name="floorleft" format="1">
	<unicode hex="231E"/>
	<advance width="270"/>
	<outline>
		<contour>
			<point x="35" y="-49" type="line"/>
			<point x="188" y="-49" type="line"/>
			<point x="193" y="-21" type="line"/>
			<point x="74" y="-21" type="line"/>
			<point x="207" y="639" type="line"/>
			<point x="175" y="639" type="line"/>
		</contour>
	</outline>
</glyph>
<glyph name="triangleblackleft" format="1">
	<unicode hex="25C0"/>
	<advance width="906"/>
	<outline>
		<contour>
			<point x="881" y="747" type="line"/>
			<point x="879" y="747" type="line"/>
			<point x="45" y="350" type="line"/>
			<point x="45" y="346" type="line"/>
			<point x="879" y="-51" type="line"/>
			<point x="881" y="-51" type="line"/>
		</contour>
	</outline>
</glyph>
<glyph name="check" format="1">
	<unicode hex="2713"/>
	<advance width="529"/>
	<outline>
		<contour>
			<point x="69" y="-20" type="curve"/>
			<point x="120" y="-15" type="line"/>
			<point x="233" y="243"/>
			<point x="434" y="489"/>
			<point x="636" y="650" type="curve"/>
			<point x="611" y="679" type="line"/>
			<point x="409" y="513"/>
			<point x="205" y="257"/>
			<point x="101" y="21" type="curve"/>
			<point x="97" y="21" type="line"/>
			<point x="86" y="113"/>
			<point x="57" y="212"/>
			<point x="21" y="295" type="curve"/>
			<point x="-14" y="277" type="line"/>
			<point x="26" y="191"/>
			<point x="54" y="88"/>
		</contour>
	</outline>
</glyph>
<glyph name="AE" format="1">
  <advance width="782"/>
  <outline>
    <contour>
      <point x="-32" y="0" type="line"/>
      <point x="18" y="0" type="line"/>
      <point x="298" y="389" type="line" smooth="yes"/>
      <point x="354" y="467"/>
      <point x="409" y="544"/>
      <point x="465" y="622" type="curve"/>
      <point x="469" y="622" type="line"/>
      <point x="345" y="0" type="line"/>
      <point x="687" y="0" type="line"/>
      <point x="695" y="37" type="line"/>
      <point x="394" y="37" type="line"/>
      <point x="454" y="331" type="line"/>
      <point x="697" y="331" type="line"/>
      <point x="705" y="368" type="line"/>
      <point x="460" y="368" type="line"/>
      <point x="511" y="622" type="line"/>
      <point x="802" y="622" type="line"/>
      <point x="810" y="659" type="line"/>
      <point x="449" y="659" type="line"/>
    </contour>
    <contour>
      <point x="151" y="217" type="line"/>
      <point x="415" y="217" type="line"/>
      <point x="425" y="253" type="line"/>
      <point x="160" y="253" type="line"/>
    </contour>
    <contour>
      <point x="540" y="694" type="move" name="aboveUC"/>
    </contour>
  </outline>
</glyph>
<glyph name="Aogonek" format="1">
  <advance width="488"/>
  <outline>
    <contour>
      <point x="380" y="-204" type="curve" smooth="yes"/>
      <point x="398" y="-204"/>
      <point x="420" y="-198"/>
      <point x="440" y="-187" type="curve"/>
      <point x="428" y="-159" type="line"/>
      <point x="414" y="-167"/>
      <point x="403" y="-171"/>
      <point x="387" y="-171" type="curve" smooth="yes"/>
      <point x="366" y="-171"/>
      <point x="350" y="-155"/>
      <point x="350" y="-130" type="curve" smooth="yes"/>
      <point x="350" y="-86"/>
      <point x="388" y="-39"/>
      <point x="443" y="0" type="curve"/>
      <point x="362" y="659" type="line"/>
      <point x="315" y="659" type="line"/>
      <point x="-48" y="0" type="line"/>
      <point x="0" y="0" type="line"/>
      <point x="210" y="391" type="line" smooth="yes"/>
      <point x="251" y="467"/>
      <point x="289" y="536"/>
      <point x="328" y="616" type="curve"/>
      <point x="332" y="616" type="line"/>
      <point x="339" y="538"/>
      <point x="348" y="464"/>
      <point x="355" y="391" type="curve" smooth="yes"/>
      <point x="400" y="0" type="line"/>
      <point x="405" y="0" type="line"/>
      <point x="358" y="-33"/>
      <point x="310" y="-88"/>
      <point x="310" y="-141" type="curve" smooth="yes"/>
      <point x="310" y="-183"/>
      <point x="340" y="-204"/>
    </contour>
    <contour>
      <point x="105" y="229" type="line"/>
      <point x="389" y="229" type="line"/>
      <point x="397" y="264" type="line"/>
      <point x="115" y="264" type="line"/>
    </contour>
    <contour>
      <point x="348" y="682" type="move" name="aboveUC"/>
    </contour>
  </outline>
</glyph>
<glyph name="B" format="1">
  <advance width="571"/>
  <outline>
    <contour>
      <point x="39" y="0" type="line"/>
      <point x="234" y="0" type="line" smooth="yes"/>
      <point x="392" y="0"/>
      <point x="500" y="65"/>
      <point x="500" y="207" type="curve" smooth="yes"/>
      <point x="500" y="289"/>
      <point x="441" y="332"/>
      <point x="376" y="347" type="curve"/>
      <point x="376" y="351" type="line"/>
      <point x="441" y="362"/>
      <point x="525" y="419"/>
      <point x="525" y="516" type="curve" smooth="yes"/>
      <point x="525" y="606"/>
      <point x="455" y="659"/>
      <point x="332" y="659" type="curve" smooth="yes"/>
      <point x="170" y="659" type="line"/>
    </contour>
    <contour>
      <point x="154" y="367" type="line"/>
      <point x="206" y="623" type="line"/>
      <point x="315" y="623" type="line" smooth="yes"/>
      <point x="430" y="623"/>
      <point x="482" y="582"/>
      <point x="482" y="512" type="curve" smooth="yes"/>
      <point x="482" y="427"/>
      <point x="410" y="367"/>
      <point x="266" y="367" type="curve" smooth="yes"/>
    </contour>
    <contour>
      <point x="88" y="36" type="line"/>
      <point x="148" y="332" type="line"/>
      <point x="282" y="332" type="line" smooth="yes"/>
      <point x="394" y="332"/>
      <point x="458" y="278"/>
      <point x="458" y="204" type="curve" smooth="yes"/>
      <point x="458" y="82"/>
      <point x="362" y="36"/>
      <point x="219" y="36" type="curve" smooth="yes"/>
    </contour>
    <contour>
      <point x="329" y="682" type="move" name="aboveUC"/>
    </contour>
    <contour>
      <point x="243" y="-22" type="move" name="belowLC"/>
    </contour>
  </outline>
</glyph>
<glyph name="Bstroke" format="1">
  <advance width="595"/>
  <outline>
    <contour>
      <point x="57" y="0" type="line"/>
      <point x="252" y="0" type="line" smooth="yes"/>
      <point x="410" y="0"/>
      <point x="518" y="66"/>
      <point x="518" y="208" type="curve" smooth="yes"/>
      <point x="518" y="290"/>
      <point x="459" y="334"/>
      <point x="394" y="349" type="curve"/>
      <point x="394" y="353" type="line"/>
      <point x="459" y="364"/>
      <point x="543" y="421"/>
      <point x="543" y="517" type="curve" smooth="yes"/>
      <point x="543" y="606"/>
      <point x="473" y="659"/>
      <point x="350" y="659" type="curve" smooth="yes"/>
      <point x="188" y="659" type="line"/>
    </contour>
    <contour>
      <point x="172" y="368" type="line"/>
      <point x="224" y="624" type="line"/>
      <point x="333" y="624" type="line" smooth="yes"/>
      <point x="448" y="624"/>
      <point x="500" y="583"/>
      <point x="500" y="513" type="curve" smooth="yes"/>
      <point x="500" y="429"/>
      <point x="428" y="368"/>
      <point x="284" y="368" type="curve" smooth="yes"/>
    </contour>
    <contour>
      <point x="105" y="35" type="line"/>
      <point x="167" y="335" type="line"/>
      <point x="300" y="335" type="line" smooth="yes"/>
      <point x="412" y="335"/>
      <point x="476" y="280"/>
      <point x="476" y="206" type="curve" smooth="yes"/>
      <point x="476" y="82"/>
      <point x="380" y="35"/>
      <point x="237" y="35" type="curve" smooth="yes"/>
    </contour>
    <contour>
      <point x="21" y="180" type="line"/>
      <point x="298" y="180" type="line"/>
      <point x="305" y="211" type="line"/>
      <point x="100" y="211" type="line"/>
      <point x="28" y="208" type="line"/>
    </contour>
  </outline>
</glyph>
<glyph name="C" format="1">
  <advance width="540"/>
  <outline>
    <contour>
      <point x="281" y="-12" type="curve" smooth="yes"/>
      <point x="355" y="-12"/>
      <point x="411" y="16"/>
      <point x="465" y="61" type="curve"/>
      <point x="442" y="89" type="line"/>
      <point x="394" y="49"/>
      <point x="347" y="25"/>
      <point x="286" y="25" type="curve" smooth="yes"/>
      <point x="157" y="25"/>
      <point x="101" y="124"/>
      <point x="101" y="254" type="curve" smooth="yes"/>
      <point x="101" y="421"/>
      <point x="207" y="634"/>
      <point x="389" y="634" type="curve" smooth="yes"/>
      <point x="448" y="634"/>
      <point x="488" y="600"/>
      <point x="514" y="555" type="curve"/>
      <point x="546" y="578" type="line"/>
      <point x="515" y="628"/>
      <point x="466" y="671"/>
      <point x="392" y="671" type="curve" smooth="yes"/>
      <point x="183" y="671"/>
      <point x="58" y="444"/>
      <point x="58" y="248" type="curve" smooth="yes"/>
      <point x="58" y="99"/>
      <point x="133" y="-12"/>
    </contour>
    <contour>
      <point x="410" y="682" type="move" name="aboveUC"/>
    </contour>
    <contour>
      <point x="276" y="0" type="move" name="baseLC"/>
    </contour>
    <contour>
      <point x="270" y="-22" type="move" name="belowLC"/>
    </contour>
  </outline>
</glyph>
<glyph name="D" format="1">
  <advance width="577"/>
  <outline>
    <contour>
      <point x="374" y="682" type="move" name="aboveUC"/>
    </contour>
    <contour>
      <point x="247" y="-22" type="move" name="belowLC"/>
    </contour>
    <contour>
      <point x="39" y="0" type="line"/>
      <point x="199" y="0" type="line" smooth="yes"/>
      <point x="428" y="0"/>
      <point x="551" y="175"/>
      <point x="551" y="403" type="curve" smooth="yes"/>
      <point x="551" y="557"/>
      <point x="461" y="659"/>
      <point x="279" y="659" type="curve" smooth="yes"/>
      <point x="170" y="659" type="line"/>
    </contour>
    <contour>
      <point x="88" y="36" type="line"/>
      <point x="205" y="623" type="line"/>
      <point x="277" y="623" type="line" smooth="yes"/>
      <point x="432" y="623"/>
      <point x="508" y="533"/>
      <point x="508" y="400" type="curve" smooth="yes"/>
      <point x="508" y="201"/>
      <point x="396" y="36"/>
      <point x="200" y="36" type="curve" smooth="yes"/>
    </contour>
  </outline>
</glyph>
<glyph name="E" format="1">
  <advance width="489"/>
  <outline>
    <contour>
      <point x="39" y="0" type="line"/>
      <point x="394" y="0" type="line"/>
      <point x="402" y="37" type="line"/>
      <point x="88" y="37" type="line"/>
      <point x="148" y="331" type="line"/>
      <point x="404" y="331" type="line"/>
      <point x="412" y="368" type="line"/>
      <point x="154" y="368" type="line"/>
      <point x="205" y="622" type="line"/>
      <point x="510" y="622" type="line"/>
      <point x="518" y="659" type="line"/>
      <point x="170" y="659" type="line"/>
    </contour>
    <contour>
      <point x="364" y="682" type="move" name="aboveUC"/>
    </contour>
    <contour>
      <point x="332" y="0" type="move" name="ogonekUC"/>
    </contour>
    <contour>
      <point x="236" y="-22" type="move" name="belowLC"/>
    </contour>
  </outline>
</glyph>
<glyph name="Eth" format="1">
  <advance width="595"/>
  <outline>
    <contour>
      <point x="52" y="334" type="line"/>
      <point x="329" y="334" type="line"/>
      <point x="336" y="365" type="line"/>
      <point x="131" y="365" type="line"/>
      <point x="59" y="363" type="line"/>
    </contour>
    <component base="D" xOffset="18"/>
  </outline>
</glyph>
<glyph name="F" format="1">
  <advance width="455"/>
  <outline>
    <contour>
      <point x="367" y="682" type="move" name="aboveUC"/>
    </contour>
    <contour>
      <point x="70" y="-22" type="move" name="belowLC"/>
    </contour>
    <contour>
      <point x="39" y="0" type="line"/>
      <point x="82" y="0" type="line"/>
      <point x="146" y="318" type="line"/>
      <point x="402" y="318" type="line"/>
      <point x="410" y="355" type="line"/>
      <point x="152" y="355" type="line"/>
      <point x="205" y="622" type="line"/>
      <point x="510" y="622" type="line"/>
      <point x="518" y="659" type="line"/>
      <point x="170" y="659" type="line"/>
    </contour>
  </outline>
</glyph>
<glyph name="H" format="1">
  <advance width="605"/>
  <outline>
    <contour>
      <point x="391" y="682" type="move" name="aboveUC"/>
    </contour>
    <contour>
      <point x="268" y="-22" type="move" name="belowLC"/>
    </contour>
    <contour>
      <point x="39" y="0" type="line"/>
      <point x="82" y="0" type="line"/>
      <point x="148" y="331" type="line"/>
      <point x="488" y="331" type="line"/>
      <point x="421" y="0" type="line"/>
      <point x="464" y="0" type="line"/>
      <point x="596" y="659" type="line"/>
      <point x="553" y="659" type="line"/>
      <point x="494" y="368" type="line"/>
      <point x="154" y="368" type="line"/>
      <point x="213" y="659" type="line"/>
      <point x="170" y="659" type="line"/>
    </contour>
  </outline>
</glyph>
<glyph name="I" format="1">
  <advance width="227"/>
  <outline>
    <contour>
      <point x="39" y="0" type="line"/>
      <point x="82" y="0" type="line"/>
      <point x="213" y="659" type="line"/>
      <point x="170" y="659" type="line"/>
    </contour>
    <contour>
      <point x="207" y="682" type="move" name="aboveUC"/>
    </contour>
    <contour>
      <point x="59" y="0" type="move" name="ogonekUC"/>
    </contour>
    <contour>
      <point x="67" y="-29" type="move" name="belowLC"/>
    </contour>
  </outline>
</glyph>
<glyph name="Iogonek" format="1">
  <advance width="227"/>
  <outline>
    <contour>
      <point x="207" y="682" type="move" name="aboveUC"/>
    </contour>
    <contour>
      <point x="26" y="-204" type="curve" smooth="yes"/>
      <point x="42" y="-204"/>
      <point x="71" y="-196"/>
      <point x="88" y="-183" type="curve"/>
      <point x="76" y="-159" type="line"/>
      <point x="62" y="-167"/>
      <point x="51" y="-171"/>
      <point x="36" y="-171" type="curve" smooth="yes"/>
      <point x="14" y="-171"/>
      <point x="-2" y="-155"/>
      <point x="-2" y="-130" type="curve" smooth="yes"/>
      <point x="-2" y="-86"/>
      <point x="39" y="-35"/>
      <point x="82" y="0" type="curve"/>
      <point x="213" y="659" type="line"/>
      <point x="170" y="659" type="line"/>
      <point x="39" y="0" type="line"/>
      <point x="44" y="0" type="line"/>
      <point x="9" y="-29"/>
      <point x="-41" y="-87"/>
      <point x="-41" y="-141" type="curve" smooth="yes"/>
      <point x="-41" y="-183"/>
      <point x="-12" y="-204"/>
    </contour>
  </outline>
</glyph>
<glyph name="J" format="1">
  <advance width="436"/>
  <outline>
    <contour>
      <point x="424" y="682" type="move" name="aboveUC"/>
    </contour>
    <contour>
      <point x="130" y="-30" type="move" name="belowLC"/>
    </contour>
    <contour>
      <point x="150" y="-12" type="curve" smooth="yes"/>
      <point x="249" y="-12"/>
      <point x="314" y="61"/>
      <point x="334" y="172" type="curve" smooth="yes"/>
      <point x="431" y="659" type="line"/>
      <point x="388" y="659" type="line"/>
      <point x="292" y="177" type="line" smooth="yes"/>
      <point x="274" y="86"/>
      <point x="226" y="25"/>
      <point x="151" y="25" type="curve" smooth="yes"/>
      <point x="91" y="25"/>
      <point x="52" y="53"/>
      <point x="34" y="110" type="curve"/>
      <point x="1" y="90" type="line"/>
      <point x="23" y="31"/>
      <point x="70" y="-12"/>
    </contour>
  </outline>
</glyph>
<glyph name="K" format="1">
  <advance width="532"/>
  <outline>
    <contour>
      <point x="39" y="0" type="line"/>
      <point x="82" y="0" type="line"/>
      <point x="130" y="238" type="line"/>
      <point x="290" y="388" type="line"/>
      <point x="429" y="0" type="line"/>
      <point x="474" y="0" type="line"/>
      <point x="323" y="416" type="line"/>
      <point x="573" y="659" type="line"/>
      <point x="522" y="659" type="line"/>
      <point x="144" y="301" type="line"/>
      <point x="142" y="301" type="line"/>
      <point x="213" y="659" type="line"/>
      <point x="170" y="659" type="line"/>
    </contour>
    <contour>
      <point x="390" y="682" type="move" name="aboveUC"/>
    </contour>
    <contour>
      <point x="266" y="-22" type="move" name="belowLC"/>
    </contour>
  </outline>
</glyph>
<glyph name="L" format="1">
  <advance width="440"/>
  <outline>
    <contour>
      <point x="39" y="0" type="line"/>
      <point x="375" y="0" type="line"/>
      <point x="383" y="37" type="line"/>
      <point x="90" y="37" type="line"/>
      <point x="213" y="659" type="line"/>
      <point x="170" y="659" type="line"/>
    </contour>
    <contour>
      <point x="208" y="682" type="move" name="aboveUC"/>
    </contour>
    <contour>
      <point x="220" y="-22" type="move" name="belowLC"/>
    </contour>
  </outline>
</glyph>
<glyph name="Lslash" format="1">
  <advance width="440"/>
  <outline>
    <contour>
      <point x="-3" y="210" type="line"/>
      <point x="95" y="256" type="line"/>
      <point x="132" y="273" type="line"/>
      <point x="345" y="375" type="line"/>
      <point x="353" y="417" type="line"/>
      <point x="140" y="315" type="line"/>
      <point x="103" y="298" type="line"/>
      <point x="5" y="252" type="line"/>
    </contour>
    <component base="L"/>
  </outline>
</glyph>
<glyph name="M" format="1">
  <advance width="684"/>
  <outline>
    <contour>
      <point x="423" y="682" type="move" name="aboveUC"/>
    </contour>
    <contour>
      <point x="303" y="-30" type="move" name="belowLC"/>
    </contour>
    <contour>
      <point x="39" y="0" type="line"/>
      <point x="80" y="0" type="line"/>
      <point x="167" y="436" type="line" smooth="yes"/>
      <point x="178" y="491"/>
      <point x="187" y="558"/>
      <point x="197" y="613" type="curve"/>
      <point x="201" y="613" type="line"/>
      <point x="224" y="470" type="line"/>
      <point x="293" y="74" type="line"/>
      <point x="330" y="74" type="line"/>
      <point x="547" y="470" type="line"/>
      <point x="626" y="613" type="line"/>
      <point x="629" y="613" type="line"/>
      <point x="616" y="560"/>
      <point x="601" y="491"/>
      <point x="589" y="436" type="curve" smooth="yes"/>
      <point x="501" y="0" type="line"/>
      <point x="543" y="0" type="line"/>
      <point x="675" y="659" type="line"/>
      <point x="614" y="659" type="line"/>
      <point x="400" y="273" type="line"/>
      <point x="325" y="127" type="line"/>
      <point x="321" y="127" type="line"/>
      <point x="296" y="273" type="line"/>
      <point x="232" y="659" type="line"/>
      <point x="170" y="659" type="line"/>
    </contour>
  </outline>
</glyph>
<glyph name="N" format="1">
  <advance width="605"/>
  <outline>
    <contour>
      <point x="401" y="682" type="move" name="aboveUC"/>
    </contour>
    <contour>
      <point x="265" y="-30" type="move" name="belowLC"/>
    </contour>
    <contour>
      <point x="39" y="0" type="line"/>
      <point x="81" y="0" type="line"/>
      <point x="162" y="413" type="line" smooth="yes"/>
      <point x="175" y="475"/>
      <point x="186" y="540"/>
      <point x="196" y="605" type="curve"/>
      <point x="200" y="605" type="line"/>
      <point x="248" y="466" type="line"/>
      <point x="421" y="0" type="line"/>
      <point x="465" y="0" type="line"/>
      <point x="597" y="659" type="line"/>
      <point x="554" y="659" type="line"/>
      <point x="473" y="251" type="line" smooth="yes"/>
      <point x="460" y="188"/>
      <point x="451" y="120"/>
      <point x="441" y="57" type="curve"/>
      <point x="437" y="57" type="line"/>
      <point x="391" y="191" type="line"/>
      <point x="216" y="659" type="line"/>
      <point x="170" y="659" type="line"/>
    </contour>
  </outline>
</glyph>
<glyph name="O" format="1">
  <advance width="618"/>
  <outline>
    <contour>
      <point x="409" y="682" type="move" name="aboveUC"/>
    </contour>
    <contour>
      <point x="502" y="649" type="move" name="hornLC"/>
    </contour>
    <contour>
      <point x="279" y="0" type="move" name="ogonekUC"/>
    </contour>
    <contour>
      <point x="273" y="-22" type="move" name="belowLC"/>
    </contour>
    <contour>
      <point x="277" y="-12" type="curve" smooth="yes"/>
      <point x="473" y="-12"/>
      <point x="590" y="214"/>
      <point x="590" y="397" type="curve" smooth="yes"/>
      <point x="590" y="558"/>
      <point x="519" y="671"/>
      <point x="374" y="671" type="curve" smooth="yes"/>
      <point x="179" y="671"/>
      <point x="61" y="445"/>
      <point x="61" y="262" type="curve" smooth="yes"/>
      <point x="61" y="101"/>
      <point x="133" y="-12"/>
    </contour>
    <contour>
      <point x="280" y="25" type="curve" smooth="yes"/>
      <point x="157" y="25"/>
      <point x="105" y="124"/>
      <point x="105" y="267" type="curve" smooth="yes"/>
      <point x="105" y="422"/>
      <point x="202" y="634"/>
      <point x="371" y="634" type="curve" smooth="yes"/>
      <point x="494" y="634"/>
      <point x="547" y="535"/>
      <point x="547" y="392" type="curve" smooth="yes"/>
      <point x="547" y="237"/>
      <point x="449" y="25"/>
    </contour>
  </outline>
</glyph>
<glyph name="OE" format="1">
  <advance width="806"/>
  <outline>
    <contour>
      <point x="580" y="682" type="move" name="aboveUC"/>
    </contour>
    <contour>
      <point x="334" y="0" type="curve" smooth="yes"/>
      <point x="711" y="0" type="line"/>
      <point x="719" y="37" type="line"/>
      <point x="427" y="37" type="line"/>
      <point x="487" y="331" type="line"/>
      <point x="721" y="331" type="line"/>
      <point x="729" y="368" type="line"/>
      <point x="494" y="368" type="line"/>
      <point x="544" y="622" type="line"/>
      <point x="826" y="622" type="line"/>
      <point x="834" y="659" type="line"/>
      <point x="414" y="659" type="line" smooth="yes"/>
      <point x="185" y="659"/>
      <point x="61" y="484"/>
      <point x="61" y="256" type="curve" smooth="yes"/>
      <point x="61" y="102"/>
      <point x="152" y="0"/>
    </contour>
    <contour>
      <point x="336" y="36" type="line"/>
      <point x="181" y="36"/>
      <point x="105" y="126"/>
      <point x="105" y="259" type="curve" smooth="yes"/>
      <point x="105" y="458"/>
      <point x="217" y="623"/>
      <point x="413" y="623" type="curve" smooth="yes"/>
      <point x="503" y="623" type="line"/>
      <point x="386" y="36" type="line"/>
    </contour>
  </outline>
</glyph>
<glyph name="Ohorn" format="1">
  <advance width="618"/>
  <outline>
    <contour>
      <point x="407" y="682" type="move" name="aboveUC"/>
    </contour>
    <contour>
      <point x="273" y="-22" type="move" name="belowLC"/>
    </contour>
    <contour>
      <point x="516" y="611" type="line"/>
      <point x="589" y="622"/>
      <point x="637" y="666"/>
      <point x="637" y="721" type="curve" smooth="yes"/>
      <point x="637" y="734"/>
      <point x="634" y="745"/>
      <point x="628" y="760" type="curve"/>
      <point x="593" y="746" type="line"/>
      <point x="597" y="732"/>
      <point x="597" y="725"/>
      <point x="597" y="715" type="curve" smooth="yes"/>
      <point x="597" y="668"/>
      <point x="547" y="640"/>
      <point x="486" y="639" type="curve"/>
    </contour>
    <component base="O"/>
  </outline>
</glyph>
<glyph name="Oogonek" format="1">
  <advance width="618"/>
  <outline>
    <contour>
      <point x="409" y="682" type="move" name="aboveUC"/>
    </contour>
    <contour>
      <point x="250" y="-204" type="curve" smooth="yes"/>
      <point x="268" y="-204"/>
      <point x="291" y="-198"/>
      <point x="310" y="-187" type="curve"/>
      <point x="298" y="-159" type="line"/>
      <point x="285" y="-167"/>
      <point x="273" y="-171"/>
      <point x="258" y="-171" type="curve" smooth="yes"/>
      <point x="237" y="-171"/>
      <point x="221" y="-155"/>
      <point x="221" y="-130" type="curve" smooth="yes"/>
      <point x="221" y="-86"/>
      <point x="259" y="-32"/>
      <point x="346" y="-2" type="curve" smooth="yes"/>
      <point x="502" y="48"/>
      <point x="590" y="232"/>
      <point x="590" y="397" type="curve" smooth="yes"/>
      <point x="590" y="558"/>
      <point x="519" y="671"/>
      <point x="374" y="671" type="curve" smooth="yes"/>
      <point x="179" y="671"/>
      <point x="61" y="445"/>
      <point x="61" y="262" type="curve" smooth="yes"/>
      <point x="61" y="103"/>
      <point x="131" y="-4"/>
      <point x="264" y="-12" type="curve"/>
      <point x="230" y="-32"/>
      <point x="181" y="-88"/>
      <point x="181" y="-141" type="curve" smooth="yes"/>
      <point x="181" y="-183"/>
      <point x="210" y="-204"/>
    </contour>
    <contour>
      <point x="280" y="25" type="curve" smooth="yes"/>
      <point x="157" y="25"/>
      <point x="105" y="124"/>
      <point x="105" y="267" type="curve" smooth="yes"/>
      <point x="105" y="422"/>
      <point x="202" y="634"/>
      <point x="371" y="634" type="curve" smooth="yes"/>
      <point x="494" y="634"/>
      <point x="547" y="535"/>
      <point x="547" y="392" type="curve" smooth="yes"/>
      <point x="547" y="237"/>
      <point x="449" y="25"/>
    </contour>
  </outline>
</glyph>
<glyph name="Oslash" format="1">
  <advance width="618"/>
  <outline>
    <contour>
      <point x="27" y="-24" type="line"/>
      <point x="650" y="658" type="line"/>
      <point x="629" y="680" type="line"/>
      <point x="1" y="-2" type="line"/>
    </contour>
    <component base="O"/>
    <contour>
      <point x="409" y="682" type="move" name="aboveUC"/>
    </contour>
  </outline>
</glyph>
<glyph name="S" format="1">
  <advance width="493"/>
  <outline>
    <contour>
      <point x="354" y="683" type="move" name="aboveUC"/>
    </contour>
    <contour>
      <point x="222" y="0" type="move" name="baseLC"/>
    </contour>
    <contour>
      <point x="216" y="-30" type="move" name="belowLC"/>
    </contour>
    <contour>
      <point x="227" y="-12" type="curve" smooth="yes"/>
      <point x="351" y="-12"/>
      <point x="444" y="66"/>
      <point x="444" y="182" type="curve" smooth="yes"/>
      <point x="444" y="255"/>
      <point x="403" y="300"/>
      <point x="341" y="337" type="curve" smooth="yes"/>
      <point x="258" y="385" type="line" smooth="yes"/>
      <point x="211" y="412"/>
      <point x="171" y="446"/>
      <point x="171" y="506" type="curve" smooth="yes"/>
      <point x="171" y="568"/>
      <point x="225" y="634"/>
      <point x="311" y="634" type="curve" smooth="yes"/>
      <point x="380" y="634"/>
      <point x="432" y="599"/>
      <point x="466" y="556" type="curve"/>
      <point x="495" y="582" type="line"/>
      <point x="459" y="631"/>
      <point x="396" y="671"/>
      <point x="317" y="671" type="curve" smooth="yes"/>
      <point x="205" y="671"/>
      <point x="127" y="592"/>
      <point x="127" y="501" type="curve" smooth="yes"/>
      <point x="127" y="430"/>
      <point x="176" y="383"/>
      <point x="230" y="351" type="curve" smooth="yes"/>
      <point x="315" y="301" type="line" smooth="yes"/>
      <point x="367" y="271"/>
      <point x="400" y="233"/>
      <point x="400" y="177" type="curve" smooth="yes"/>
      <point x="400" y="85"/>
      <point x="327" y="25"/>
      <point x="232" y="25" type="curve" smooth="yes"/>
      <point x="150" y="25"/>
      <point x="91" y="61"/>
      <point x="49" y="123" type="curve"/>
      <point x="16" y="100" type="line"/>
      <point x="63" y="27"/>
      <point x="135" y="-12"/>
    </contour>
  </outline>
</glyph>
<glyph name="Schwa" format="1">
  <advance width="617"/>
  <outline>
    <contour>
      <point x="449" y="682" type="move" name="aboveUC"/>
    </contour>
    <contour>
      <point x="288" y="-22" type="move" name="belowLC"/>
    </contour>
    <contour>
      <point x="265" y="-12" type="curve" smooth="yes"/>
      <point x="444" y="-12"/>
      <point x="591" y="161"/>
      <point x="591" y="398" type="curve" smooth="yes"/>
      <point x="591" y="561"/>
      <point x="527" y="672"/>
      <point x="383" y="672" type="curve" smooth="yes"/>
      <point x="310" y="672"/>
      <point x="240" y="638"/>
      <point x="193" y="594" type="curve"/>
      <point x="216" y="565" type="line"/>
      <point x="259" y="605"/>
      <point x="317" y="635"/>
      <point x="379" y="635" type="curve" smooth="yes"/>
      <point x="504" y="635"/>
      <point x="548" y="538"/>
      <point x="548" y="391" type="curve" smooth="yes"/>
      <point x="548" y="183"/>
      <point x="424" y="25"/>
      <point x="268" y="25" type="curve" smooth="yes"/>
      <point x="150" y="25"/>
      <point x="83" y="126"/>
      <point x="106" y="293" type="curve"/>
      <point x="548" y="293" type="line"/>
      <point x="556" y="328" type="line"/>
      <point x="74" y="328" type="line"/>
      <point x="67" y="294"/>
      <point x="62" y="268"/>
      <point x="62" y="228" type="curve" smooth="yes"/>
      <point x="62" y="90"/>
      <point x="135" y="-12"/>
    </contour>
  </outline>
</glyph>
<glyph name="T" format="1">
  <advance width="497"/>
  <outline>
    <contour>
      <point x="176" y="0" type="line"/>
      <point x="219" y="0" type="line"/>
      <point x="343" y="620" type="line"/>
      <point x="545" y="620" type="line"/>
      <point x="553" y="659" type="line"/>
      <point x="106" y="659" type="line"/>
      <point x="98" y="620" type="line"/>
      <point x="300" y="620" type="line"/>
    </contour>
    <contour>
      <point x="341" y="682" type="move" name="aboveUC"/>
    </contour>
    <contour>
      <point x="210" y="0" type="move" name="baseLC"/>
    </contour>
    <contour>
      <point x="204" y="-22" type="move" name="belowLC"/>
    </contour>
  </outline>
</glyph>
<glyph name="U" format="1">
  <advance width="600"/>
  <outline>
    <contour>
      <point x="397" y="682" type="move" name="aboveUC"/>
    </contour>
    <contour>
      <point x="575" y="669" type="move" name="hornLC"/>
    </contour>
    <contour>
      <point x="264" y="0" type="move" name="ogonekUC"/>
    </contour>
    <contour>
      <point x="252" y="-22" type="move" name="belowLC"/>
    </contour>
    <contour>
      <point x="90" y="269" type="line"/>
      <point x="84" y="237"/>
      <point x="81" y="211"/>
      <point x="81" y="184" type="curve" smooth="yes"/>
      <point x="81" y="58"/>
      <point x="152" y="-12"/>
      <point x="273" y="-12" type="curve" smooth="yes"/>
      <point x="378" y="-12"/>
      <point x="472" y="53"/>
      <point x="509" y="236" type="curve" smooth="yes"/>
      <point x="594" y="659" type="line"/>
      <point x="551" y="659" type="line"/>
      <point x="468" y="242" type="line" smooth="yes"/>
      <point x="437" y="85"/>
      <point x="360" y="25"/>
      <point x="277" y="25" type="curve" smooth="yes"/>
      <point x="175" y="25"/>
      <point x="124" y="86"/>
      <point x="124" y="192" type="curve" smooth="yes"/>
      <point x="124" y="216"/>
      <point x="126" y="242"/>
      <point x="134" y="273" type="curve" smooth="yes"/>
      <point x="211" y="659" type="line"/>
      <point x="168" y="659" type="line"/>
    </contour>
  </outline>
</glyph>
<glyph name="Uhorn" format="1">
  <advance width="608"/>
  <outline>
    <contour>
      <point x="399" y="682" type="move" name="aboveUC"/>
    </contour>
    <contour>
      <point x="258" y="-22" type="move" name="belowLC"/>
    </contour>
    <contour>
      <point x="586" y="632" type="line"/>
      <point x="666" y="642"/>
      <point x="708" y="689"/>
      <point x="708" y="741" type="curve" smooth="yes"/>
      <point x="708" y="754"/>
      <point x="706" y="765"/>
      <point x="699" y="780" type="curve"/>
      <point x="664" y="765" type="line"/>
      <point x="668" y="751"/>
      <point x="669" y="745"/>
      <point x="669" y="734" type="curve" smooth="yes"/>
      <point x="669" y="690"/>
      <point x="619" y="660"/>
      <point x="562" y="659" type="curve"/>
    </contour>
    <component base="U"/>
  </outline>
</glyph>
<glyph name="V" format="1">
  <advance width="463"/>
  <outline>
    <contour>
      <point x="145" y="0" type="line"/>
      <point x="195" y="0" type="line"/>
      <point x="541" y="659" type="line"/>
      <point x="497" y="659" type="line"/>
      <point x="294" y="269" type="line" smooth="yes"/>
      <point x="257" y="199"/>
      <point x="219" y="120"/>
      <point x="183" y="48" type="curve"/>
      <point x="179" y="48" type="line"/>
      <point x="174" y="122"/>
      <point x="166" y="197"/>
      <point x="159" y="269" type="curve" smooth="yes"/>
      <point x="125" y="659" type="line"/>
      <point x="83" y="659" type="line"/>
    </contour>
    <contour>
      <point x="332" y="682" type="move" name="aboveUC"/>
    </contour>
    <contour>
      <point x="192" y="-30" type="move" name="belowLC"/>
    </contour>
  </outline>
</glyph>
<glyph name="Y" format="1">
  <advance width="433"/>
  <outline>
    <contour>
      <point x="309" y="682" type="move" name="aboveUC"/>
    </contour>
    <contour>
      <point x="174" y="-30" type="move" name="belowLC"/>
    </contour>
    <contour>
      <point x="140" y="0" type="line"/>
      <point x="183" y="0" type="line"/>
      <point x="237" y="269" type="line"/>
      <point x="510" y="659" type="line"/>
      <point x="464" y="659" type="line"/>
      <point x="320" y="451" type="line" smooth="yes"/>
      <point x="288" y="404"/>
      <point x="257" y="356"/>
      <point x="225" y="309" type="curve"/>
      <point x="221" y="309" type="line"/>
      <point x="208" y="358"/>
      <point x="197" y="403"/>
      <point x="184" y="451" type="curve" smooth="yes"/>
      <point x="129" y="659" type="line"/>
      <point x="85" y="659" type="line"/>
      <point x="194" y="269" type="line"/>
    </contour>
  </outline>
</glyph>
<glyph name="Z" format="1">
  <advance width="505"/>
  <outline>
    <contour>
      <point x="355" y="682" type="move" name="aboveUC"/>
    </contour>
    <contour>
      <point x="209" y="-30" type="move" name="belowLC"/>
    </contour>
    <contour>
      <point x="1" y="0" type="line"/>
      <point x="414" y="0" type="line"/>
      <point x="422" y="37" type="line"/>
      <point x="63" y="37" type="line"/>
      <point x="526" y="633" type="line"/>
      <point x="531" y="659" type="line"/>
      <point x="155" y="659" type="line"/>
      <point x="147" y="622" type="line"/>
      <point x="472" y="622" type="line"/>
      <point x="7" y="26" type="line"/>
    </contour>
  </outline>
</glyph>
<glyph name="a.supa" format="1">
  <advance width="326"/>
  <outline>
    <contour>
      <point x="61" y="338" type="curve" smooth="yes"/>
      <point x="61" y="288"/>
      <point x="97" y="261"/>
      <point x="141" y="261" type="curve" smooth="yes"/>
      <point x="177" y="261"/>
      <point x="220" y="283"/>
      <point x="249" y="310" type="curve"/>
      <point x="253" y="310" type="line"/>
      <point x="246" y="269" type="line"/>
      <point x="275" y="269" type="line"/>
      <point x="313" y="461" type="line" smooth="yes"/>
      <point x="315" y="474"/>
      <point x="318" y="492"/>
      <point x="318" y="504" type="curve" smooth="yes"/>
      <point x="318" y="569"/>
      <point x="284" y="595"/>
      <point x="224" y="595" type="curve" smooth="yes"/>
      <point x="187" y="595"/>
      <point x="146" y="581"/>
      <point x="113" y="562" type="curve"/>
      <point x="125" y="535" type="line"/>
      <point x="157" y="551"/>
      <point x="190" y="564"/>
      <point x="219" y="564" type="curve" smooth="yes"/>
      <point x="267" y="564"/>
      <point x="283" y="542"/>
      <point x="283" y="501" type="curve" smooth="yes"/>
      <point x="283" y="490"/>
      <point x="282" y="482"/>
      <point x="279" y="468" type="curve"/>
      <point x="153" y="462"/>
      <point x="61" y="428"/>
    </contour>
    <contour>
      <point x="274" y="442" type="curve"/>
      <point x="255" y="345" type="line"/>
      <point x="218" y="312"/>
      <point x="182" y="291"/>
      <point x="148" y="291" type="curve" smooth="yes"/>
      <point x="118" y="291"/>
      <point x="95" y="306"/>
      <point x="95" y="344" type="curve" smooth="yes"/>
      <point x="95" y="407"/>
      <point x="169" y="438"/>
    </contour>
  </outline>
</glyph>
<glyph name="a.sups" format="1">
  <advance width="348"/>
  <outline>
    <contour>
      <point x="90" y="514" type="curve" smooth="yes"/>
      <point x="90" y="438"/>
      <point x="128" y="398"/>
      <point x="184" y="398" type="curve" smooth="yes"/>
      <point x="229" y="398"/>
      <point x="269" y="421"/>
      <point x="302" y="457" type="curve"/>
      <point x="306" y="457" type="line"/>
      <point x="297" y="406" type="line"/>
      <point x="326" y="406" type="line"/>
      <point x="388" y="723" type="line"/>
      <point x="361" y="723" type="line"/>
      <point x="349" y="682" type="line"/>
      <point x="345" y="682" type="line"/>
      <point x="327" y="717"/>
      <point x="298" y="731"/>
      <point x="266" y="731" type="curve" smooth="yes"/>
      <point x="176" y="731"/>
      <point x="90" y="635"/>
    </contour>
    <contour>
      <point x="191" y="428" type="curve" smooth="yes"/>
      <point x="153" y="428"/>
      <point x="125" y="457"/>
      <point x="125" y="519" type="curve" smooth="yes"/>
      <point x="125" y="611"/>
      <point x="195" y="701"/>
      <point x="265" y="701" type="curve" smooth="yes"/>
      <point x="292" y="701"/>
      <point x="317" y="687"/>
      <point x="339" y="646" type="curve"/>
      <point x="310" y="499" type="line"/>
      <point x="274" y="458"/>
      <point x="229" y="428"/>
    </contour>
  </outline>
</glyph>
<glyph name="acutecmb.cap" format="1">
  <advance width="0"/>
  <outline>
    <contour>
      <point x="136" y="682" type="move" name="_aboveUC"/>
    </contour>
    <contour>
      <point x="119" y="707" type="line"/>
      <point x="249" y="809" type="line"/>
      <point x="207" y="821" type="line"/>
      <point x="88" y="716" type="line"/>
    </contour>
  </outline>
</glyph>
<glyph name="acutecmb.cap" format="1">
  <advance width="0"/>
  <outline>
    <contour>
      <point x="136" y="682" type="move" name="_aboveUC"/>
    </contour>
    <contour>
      <point x="114" y="712" type="line"/>
      <point x="267" y="813" type="line"/>
      <point x="243" y="848" type="line"/>
      <point x="97" y="736" type="line"/>
    </contour>
  </outline>
</glyph>
<glyph name="ae" format="1">
  <advance width="765"/>
  <outline>
    <contour>
      <point x="38" y="103" type="curve" smooth="yes"/>
      <point x="38" y="27"/>
      <point x="94" y="-12"/>
      <point x="158" y="-12" type="curve" smooth="yes"/>
      <point x="230" y="-12"/>
      <point x="300" y="27"/>
      <point x="367" y="93" type="curve"/>
      <point x="388" y="33"/>
      <point x="448" y="-12"/>
      <point x="518" y="-12" type="curve" smooth="yes"/>
      <point x="574" y="-12"/>
      <point x="625" y="12"/>
      <point x="663" y="40" type="curve"/>
      <point x="645" y="70" type="line"/>
      <point x="610" y="45"/>
      <point x="567" y="23"/>
      <point x="523" y="23" type="curve" smooth="yes"/>
      <point x="427" y="23"/>
      <point x="371" y="113"/>
      <point x="395" y="238" type="curve"/>
      <point x="716" y="238" type="line"/>
      <point x="722" y="257"/>
      <point x="729" y="288"/>
      <point x="729" y="322" type="curve" smooth="yes"/>
      <point x="729" y="421"/>
      <point x="689" y="492"/>
      <point x="585" y="492" type="curve" smooth="yes"/>
      <point x="519" y="492"/>
      <point x="453" y="449"/>
      <point x="407" y="380" type="curve"/>
      <point x="401" y="456"/>
      <point x="354" y="492"/>
      <point x="283" y="492" type="curve" smooth="yes"/>
      <point x="228" y="492"/>
      <point x="167" y="469"/>
      <point x="121" y="442" type="curve"/>
      <point x="136" y="410" type="line"/>
      <point x="182" y="437"/>
      <point x="233" y="456"/>
      <point x="278" y="456" type="curve" smooth="yes"/>
      <point x="346" y="456"/>
      <point x="372" y="419"/>
      <point x="372" y="353" type="curve" smooth="yes"/>
      <point x="372" y="335"/>
      <point x="370" y="320"/>
      <point x="365" y="296" type="curve"/>
      <point x="168" y="288"/>
      <point x="38" y="237"/>
    </contour>
    <contour>
      <point x="401" y="271" type="line"/>
      <point x="427" y="380"/>
      <point x="508" y="457"/>
      <point x="581" y="457" type="curve" smooth="yes"/>
      <point x="663" y="457"/>
      <point x="691" y="393"/>
      <point x="691" y="328" type="curve" smooth="yes"/>
      <point x="691" y="307"/>
      <point x="689" y="290"/>
      <point x="685" y="271" type="curve"/>
    </contour>
    <contour>
      <point x="359" y="263" type="curve"/>
      <point x="350" y="212"/>
      <point x="348" y="178"/>
      <point x="356" y="126" type="curve"/>
      <point x="288" y="56"/>
      <point x="219" y="24"/>
      <point x="170" y="24" type="curve" smooth="yes"/>
      <point x="118" y="24"/>
      <point x="79" y="54"/>
      <point x="79" y="112" type="curve" smooth="yes"/>
      <point x="79" y="211"/>
      <point x="190" y="259"/>
    </contour>
  </outline>
</glyph>
<glyph name="arrowup" format="1">
  <advance width="594"/>
  <outline>
    <contour>
      <point x="279" y="-26" type="line"/>
      <point x="315" y="-26" type="line"/>
      <point x="315" y="466" type="line"/>
      <point x="538" y="244" type="line"/>
      <point x="562" y="267" type="line"/>
      <point x="300" y="526" type="line"/>
      <point x="294" y="526" type="line"/>
      <point x="31" y="267" type="line"/>
      <point x="56" y="244" type="line"/>
      <point x="279" y="466" type="line"/>
    </contour>
  </outline>
</glyph>
<glyph name="asciitilde" format="1">
  <advance width="462"/>
  <outline>
    <contour>
      <point x="326" y="269" type="curve" smooth="yes"/>
      <point x="364" y="269"/>
      <point x="403" y="295"/>
      <point x="431" y="350" type="curve"/>
      <point x="404" y="366" type="line"/>
      <point x="380" y="321"/>
      <point x="356" y="303"/>
      <point x="327" y="303" type="curve" smooth="yes"/>
      <point x="273" y="303"/>
      <point x="226" y="393"/>
      <point x="154" y="393" type="curve" smooth="yes"/>
      <point x="116" y="393"/>
      <point x="77" y="367"/>
      <point x="49" y="312" type="curve"/>
      <point x="76" y="296" type="line"/>
      <point x="100" y="341"/>
      <point x="124" y="359"/>
      <point x="153" y="359" type="curve" smooth="yes"/>
      <point x="207" y="359"/>
      <point x="254" y="269"/>
    </contour>
  </outline>
</glyph>
<glyph name="b.sups" format="1">
  <advance width="354"/>
  <outline>
    <contour>
      <point x="90" y="269" type="line"/>
      <point x="103" y="310" type="line"/>
      <point x="107" y="310" type="line"/>
      <point x="124" y="275"/>
      <point x="153" y="261"/>
      <point x="185" y="261" type="curve" smooth="yes"/>
      <point x="275" y="261"/>
      <point x="361" y="357"/>
      <point x="361" y="478" type="curve" smooth="yes"/>
      <point x="361" y="554"/>
      <point x="323" y="595"/>
      <point x="267" y="595" type="curve" smooth="yes"/>
      <point x="223" y="595"/>
      <point x="187" y="575"/>
      <point x="154" y="547" type="curve"/>
      <point x="152" y="547" type="line"/>
      <point x="166" y="613" type="line"/>
      <point x="192" y="742" type="line"/>
      <point x="157" y="742" type="line"/>
      <point x="63" y="269" type="line"/>
    </contour>
    <contour>
      <point x="261" y="564" type="curve" smooth="yes"/>
      <point x="298" y="564"/>
      <point x="326" y="536"/>
      <point x="326" y="473" type="curve" smooth="yes"/>
      <point x="326" y="381"/>
      <point x="256" y="292"/>
      <point x="186" y="292" type="curve" smooth="yes"/>
      <point x="160" y="292"/>
      <point x="135" y="305"/>
      <point x="113" y="346" type="curve"/>
      <point x="145" y="508" type="line"/>
      <point x="181" y="542"/>
      <point x="223" y="564"/>
    </contour>
  </outline>
</glyph>
<glyph name="backslash" format="1">
  <advance width="347"/>
  <outline>
    <contour>
      <point x="229" y="-160" type="line"/>
      <point x="261" y="-160" type="line"/>
      <point x="121" y="710" type="line"/>
      <point x="89" y="710" type="line"/>
    </contour>
  </outline>
</glyph>
<glyph name="braceleft" format="1">
  <advance width="268"/>
  <outline>
    <contour>
      <point x="131" y="-152" type="curve" smooth="yes"/>
      <point x="165" y="-152" type="line"/>
      <point x="172" y="-124" type="line"/>
      <point x="144" y="-124" type="line" smooth="yes"/>
      <point x="96" y="-124"/>
      <point x="82" y="-105"/>
      <point x="82" y="-68" type="curve" smooth="yes"/>
      <point x="82" y="-2"/>
      <point x="137" y="146"/>
      <point x="137" y="218" type="curve" smooth="yes"/>
      <point x="137" y="240"/>
      <point x="130" y="262"/>
      <point x="101" y="274" type="curve"/>
      <point x="101" y="278" type="line"/>
      <point x="144" y="290"/>
      <point x="163" y="325"/>
      <point x="176" y="384" type="curve" smooth="yes"/>
      <point x="188" y="447"/>
      <point x="196" y="515"/>
      <point x="207" y="574" type="curve" smooth="yes"/>
      <point x="221" y="644"/>
      <point x="242" y="680"/>
      <point x="302" y="680" type="curve" smooth="yes"/>
      <point x="332" y="680" type="line"/>
      <point x="337" y="708" type="line"/>
      <point x="302" y="708" type="line" smooth="yes"/>
      <point x="228" y="708"/>
      <point x="195" y="679"/>
      <point x="175" y="578" type="curve" smooth="yes"/>
      <point x="161" y="510"/>
      <point x="152" y="439"/>
      <point x="140" y="375" type="curve" smooth="yes"/>
      <point x="132" y="335"/>
      <point x="112" y="294"/>
      <point x="42" y="293" type="curve"/>
      <point x="35" y="263" type="line"/>
      <point x="94" y="262"/>
      <point x="105" y="234"/>
      <point x="105" y="208" type="curve" smooth="yes"/>
      <point x="105" y="144"/>
      <point x="48" y="-5"/>
      <point x="48" y="-76" type="curve" smooth="yes"/>
      <point x="48" y="-131"/>
      <point x="74" y="-152"/>
    </contour>
  </outline>
</glyph>
<glyph name="brackhalfbotleft" format="1">
  <advance width="270"/>
  <outline>
    <contour>
      <point x="15" y="-152" type="line"/>
      <point x="168" y="-152" type="line"/>
      <point x="173" y="-124" type="line"/>
      <point x="54" y="-124" type="line"/>
      <point x="133" y="278" type="line"/>
      <point x="101" y="278" type="line"/>
    </contour>
  </outline>
</glyph>
<glyph name="brackhalfbotright" format="1">
  <advance width="270"/>
  <outline>
    <contour>
      <point x="-60" y="-152" type="line"/>
      <point x="93" y="-152" type="line"/>
      <point x="179" y="278" type="line"/>
      <point x="145" y="278" type="line"/>
      <point x="65" y="-124" type="line"/>
      <point x="-55" y="-124" type="line"/>
    </contour>
  </outline>
</glyph>
<glyph name="brackhalftopright" format="1">
  <advance width="270"/>
  <outline>
    <contour>
      <point x="147" y="278" type="line"/>
      <point x="179" y="278" type="line"/>
      <point x="265" y="708" type="line"/>
      <point x="112" y="708" type="line"/>
      <point x="107" y="680" type="line"/>
      <point x="226" y="680" type="line"/>
    </contour>
  </outline>
</glyph>
<glyph name="breveacute.cap" format="1">
  <outline>
    <contour>
      <point x="122" y="710" type="curve" smooth="yes"/>
      <point x="213" y="710"/>
      <point x="265" y="775"/>
      <point x="282" y="834" type="curve"/>
      <point x="251" y="839" type="line"/>
      <point x="233" y="788"/>
      <point x="193" y="742"/>
      <point x="129" y="742" type="curve" smooth="yes"/>
      <point x="64" y="742"/>
      <point x="40" y="788"/>
      <point x="42" y="839" type="curve"/>
      <point x="10" y="834" type="line"/>
      <point x="7" y="775"/>
      <point x="36" y="710"/>
    </contour>
    <contour>
      <point x="138" y="824" type="line"/>
      <point x="256" y="912" type="line"/>
      <point x="231" y="939" type="line"/>
      <point x="118" y="845" type="line"/>
    </contour>
    <contour>
      <point x="136" y="682" type="move" name="_aboveUC"/>
    </contour>
  </outline>
</glyph>
<glyph name="breveacute" format="1">
  <outline>
    <contour>
      <point x="114" y="570" type="curve" smooth="yes"/>
      <point x="218" y="570"/>
      <point x="273" y="652"/>
      <point x="291" y="718" type="curve"/>
      <point x="259" y="723" type="line"/>
      <point x="240" y="666"/>
      <point x="193" y="603"/>
      <point x="121" y="603" type="curve" smooth="yes"/>
      <point x="48" y="603"/>
      <point x="22" y="666"/>
      <point x="26" y="723" type="curve"/>
      <point x="-7" y="718" type="line"/>
      <point x="-10" y="652"/>
      <point x="14" y="570"/>
    </contour>
    <contour>
      <point x="133" y="703" type="line"/>
      <point x="245" y="792" type="line"/>
      <point x="218" y="820" type="line"/>
      <point x="114" y="724" type="line"/>
    </contour>
    <contour>
      <point x="105" y="504" type="move" name="_aboveLC"/>
    </contour>
  </outline>
</glyph>
<glyph name="brevecmb.cap" format="1">
  <advance width="0"/>
  <outline>
    <contour>
      <point x="136" y="682" type="move" name="_aboveUC"/>
    </contour>
    <contour>
      <point x="124" y="708" type="curve" smooth="yes"/>
      <point x="197" y="708"/>
      <point x="240" y="765"/>
      <point x="255" y="814" type="curve"/>
      <point x="225" y="816" type="line"/>
      <point x="210" y="780"/>
      <point x="178" y="742"/>
      <point x="129" y="742" type="curve" smooth="yes"/>
      <point x="79" y="742"/>
      <point x="60" y="778"/>
      <point x="61" y="816" type="curve"/>
      <point x="32" y="814" type="line"/>
      <point x="29" y="768"/>
      <point x="51" y="708"/>
    </contour>
  </outline>
</glyph>
<glyph name="brevecmb" format="1">
  <advance width="0"/>
  <outline>
    <contour>
      <point x="105" y="504" type="move" name="_aboveLC"/>
    </contour>
    <contour>
      <point x="114" y="570" type="curve" smooth="yes"/>
      <point x="218" y="570"/>
      <point x="273" y="652"/>
      <point x="291" y="718" type="curve"/>
      <point x="258" y="723" type="line"/>
      <point x="239" y="667"/>
      <point x="193" y="604"/>
      <point x="121" y="604" type="curve" smooth="yes"/>
      <point x="49" y="604"/>
      <point x="23" y="667"/>
      <point x="27" y="723" type="curve"/>
      <point x="-7" y="718" type="line"/>
      <point x="-10" y="652"/>
      <point x="14" y="570"/>
    </contour>
  </outline>
</glyph>
<glyph name="brevegrave" format="1">
  <outline>
    <contour>
      <point x="114" y="570" type="curve" smooth="yes"/>
      <point x="218" y="570"/>
      <point x="273" y="652"/>
      <point x="291" y="718" type="curve"/>
      <point x="259" y="723" type="line"/>
      <point x="240" y="666"/>
      <point x="193" y="603"/>
      <point x="121" y="603" type="curve" smooth="yes"/>
      <point x="48" y="603"/>
      <point x="22" y="666"/>
      <point x="26" y="723" type="curve"/>
      <point x="-7" y="718" type="line"/>
      <point x="-10" y="652"/>
      <point x="14" y="570"/>
    </contour>
    <contour>
      <point x="146" y="696" type="line"/>
      <point x="171" y="712" type="line"/>
      <point x="99" y="825" type="line"/>
      <point x="68" y="802" type="line"/>
    </contour>
    <contour>
      <point x="105" y="504" type="move" name="_aboveLC"/>
    </contour>
  </outline>
</glyph>
<glyph name="brevehoi.cap" format="1">
  <outline>
    <contour>
      <point x="122" y="710" type="curve" smooth="yes"/>
      <point x="212" y="710"/>
      <point x="265" y="775"/>
      <point x="282" y="834" type="curve"/>
      <point x="251" y="839" type="line"/>
      <point x="233" y="788"/>
      <point x="193" y="742"/>
      <point x="129" y="742" type="curve" smooth="yes"/>
      <point x="64" y="742"/>
      <point x="40" y="788"/>
      <point x="42" y="839" type="curve"/>
      <point x="11" y="834" type="line"/>
      <point x="7" y="775"/>
      <point x="35" y="710"/>
    </contour>
    <contour>
      <point x="122" y="797" type="line"/>
      <point x="162" y="807"/>
      <point x="207" y="825"/>
      <point x="216" y="871" type="curve" smooth="yes"/>
      <point x="225" y="919"/>
      <point x="182" y="937"/>
      <point x="124" y="939" type="curve"/>
      <point x="113" y="909" type="line"/>
      <point x="160" y="906"/>
      <point x="183" y="896"/>
      <point x="177" y="866" type="curve" smooth="yes"/>
      <point x="172" y="843"/>
      <point x="147" y="832"/>
      <point x="117" y="824" type="curve"/>
    </contour>
    <contour>
      <point x="136" y="682" type="move" name="_aboveUC"/>
    </contour>
  </outline>
</glyph>
<glyph name="brevehoi" format="1">
  <outline>
    <contour>
      <point x="114" y="570" type="curve" smooth="yes"/>
      <point x="217" y="570"/>
      <point x="273" y="652"/>
      <point x="291" y="718" type="curve"/>
      <point x="259" y="723" type="line"/>
      <point x="240" y="666"/>
      <point x="193" y="603"/>
      <point x="121" y="603" type="curve" smooth="yes"/>
      <point x="48" y="603"/>
      <point x="22" y="666"/>
      <point x="26" y="723" type="curve"/>
      <point x="-7" y="718" type="line"/>
      <point x="-10" y="652"/>
      <point x="14" y="570"/>
    </contour>
    <contour>
      <point x="113" y="673" type="line"/>
      <point x="155" y="681"/>
      <point x="207" y="704"/>
      <point x="215" y="752" type="curve" smooth="yes"/>
      <point x="225" y="801"/>
      <point x="178" y="823"/>
      <point x="113" y="825" type="curve"/>
      <point x="104" y="792" type="line"/>
      <point x="158" y="790"/>
      <point x="183" y="777"/>
      <point x="177" y="746" type="curve" smooth="yes"/>
      <point x="172" y="723"/>
      <point x="144" y="708"/>
      <point x="109" y="701" type="curve"/>
    </contour>
    <contour>
      <point x="105" y="504" type="move" name="_aboveLC"/>
    </contour>
  </outline>
</glyph>
<glyph name="brevetilde.cap" format="1">
	<outline>
		<contour>
			<point x="124" y="711" type="curve" smooth="yes"/>
			<point x="213" y="711"/>
			<point x="264" y="765"/>
			<point x="279" y="814" type="curve"/>
			<point x="248" y="819" type="line"/>
			<point x="234" y="779"/>
			<point x="196" y="742"/>
			<point x="130" y="742" type="curve" smooth="yes"/>
			<point x="65" y="742"/>
			<point x="40" y="779"/>
			<point x="41" y="819" type="curve"/>
			<point x="9" y="814" type="line"/>
			<point x="6" y="765"/>
			<point x="36" y="711"/>
		</contour>
		<contour>
			<point x="218" y="841" type="curve" smooth="yes"/>
			<point x="273" y="841"/>
			<point x="295" y="884"/>
			<point x="304" y="921" type="curve"/>
			<point x="275" y="924" type="line"/>
			<point x="266" y="893"/>
			<point x="252" y="873"/>
			<point x="225" y="873" type="curve" smooth="yes"/>
			<point x="176" y="873"/>
			<point x="165" y="926"/>
			<point x="96" y="926" type="curve" smooth="yes"/>
			<point x="42" y="926"/>
			<point x="20" y="883"/>
			<point x="10" y="846" type="curve"/>
			<point x="39" y="843" type="line"/>
			<point x="49" y="874"/>
			<point x="63" y="894"/>
			<point x="90" y="894" type="curve" smooth="yes"/>
			<point x="139" y="894"/>
			<point x="150" y="841"/>
		</contour>
		<contour>
			<point name="_aboveUC" x="136" y="682" type="move"/>
		</contour>
	</outline>
</glyph>
<glyph name="brevetilde" format="1">
  <advance width="0"/>
  <outline>
    <contour>
      <point x="67" y="504" type="move" name="_aboveLC"/>
    </contour>
    <contour>
      <point x="75" y="576" type="curve" smooth="yes"/>
      <point x="150" y="576"/>
      <point x="193" y="631"/>
      <point x="211" y="675" type="curve"/>
      <point x="182" y="677" type="line"/>
      <point x="164" y="639"/>
      <point x="124" y="606"/>
      <point x="78" y="606" type="curve" smooth="yes"/>
      <point x="32" y="606"/>
      <point x="10" y="637"/>
      <point x="12" y="677" type="curve"/>
      <point x="-17" y="675" type="line"/>
      <point x="-19" y="631"/>
      <point x="-1" y="576"/>
    </contour>
    <contour>
      <point x="156" y="702" type="curve" smooth="yes"/>
      <point x="191" y="702"/>
      <point x="221" y="737"/>
      <point x="232" y="778" type="curve"/>
      <point x="204" y="779" type="line"/>
      <point x="196" y="753"/>
      <point x="175" y="732"/>
      <point x="159" y="732" type="curve" smooth="yes"/>
      <point x="120" y="732"/>
      <point x="115" y="782"/>
      <point x="61" y="782" type="curve" smooth="yes"/>
      <point x="27" y="782"/>
      <point x="-3" y="746"/>
      <point x="-14" y="705" type="curve"/>
      <point x="14" y="704" type="line"/>
      <point x="22" y="730"/>
      <point x="43" y="751"/>
      <point x="59" y="751" type="curve" smooth="yes"/>
      <point x="97" y="751"/>
      <point x="102" y="702"/>
    </contour>
  </outline>
</glyph>
<glyph name="c.sups" format="1">
  <advance width="289"/>
  <outline>
    <contour>
      <point x="182" y="261" type="curve" smooth="yes"/>
      <point x="223" y="261"/>
      <point x="256" y="277"/>
      <point x="277" y="293" type="curve"/>
      <point x="263" y="318" type="line"/>
      <point x="242" y="305"/>
      <point x="216" y="291"/>
      <point x="187" y="291" type="curve" smooth="yes"/>
      <point x="137" y="291"/>
      <point x="97" y="326"/>
      <point x="97" y="393" type="curve" smooth="yes"/>
      <point x="97" y="467"/>
      <point x="155" y="564"/>
      <point x="233" y="564" type="curve" smooth="yes"/>
      <point x="262" y="564"/>
      <point x="281" y="555"/>
      <point x="300" y="534" type="curve"/>
      <point x="322" y="556" type="line"/>
      <point x="301" y="580"/>
      <point x="274" y="595"/>
      <point x="237" y="595" type="curve" smooth="yes"/>
      <point x="134" y="595"/>
      <point x="63" y="486"/>
      <point x="63" y="388" type="curve" smooth="yes"/>
      <point x="63" y="309"/>
      <point x="112" y="261"/>
    </contour>
  </outline>
</glyph>
<glyph name="caroncmb.cap" format="1">
  <advance width="0"/>
  <outline>
    <contour>
      <point x="136" y="682" type="move" name="_aboveUC"/>
    </contour>
    <contour>
      <point x="101" y="709" type="line"/>
      <point x="145" y="709" type="line"/>
      <point x="278" y="822" type="line"/>
      <point x="259" y="841" type="line"/>
      <point x="128" y="742" type="line"/>
      <point x="124" y="742" type="line"/>
      <point x="31" y="840" type="line"/>
      <point x="9" y="823" type="line"/>
    </contour>
  </outline>
</glyph>
<glyph name="caroncmb" format="1">
  <advance width="0"/>
  <outline>
    <contour>
      <point x="105" y="504" type="move" name="_aboveLC"/>
    </contour>
    <contour>
      <point x="95" y="571" type="line"/>
      <point x="129" y="571" type="line"/>
      <point x="252" y="704" type="line"/>
      <point x="221" y="710" type="line"/>
      <point x="120" y="612" type="line"/>
      <point x="116" y="612" type="line"/>
      <point x="55" y="710" type="line"/>
      <point x="26" y="704" type="line"/>
    </contour>
  </outline>
</glyph>
<glyph name="cedillacmb" format="1">
  <outline>
    <contour>
      <point x="-125" y="-219" type="line"/>
      <point x="-30" y="-217"/>
      <point x="34" y="-184"/>
      <point x="35" y="-125" type="curve" smooth="yes"/>
      <point x="36" y="-96"/>
      <point x="24" y="-79"/>
      <point x="-22" y="-67" type="curve"/>
      <point x="20" y="2" type="line"/>
      <point x="-15" y="2" type="line"/>
      <point x="-72" y="-87" type="line"/>
      <point x="-26" y="-91"/>
      <point x="-4" y="-104"/>
      <point x="-4" y="-132" type="curve" smooth="yes"/>
      <point x="-5" y="-165"/>
      <point x="-45" y="-188"/>
      <point x="-127" y="-191" type="curve"/>
    </contour>
    <contour>
      <point x="0" y="0" type="move" name="_baseLC"/>
    </contour>
  </outline>
</glyph>
<glyph name="ceilingleft" format="1">
  <advance width="270"/>
  <outline>
    <contour>
      <point x="45" y="0" type="line"/>
      <point x="79" y="0" type="line"/>
      <point x="210" y="660" type="line"/>
      <point x="329" y="660" type="line"/>
      <point x="334" y="688" type="line"/>
      <point x="182" y="688" type="line"/>
    </contour>
  </outline>
</glyph>
<glyph name="ceilingright" format="1">
  <advance width="270"/>
  <outline>
    <contour>
      <point x="89" y="0" type="line"/>
      <point x="121" y="0" type="line"/>
      <point x="261" y="688" type="line"/>
      <point x="108" y="688" type="line"/>
      <point x="103" y="660" type="line"/>
      <point x="222" y="660" type="line"/>
    </contour>
  </outline>
</glyph>
<glyph name="cent" format="1">
  <advance width="462"/>
  <outline>
    <contour>
      <point x="247" y="99" type="curve" smooth="yes"/>
      <point x="319" y="99"/>
      <point x="364" y="128"/>
      <point x="404" y="153" type="curve"/>
      <point x="387" y="185" type="line"/>
      <point x="352" y="159"/>
      <point x="307" y="135"/>
      <point x="253" y="135" type="curve" smooth="yes"/>
      <point x="166" y="135"/>
      <point x="123" y="197"/>
      <point x="123" y="296" type="curve" smooth="yes"/>
      <point x="123" y="434"/>
      <point x="230" y="525"/>
      <point x="319" y="525" type="curve" smooth="yes"/>
      <point x="371" y="525"/>
      <point x="397" y="506"/>
      <point x="427" y="469" type="curve"/>
      <point x="455" y="496" type="line"/>
      <point x="426" y="531"/>
      <point x="385" y="561"/>
      <point x="323" y="561" type="curve" smooth="yes"/>
      <point x="210" y="561"/>
      <point x="81" y="458"/>
      <point x="81" y="288" type="curve" smooth="yes"/>
      <point x="81" y="166"/>
      <point x="145" y="99"/>
    </contour>
    <contour>
      <point x="198" y="-11" type="line"/>
      <point x="232" y="-11" type="line"/>
      <point x="366" y="667" type="line"/>
      <point x="332" y="667" type="line"/>
    </contour>
  </outline>
</glyph>
<glyph name="checkbox" format="1">
  <advance width="760"/>
  <outline>
    <contour>
      <point x="70" y="-10" type="line"/>
      <point x="647" y="-10" type="line"/>
      <point x="690" y="43" type="line"/>
      <point x="690" y="670" type="line"/>
      <point x="123" y="670" type="line"/>
      <point x="70" y="624" type="line"/>
    </contour>
    <contour>
      <point x="103" y="23" type="line"/>
      <point x="103" y="602" type="line"/>
      <point x="627" y="602" type="line"/>
      <point x="627" y="23" type="line"/>
    </contour>
  </outline>
</glyph>
<glyph name="circumflexacute.cap" format="1">
  <advance width="0"/>
  <outline>
    <contour>
      <point x="69" y="682" type="move" name="_aboveUC"/>
    </contour>
    <contour>
      <point x="-13" y="707" type="line"/>
      <point x="73" y="777" type="line"/>
      <point x="77" y="777" type="line"/>
      <point x="135" y="707" type="line"/>
      <point x="166" y="711" type="line"/>
      <point x="96" y="808" type="line"/>
      <point x="59" y="808" type="line"/>
      <point x="-47" y="711" type="line"/>
    </contour>
    <contour>
      <point x="174" y="767" type="line"/>
      <point x="269" y="867" type="line"/>
      <point x="236" y="874" type="line"/>
      <point x="147" y="773" type="line"/>
    </contour>
  </outline>
</glyph>
<glyph name="circumflexacute" format="1">
  <outline>
    <contour>
      <point x="11" y="573" type="line"/>
      <point x="132" y="652" type="line"/>
      <point x="136" y="652" type="line"/>
      <point x="222" y="573" type="line"/>
      <point x="243" y="593" type="line"/>
      <point x="154" y="687" type="line"/>
      <point x="116" y="687" type="line"/>
      <point x="-5" y="596" type="line"/>
    </contour>
    <contour>
      <point x="235" y="640" type="line"/>
      <point x="354" y="741" type="line"/>
      <point x="327" y="768" type="line"/>
      <point x="214" y="662" type="line"/>
    </contour>
    <contour>
      <point x="105" y="504" type="move" name="_aboveLC"/>
    </contour>
  </outline>
</glyph>
<glyph name="circumflexbreve.cap" format="1">
  <advance width="0"/>
  <outline>
    <contour>
      <point x="69" y="682" type="move" name="_aboveUC"/>
    </contour>
    <contour>
      <point x="-13" y="707" type="line"/>
      <point x="73" y="777" type="line"/>
      <point x="77" y="777" type="line"/>
      <point x="135" y="707" type="line"/>
      <point x="166" y="711" type="line"/>
      <point x="96" y="807" type="line"/>
      <point x="59" y="807" type="line"/>
      <point x="-46" y="711" type="line"/>
    </contour>
    <contour>
      <point x="80" y="836" type="curve" smooth="yes"/>
      <point x="153" y="836"/>
      <point x="193" y="882"/>
      <point x="206" y="923" type="curve"/>
      <point x="177" y="924" type="line"/>
      <point x="163" y="894"/>
      <point x="135" y="866"/>
      <point x="83" y="866" type="curve" smooth="yes"/>
      <point x="33" y="866"/>
      <point x="19" y="892"/>
      <point x="20" y="924" type="curve"/>
      <point x="-8" y="923" type="line"/>
      <point x="-11" y="883"/>
      <point x="7" y="836"/>
    </contour>
  </outline>
</glyph>
<glyph name="circumflexbreve" format="1">
  <advance width="0"/>
  <outline>
    <contour>
      <point x="67" y="504" type="move" name="_aboveLC"/>
    </contour>
    <contour>
      <point x="0" y="569" type="line"/>
      <point x="86" y="633" type="line"/>
      <point x="90" y="633" type="line"/>
      <point x="153" y="569" type="line"/>
      <point x="181" y="573" type="line"/>
      <point x="111" y="667" type="line"/>
      <point x="75" y="667" type="line"/>
      <point x="-33" y="573" type="line"/>
    </contour>
    <contour>
      <point x="97" y="692" type="curve" smooth="yes"/>
      <point x="171" y="692"/>
      <point x="206" y="737"/>
      <point x="224" y="777" type="curve"/>
      <point x="197" y="779" type="line"/>
      <point x="179" y="746"/>
      <point x="147" y="721"/>
      <point x="100" y="721" type="curve" smooth="yes"/>
      <point x="54" y="721"/>
      <point x="33" y="745"/>
      <point x="34" y="779" type="curve"/>
      <point x="8" y="777" type="line"/>
      <point x="7" y="737"/>
      <point x="24" y="692"/>
    </contour>
  </outline>
</glyph>
<glyph name="circumflexcmb.cap" format="1">
  <advance width="0"/>
  <outline>
    <contour>
      <point x="136" y="683" type="move" name="_aboveUC"/>
    </contour>
    <contour>
      <point x="14" y="707" type="line"/>
      <point x="145" y="807" type="line"/>
      <point x="149" y="807" type="line"/>
      <point x="242" y="709" type="line"/>
      <point x="265" y="726" type="line"/>
      <point x="172" y="839" type="line"/>
      <point x="128" y="839" type="line"/>
      <point x="-5" y="726" type="line"/>
    </contour>
  </outline>
</glyph>
<glyph name="circumflexcmb" format="1">
  <advance width="0"/>
  <outline>
    <contour>
      <point x="105" y="504" type="move" name="_aboveLC"/>
    </contour>
    <contour>
      <point x="145" y="713" type="move" name="aboveLC"/>
    </contour>
    <contour>
      <point x="0" y="575" type="line"/>
      <point x="31" y="569" type="line"/>
      <point x="131" y="667" type="line"/>
      <point x="135" y="667" type="line"/>
      <point x="197" y="569" type="line"/>
      <point x="226" y="575" type="line"/>
      <point x="157" y="708" type="line"/>
      <point x="123" y="708" type="line"/>
    </contour>
  </outline>
</glyph>
<glyph name="circumflexgrave.cap" format="1">
  <advance width="0"/>
  <outline>
    <contour>
      <point x="69" y="682" type="move" name="_aboveUC"/>
    </contour>
    <contour>
      <point x="-13" y="707" type="line"/>
      <point x="73" y="777" type="line"/>
      <point x="77" y="777" type="line"/>
      <point x="135" y="707" type="line"/>
      <point x="166" y="711" type="line"/>
      <point x="96" y="808" type="line"/>
      <point x="59" y="808" type="line"/>
      <point x="-47" y="711" type="line"/>
    </contour>
    <contour>
      <point x="158" y="767" type="line"/>
      <point x="184" y="772" type="line"/>
      <point x="126" y="875" type="line"/>
      <point x="93" y="869" type="line"/>
    </contour>
  </outline>
</glyph>
<glyph name="circumflexgrave" format="1">
  <outline>
    <contour>
      <point x="11" y="573" type="line"/>
      <point x="132" y="652" type="line"/>
      <point x="136" y="652" type="line"/>
      <point x="222" y="573" type="line"/>
      <point x="243" y="593" type="line"/>
      <point x="154" y="687" type="line"/>
      <point x="116" y="687" type="line"/>
      <point x="-5" y="596" type="line"/>
    </contour>
    <contour>
      <point x="16" y="640" type="line"/>
      <point x="41" y="659" type="line"/>
      <point x="-47" y="773" type="line"/>
      <point x="-81" y="750" type="line"/>
    </contour>
    <contour>
      <point x="105" y="504" type="move" name="_aboveLC"/>
    </contour>
  </outline>
</glyph>
<glyph name="circumflexgrave.cap" format="1">
  <advance width="0"/>
  <outline>
    <contour>
      <point x="136" y="682" type="move" name="_aboveUC"/>
    </contour>
    <contour>
      <point x="33" y="707" type="line"/>
      <point x="143" y="775" type="line"/>
      <point x="147" y="775" type="line"/>
      <point x="225" y="707" type="line"/>
      <point x="247" y="724" type="line"/>
      <point x="168" y="810" type="line"/>
      <point x="128" y="810" type="line"/>
      <point x="16" y="726" type="line"/>
    </contour>
    <contour>
      <point x="55" y="781" type="line"/>
      <point x="77" y="799" type="line"/>
      <point x="-3" y="886" type="line"/>
      <point x="-31" y="863" type="line"/>
    </contour>
  </outline>
</glyph>
<glyph name="circumflexhoi.cap" format="1">
  <outline>
    <contour>
      <point x="33" y="707" type="line"/>
      <point x="143" y="775" type="line"/>
      <point x="147" y="775" type="line"/>
      <point x="225" y="707" type="line"/>
      <point x="247" y="724" type="line"/>
      <point x="168" y="810" type="line"/>
      <point x="128" y="810" type="line"/>
      <point x="16" y="726" type="line"/>
    </contour>
    <contour>
      <point x="239" y="759" type="line"/>
      <point x="278" y="768"/>
      <point x="322" y="786"/>
      <point x="329" y="831" type="curve" smooth="yes"/>
      <point x="339" y="878"/>
      <point x="294" y="896"/>
      <point x="234" y="899" type="curve"/>
      <point x="227" y="870" type="line"/>
      <point x="276" y="868"/>
      <point x="298" y="857"/>
      <point x="293" y="826" type="curve" smooth="yes"/>
      <point x="289" y="803"/>
      <point x="264" y="791"/>
      <point x="234" y="784" type="curve"/>
    </contour>
    <contour>
      <point x="136" y="682" type="move" name="_aboveUC"/>
    </contour>
  </outline>
</glyph>
<glyph name="circumflexhoi" format="1">
  <advance width="0"/>
  <outline>
    <contour>
      <point x="67" y="504" type="move" name="_aboveLC"/>
    </contour>
    <contour>
      <point x="5" y="569" type="line"/>
      <point x="88" y="646" type="line"/>
      <point x="92" y="646" type="line"/>
      <point x="144" y="569" type="line"/>
      <point x="173" y="575" type="line"/>
      <point x="111" y="685" type="line"/>
      <point x="81" y="685" type="line"/>
      <point x="-25" y="575" type="line"/>
    </contour>
    <contour>
      <point x="184" y="629" type="line"/>
      <point x="240" y="643"/>
      <point x="277" y="668"/>
      <point x="278" y="717" type="curve" smooth="yes"/>
      <point x="279" y="750"/>
      <point x="249" y="775"/>
      <point x="186" y="780" type="curve"/>
      <point x="180" y="753" type="line"/>
      <point x="228" y="747"/>
      <point x="244" y="735"/>
      <point x="243" y="710" type="curve" smooth="yes"/>
      <point x="243" y="684"/>
      <point x="224" y="665"/>
      <point x="177" y="652" type="curve"/>
    </contour>
  </outline>
</glyph>
<glyph name="circumflexhoi.cap" format="1">
  <advance width="0"/>
  <outline>
    <contour>
      <point x="136" y="682" type="move" name="_aboveUC"/>
    </contour>
    <contour>
      <point x="33" y="707" type="line"/>
      <point x="143" y="775" type="line"/>
      <point x="147" y="775" type="line"/>
      <point x="225" y="707" type="line"/>
      <point x="247" y="724" type="line"/>
      <point x="168" y="810" type="line"/>
      <point x="128" y="810" type="line"/>
      <point x="16" y="726" type="line"/>
    </contour>
    <contour>
      <point x="239" y="759" type="line"/>
      <point x="278" y="768"/>
      <point x="322" y="786"/>
      <point x="329" y="831" type="curve" smooth="yes"/>
      <point x="339" y="878"/>
      <point x="294" y="896"/>
      <point x="234" y="899" type="curve"/>
      <point x="227" y="870" type="line"/>
      <point x="276" y="868"/>
      <point x="299" y="857"/>
      <point x="293" y="826" type="curve" smooth="yes"/>
      <point x="289" y="803"/>
      <point x="264" y="791"/>
      <point x="234" y="784" type="curve"/>
    </contour>
  </outline>
</glyph>
<glyph name="circumflextilde.cap" format="1">
  <outline>
    <contour>
      <point x="33" y="707" type="line"/>
      <point x="143" y="774" type="line"/>
      <point x="147" y="774" type="line"/>
      <point x="225" y="707" type="line"/>
      <point x="247" y="724" type="line"/>
      <point x="168" y="809" type="line"/>
      <point x="128" y="809" type="line"/>
      <point x="16" y="726" type="line"/>
    </contour>
    <contour>
      <point x="220" y="840" type="curve" smooth="yes"/>
      <point x="275" y="840"/>
      <point x="297" y="883"/>
      <point x="306" y="920" type="curve"/>
      <point x="277" y="923" type="line"/>
      <point x="267" y="892"/>
      <point x="253" y="872"/>
      <point x="226" y="872" type="curve" smooth="yes"/>
      <point x="177" y="872"/>
      <point x="166" y="925"/>
      <point x="98" y="925" type="curve" smooth="yes"/>
      <point x="44" y="925"/>
      <point x="21" y="882"/>
      <point x="14" y="845" type="curve"/>
      <point x="42" y="842" type="line"/>
      <point x="51" y="873"/>
      <point x="65" y="893"/>
      <point x="92" y="893" type="curve" smooth="yes"/>
      <point x="141" y="893"/>
      <point x="152" y="840"/>
    </contour>
    <contour>
      <point x="136" y="682" type="move" name="_aboveUC"/>
    </contour>
  </outline>
</glyph>
<glyph name="circumflextilde" format="1">
  <advance width="0"/>
  <outline>
    <contour>
      <point x="67" y="504" type="move" name="_aboveLC"/>
    </contour>
    <contour>
      <point x="-2" y="569" type="line"/>
      <point x="86" y="632" type="line"/>
      <point x="90" y="632" type="line"/>
      <point x="155" y="569" type="line"/>
      <point x="183" y="575" type="line"/>
      <point x="111" y="668" type="line"/>
      <point x="76" y="668" type="line"/>
      <point x="-34" y="575" type="line"/>
    </contour>
    <contour>
      <point x="-13" y="705" type="curve"/>
      <point x="14" y="704" type="line"/>
      <point x="22" y="730"/>
      <point x="43" y="751"/>
      <point x="59" y="751" type="curve" smooth="yes"/>
      <point x="98" y="751"/>
      <point x="103" y="702"/>
      <point x="157" y="702" type="curve" smooth="yes"/>
      <point x="191" y="702"/>
      <point x="220" y="738"/>
      <point x="231" y="779" type="curve"/>
      <point x="204" y="779" type="line"/>
      <point x="196" y="753"/>
      <point x="175" y="733"/>
      <point x="159" y="733" type="curve" smooth="yes"/>
      <point x="121" y="733"/>
      <point x="116" y="782"/>
      <point x="62" y="782" type="curve" smooth="yes"/>
      <point x="28" y="782"/>
      <point x="-2" y="746"/>
    </contour>
  </outline>
</glyph>
<glyph name="comma" format="1">
  <advance width="213"/>
  <outline>
    <contour>
      <point x="-24" y="-151" type="line"/>
      <point x="53" y="-123"/>
      <point x="111" y="-53"/>
      <point x="111" y="27" type="curve" smooth="yes"/>
      <point x="111" y="56"/>
      <point x="97" y="76"/>
      <point x="72" y="76" type="curve" smooth="yes"/>
      <point x="44" y="76"/>
      <point x="26" y="51"/>
      <point x="26" y="28" type="curve" smooth="yes"/>
      <point x="26" y="7"/>
      <point x="41" y="-7"/>
      <point x="62" y="-7" type="curve" smooth="yes"/>
      <point x="71" y="-7"/>
      <point x="85" y="-4"/>
      <point x="92" y="6" type="curve"/>
      <point x="67" y="56" type="line"/>
      <point x="67" y="-5" type="line"/>
      <point x="60" y="-55"/>
      <point x="22" y="-97"/>
      <point x="-33" y="-121" type="curve"/>
    </contour>
  </outline>
</glyph>
<glyph name="commaabovecmb" format="1">
  <outline>
    <contour>
      <point x="80" y="542" type="line"/>
      <point x="152" y="570"/>
      <point x="179" y="614"/>
      <point x="179" y="664" type="curve" smooth="yes"/>
      <point x="179" y="693"/>
      <point x="164" y="717"/>
      <point x="143" y="717" type="curve" smooth="yes"/>
      <point x="118" y="717"/>
      <point x="100" y="703"/>
      <point x="100" y="676" type="curve" smooth="yes"/>
      <point x="100" y="657"/>
      <point x="115" y="642"/>
      <point x="132" y="642" type="curve" smooth="yes"/>
      <point x="143" y="642"/>
      <point x="155" y="645"/>
      <point x="167" y="658" type="curve"/>
      <point x="137" y="697" type="line"/>
      <point x="145" y="647" type="line"/>
      <point x="137" y="613"/>
      <point x="119" y="586"/>
      <point x="71" y="567" type="curve"/>
    </contour>
    <contour>
      <point x="105" y="504" type="move" name="_aboveLC"/>
    </contour>
  </outline>
</glyph>
<glyph name="commabelowcmb.alt" format="1">
  <outline>
    <contour>
      <point x="150" y="580" type="curve"/>
      <point x="163" y="608" type="line"/>
      <point x="119" y="612"/>
      <point x="97" y="624"/>
      <point x="97" y="652" type="curve" smooth="yes"/>
      <point x="97" y="684"/>
      <point x="137" y="708"/>
      <point x="219" y="710" type="curve"/>
      <point x="217" y="738" type="line"/>
      <point x="123" y="736"/>
      <point x="57" y="703"/>
      <point x="57" y="644" type="curve" smooth="yes"/>
      <point x="57" y="608"/>
      <point x="74" y="590"/>
    </contour>
    <contour>
      <point x="100" y="504" type="move" name="_aboveLC"/>
    </contour>
  </outline>
</glyph>
<glyph name="commabelowcmb" format="1">
  <advance width="0"/>
  <outline>
    <contour>
      <point x="-6" y="-30" type="move" name="_belowLC"/>
    </contour>
    <contour>
      <point x="-109" y="-210" type="line"/>
      <point x="-40" y="-202"/>
      <point x="25" y="-176"/>
      <point x="27" y="-118" type="curve" smooth="yes"/>
      <point x="29" y="-86"/>
      <point x="3" y="-69"/>
      <point x="-35" y="-57" type="curve"/>
      <point x="-51" y="-82" type="line"/>
      <point x="-29" y="-88"/>
      <point x="-8" y="-97"/>
      <point x="-9" y="-122" type="curve" smooth="yes"/>
      <point x="-9" y="-157"/>
      <point x="-53" y="-175"/>
      <point x="-111" y="-185" type="curve"/>
    </contour>
  </outline>
</glyph>
<glyph name="commaturnedabovecmb" format="1">
  <outline>
    <contour>
      <point x="103" y="542" type="curve" smooth="yes"/>
      <point x="128" y="542"/>
      <point x="145" y="556"/>
      <point x="145" y="583" type="curve" smooth="yes"/>
      <point x="145" y="602"/>
      <point x="130" y="617"/>
      <point x="113" y="617" type="curve" smooth="yes"/>
      <point x="103" y="617"/>
      <point x="91" y="614"/>
      <point x="79" y="601" type="curve"/>
      <point x="108" y="562" type="line"/>
      <point x="100" y="612" type="line"/>
      <point x="108" y="646"/>
      <point x="127" y="672"/>
      <point x="174" y="692" type="curve"/>
      <point x="166" y="717" type="line"/>
      <point x="94" y="689"/>
      <point x="66" y="645"/>
      <point x="66" y="595" type="curve" smooth="yes"/>
      <point x="66" y="566"/>
      <point x="81" y="542"/>
    </contour>
    <contour>
      <point x="105" y="504" type="move" name="_aboveLC"/>
    </contour>
  </outline>
</glyph>
<glyph name="copyright" format="1">
  <advance width="661"/>
  <outline>
    <contour>
      <point x="298" y="-12" type="curve" smooth="yes"/>
      <point x="514" y="-12"/>
      <point x="654" y="187"/>
      <point x="654" y="376" type="curve" smooth="yes"/>
      <point x="654" y="540"/>
      <point x="549" y="652"/>
      <point x="395" y="652" type="curve" smooth="yes"/>
      <point x="179" y="652"/>
      <point x="39" y="454"/>
      <point x="39" y="265" type="curve" smooth="yes"/>
      <point x="39" y="101"/>
      <point x="144" y="-12"/>
    </contour>
    <contour>
      <point x="300" y="17" type="curve" smooth="yes"/>
      <point x="159" y="17"/>
      <point x="69" y="117"/>
      <point x="69" y="269" type="curve" smooth="yes"/>
      <point x="69" y="436"/>
      <point x="198" y="624"/>
      <point x="393" y="624" type="curve" smooth="yes"/>
      <point x="534" y="624"/>
      <point x="624" y="524"/>
      <point x="624" y="372" type="curve" smooth="yes"/>
      <point x="624" y="205"/>
      <point x="495" y="17"/>
    </contour>
    <contour>
      <point x="323" y="124" type="curve" smooth="yes"/>
      <point x="380" y="124"/>
      <point x="417" y="147"/>
      <point x="457" y="176" type="curve"/>
      <point x="440" y="203" type="line"/>
      <point x="405" y="179"/>
      <point x="371" y="157"/>
      <point x="327" y="157" type="curve" smooth="yes"/>
      <point x="262" y="157"/>
      <point x="219" y="198"/>
      <point x="219" y="280" type="curve" smooth="yes"/>
      <point x="219" y="395"/>
      <point x="307" y="478"/>
      <point x="380" y="478" type="curve" smooth="yes"/>
      <point x="415" y="478"/>
      <point x="434" y="463"/>
      <point x="454" y="438" type="curve"/>
      <point x="479" y="460" type="line"/>
      <point x="457" y="490"/>
      <point x="431" y="511"/>
      <point x="384" y="511" type="curve" smooth="yes"/>
      <point x="292" y="511"/>
      <point x="183" y="421"/>
      <point x="183" y="273" type="curve" smooth="yes"/>
      <point x="183" y="174"/>
      <point x="241" y="124"/>
    </contour>
  </outline>
</glyph>
<glyph name="d.sups" format="1">
  <advance width="355"/>
  <outline>
    <contour>
      <point x="321" y="683" type="line"/>
      <point x="317" y="683" type="line"/>
      <point x="300" y="717"/>
      <point x="271" y="731"/>
      <point x="239" y="731" type="curve" smooth="yes"/>
      <point x="149" y="731"/>
      <point x="63" y="635"/>
      <point x="63" y="514" type="curve" smooth="yes"/>
      <point x="63" y="438"/>
      <point x="101" y="398"/>
      <point x="157" y="398" type="curve" smooth="yes"/>
      <point x="201" y="398"/>
      <point x="241" y="421"/>
      <point x="275" y="457" type="curve"/>
      <point x="279" y="457" type="line"/>
      <point x="270" y="406" type="line"/>
      <point x="298" y="406" type="line"/>
      <point x="390" y="873" type="line"/>
      <point x="356" y="873" type="line"/>
      <point x="331" y="747" type="line"/>
    </contour>
    <contour>
      <point x="163" y="428" type="curve" smooth="yes"/>
      <point x="126" y="428"/>
      <point x="98" y="457"/>
      <point x="98" y="519" type="curve" smooth="yes"/>
      <point x="98" y="611"/>
      <point x="168" y="701"/>
      <point x="238" y="701" type="curve" smooth="yes"/>
      <point x="264" y="701"/>
      <point x="289" y="687"/>
      <point x="311" y="646" type="curve"/>
      <point x="283" y="499" type="line"/>
      <point x="247" y="458"/>
      <point x="201" y="428"/>
    </contour>
  </outline>
</glyph>
<glyph name="daggerdbl" format="1">
  <advance width="404"/>
  <outline>
    <contour>
      <point x="117" y="-80" type="line"/>
      <point x="157" y="-80" type="line"/>
      <point x="184" y="72" type="line"/>
      <point x="310" y="70" type="line"/>
      <point x="318" y="109" type="line"/>
      <point x="190" y="106" type="line"/>
      <point x="235" y="316" type="line"/>
      <point x="274" y="526" type="line"/>
      <point x="399" y="522" type="line"/>
      <point x="407" y="562" type="line"/>
      <point x="281" y="559" type="line"/>
      <point x="313" y="712" type="line"/>
      <point x="273" y="712" type="line"/>
      <point x="245" y="559" type="line"/>
      <point x="120" y="562" type="line"/>
      <point x="112" y="522" type="line"/>
      <point x="240" y="526" type="line"/>
      <point x="195" y="316" type="line"/>
      <point x="156" y="106" type="line"/>
      <point x="30" y="109" type="line"/>
      <point x="22" y="70" type="line"/>
      <point x="148" y="72" type="line"/>
    </contour>
  </outline>
</glyph>
<glyph name="dblgravecmb.cap" format="1">
  <advance width="0"/>
  <outline>
    <contour>
      <point x="136" y="682" type="move" name="_aboveUC"/>
    </contour>
    <contour>
      <point x="43" y="708" type="line"/>
      <point x="74" y="711" type="line"/>
      <point x="14" y="822" type="line"/>
      <point x="-26" y="817" type="line"/>
    </contour>
    <contour>
      <point x="184" y="708" type="line"/>
      <point x="215" y="711" type="line"/>
      <point x="155" y="822" type="line"/>
      <point x="114" y="817" type="line"/>
    </contour>
  </outline>
</glyph>
<glyph name="dblgravecmb" format="1">
  <advance width="0"/>
  <outline>
    <contour>
      <point x="105" y="504" type="move" name="_aboveLC"/>
    </contour>
    <contour>
      <point x="25" y="569" type="line"/>
      <point x="56" y="573" type="line"/>
      <point x="9" y="714" type="line"/>
      <point x="-32" y="710" type="line"/>
    </contour>
    <contour>
      <point x="154" y="569" type="line"/>
      <point x="185" y="573" type="line"/>
      <point x="138" y="714" type="line"/>
      <point x="97" y="710" type="line"/>
    </contour>
  </outline>
</glyph>
<glyph name="degree" format="1">
  <advance width="292"/>
  <outline>
    <contour>
      <point x="201" y="450" type="curve" smooth="yes"/>
      <point x="267" y="450"/>
      <point x="319" y="511"/>
      <point x="319" y="583" type="curve" smooth="yes"/>
      <point x="319" y="643"/>
      <point x="278" y="684"/>
      <point x="223" y="684" type="curve" smooth="yes"/>
      <point x="157" y="684"/>
      <point x="105" y="623"/>
      <point x="105" y="551" type="curve" smooth="yes"/>
      <point x="105" y="491"/>
      <point x="146" y="450"/>
    </contour>
    <contour>
      <point x="203" y="479" type="curve" smooth="yes"/>
      <point x="162" y="479"/>
      <point x="136" y="512"/>
      <point x="136" y="555" type="curve" smooth="yes"/>
      <point x="136" y="604"/>
      <point x="170" y="655"/>
      <point x="221" y="655" type="curve" smooth="yes"/>
      <point x="262" y="655"/>
      <point x="287" y="622"/>
      <point x="287" y="579" type="curve" smooth="yes"/>
      <point x="287" y="530"/>
      <point x="254" y="479"/>
    </contour>
  </outline>
</glyph>
<glyph name="diamondblack" format="1">
  <advance width="270"/>
  <outline>
    <contour>
      <point x="136" y="141" type="line"/>
      <point x="257" y="264" type="line"/>
      <point x="136" y="387" type="line"/>
      <point x="15" y="264" type="line"/>
    </contour>
  </outline>
</glyph>
<glyph name="dieresisacute.cap" format="1">
  <advance width="0"/>
  <outline>
    <contour>
      <point x="69" y="682" type="move" name="_aboveUC"/>
    </contour>
    <contour>
      <point x="-14" y="723" type="curve" smooth="yes"/>
      <point x="10" y="723"/>
      <point x="26" y="743"/>
      <point x="26" y="765" type="curve" smooth="yes"/>
      <point x="26" y="782"/>
      <point x="13" y="795"/>
      <point x="-3" y="795" type="curve" smooth="yes"/>
      <point x="-25" y="795"/>
      <point x="-43" y="774"/>
      <point x="-43" y="754" type="curve" smooth="yes"/>
      <point x="-43" y="734"/>
      <point x="-30" y="723"/>
    </contour>
    <contour>
      <point x="81" y="826" type="line"/>
      <point x="203" y="930" type="line"/>
      <point x="161" y="938" type="line"/>
      <point x="50" y="831" type="line"/>
    </contour>
    <contour>
      <point x="141" y="723" type="curve" smooth="yes"/>
      <point x="163" y="723"/>
      <point x="180" y="743"/>
      <point x="180" y="765" type="curve" smooth="yes"/>
      <point x="180" y="782"/>
      <point x="167" y="795"/>
      <point x="151" y="795" type="curve" smooth="yes"/>
      <point x="127" y="795"/>
      <point x="112" y="774"/>
      <point x="112" y="754" type="curve" smooth="yes"/>
      <point x="112" y="734"/>
      <point x="123" y="723"/>
    </contour>
  </outline>
</glyph>
<glyph name="dieresisacute" format="1">
	<outline>
		<contour>
			<point x="135" y="704" type="line"/>
			<point x="245" y="793" type="line"/>
			<point x="219" y="820" type="line"/>
			<point x="116" y="724" type="line"/>
		</contour>
		<contour>
			<point x="37" y="598" type="curve" smooth="yes"/>
			<point x="55" y="598"/>
			<point x="73" y="616"/>
			<point x="73" y="639" type="curve" smooth="yes"/>
			<point x="73" y="658"/>
			<point x="62" y="669"/>
			<point x="44" y="669" type="curve" smooth="yes"/>
			<point x="25" y="669"/>
			<point x="8" y="651"/>
			<point x="8" y="627" type="curve" smooth="yes"/>
			<point x="8" y="610"/>
			<point x="19" y="598"/>
		</contour>
		<contour>
			<point x="208" y="598" type="curve" smooth="yes"/>
			<point x="226" y="598"/>
			<point x="244" y="616"/>
			<point x="244" y="639" type="curve" smooth="yes"/>
			<point x="244" y="658"/>
			<point x="233" y="669"/>
			<point x="215" y="669" type="curve" smooth="yes"/>
			<point x="197" y="669"/>
			<point x="179" y="651"/>
			<point x="179" y="627" type="curve" smooth="yes"/>
			<point x="179" y="610"/>
			<point x="190" y="598"/>
		</contour>
		<contour>
			<point name="_aboveLC" x="105" y="504" type="move"/>
		</contour>
	</outline>
</glyph>
<glyph name="dieresisacute.cap" format="1">
  <advance width="0"/>
  <outline>
    <contour>
      <point x="136" y="682" type="move" name="_aboveUC"/>
    </contour>
    <contour>
      <point x="46" y="723" type="curve" smooth="yes"/>
      <point x="64" y="723"/>
      <point x="82" y="741"/>
      <point x="82" y="763" type="curve" smooth="yes"/>
      <point x="82" y="782"/>
      <point x="70" y="794"/>
      <point x="53" y="794" type="curve" smooth="yes"/>
      <point x="34" y="794"/>
      <point x="17" y="775"/>
      <point x="17" y="752" type="curve" smooth="yes"/>
      <point x="17" y="734"/>
      <point x="28" y="723"/>
    </contour>
    <contour>
      <point x="216" y="723" type="curve" smooth="yes"/>
      <point x="235" y="723"/>
      <point x="252" y="741"/>
      <point x="252" y="763" type="curve" smooth="yes"/>
      <point x="252" y="782"/>
      <point x="241" y="794"/>
      <point x="223" y="794" type="curve" smooth="yes"/>
      <point x="205" y="794"/>
      <point x="187" y="775"/>
      <point x="187" y="752" type="curve" smooth="yes"/>
      <point x="187" y="734"/>
      <point x="199" y="723"/>
    </contour>
    <contour>
      <point x="139" y="826" type="line"/>
      <point x="259" y="914" type="line"/>
      <point x="233" y="941" type="line"/>
      <point x="120" y="846" type="line"/>
    </contour>
  </outline>
</glyph>
<glyph name="dieresiscaron.cap" format="1">
  <outline>
    <contour>
      <point x="46" y="723" type="curve" smooth="yes"/>
      <point x="64" y="723"/>
      <point x="82" y="741"/>
      <point x="82" y="763" type="curve" smooth="yes"/>
      <point x="82" y="782"/>
      <point x="70" y="794"/>
      <point x="53" y="794" type="curve" smooth="yes"/>
      <point x="34" y="794"/>
      <point x="17" y="775"/>
      <point x="17" y="752" type="curve" smooth="yes"/>
      <point x="17" y="734"/>
      <point x="28" y="723"/>
    </contour>
    <contour>
      <point x="216" y="723" type="curve" smooth="yes"/>
      <point x="235" y="723"/>
      <point x="252" y="741"/>
      <point x="252" y="763" type="curve" smooth="yes"/>
      <point x="252" y="782"/>
      <point x="241" y="794"/>
      <point x="223" y="794" type="curve" smooth="yes"/>
      <point x="205" y="794"/>
      <point x="187" y="775"/>
      <point x="187" y="752" type="curve" smooth="yes"/>
      <point x="187" y="734"/>
      <point x="199" y="723"/>
    </contour>
    <contour>
      <point x="129" y="829" type="line"/>
      <point x="169" y="829" type="line"/>
      <point x="280" y="914" type="line"/>
      <point x="263" y="932" type="line"/>
      <point x="154" y="864" type="line"/>
      <point x="150" y="864" type="line"/>
      <point x="72" y="932" type="line"/>
      <point x="50" y="915" type="line"/>
    </contour>
    <contour>
      <point x="136" y="682" type="move" name="_aboveUC"/>
    </contour>
  </outline>
</glyph>
<glyph name="dieresiscmb.cap" format="1">
	<outline>
		<contour>
			<point x="45" y="723" type="curve" smooth="yes"/>
			<point x="64" y="723"/>
			<point x="82" y="742"/>
			<point x="82" y="764" type="curve" smooth="yes"/>
			<point x="82" y="784"/>
			<point x="70" y="795"/>
			<point x="52" y="795" type="curve" smooth="yes"/>
			<point x="33" y="795"/>
			<point x="15" y="777"/>
			<point x="15" y="753" type="curve" smooth="yes"/>
			<point x="15" y="734"/>
			<point x="27" y="723"/>
		</contour>
		<contour>
			<point x="216" y="723" type="curve" smooth="yes"/>
			<point x="235" y="723"/>
			<point x="253" y="742"/>
			<point x="253" y="764" type="curve" smooth="yes"/>
			<point x="253" y="784"/>
			<point x="241" y="795"/>
			<point x="223" y="795" type="curve" smooth="yes"/>
			<point x="204" y="795"/>
			<point x="186" y="777"/>
			<point x="186" y="753" type="curve" smooth="yes"/>
			<point x="186" y="734"/>
			<point x="198" y="723"/>
		</contour>
		<contour>
			<point name="_aboveUC" x="136" y="682" type="move"/>
		</contour>
	</outline>
</glyph>
<glyph name="dieresiscmb" format="1">
  <advance width="0"/>
  <outline>
    <contour>
      <point x="105" y="504" type="move" name="_aboveLC"/>
    </contour>
    <contour>
      <point x="137" y="685" type="move" name="aboveLC"/>
    </contour>
    <contour>
      <point x="46" y="598" type="curve" smooth="yes"/>
      <point x="65" y="598"/>
      <point x="83" y="616"/>
      <point x="83" y="639" type="curve" smooth="yes"/>
      <point x="83" y="659"/>
      <point x="71" y="671"/>
      <point x="53" y="671" type="curve" smooth="yes"/>
      <point x="34" y="671"/>
      <point x="16" y="653"/>
      <point x="16" y="628" type="curve" smooth="yes"/>
      <point x="16" y="610"/>
      <point x="28" y="598"/>
    </contour>
    <contour>
      <point x="199" y="598" type="curve" smooth="yes"/>
      <point x="218" y="598"/>
      <point x="236" y="616"/>
      <point x="236" y="639" type="curve" smooth="yes"/>
      <point x="236" y="659"/>
      <point x="224" y="671"/>
      <point x="206" y="671" type="curve" smooth="yes"/>
      <point x="187" y="671"/>
      <point x="169" y="653"/>
      <point x="169" y="628" type="curve" smooth="yes"/>
      <point x="169" y="610"/>
      <point x="181" y="598"/>
    </contour>
  </outline>
</glyph>
<glyph name="dieresisgrave" format="1">
  <outline>
    <contour>
      <point x="37" y="598" type="curve" smooth="yes"/>
      <point x="55" y="598"/>
      <point x="73" y="616"/>
      <point x="73" y="639" type="curve" smooth="yes"/>
      <point x="73" y="658"/>
      <point x="62" y="669"/>
      <point x="44" y="669" type="curve" smooth="yes"/>
      <point x="25" y="669"/>
      <point x="8" y="651"/>
      <point x="8" y="627" type="curve" smooth="yes"/>
      <point x="8" y="610"/>
      <point x="19" y="598"/>
    </contour>
    <contour>
      <point x="208" y="598" type="curve" smooth="yes"/>
      <point x="226" y="598"/>
      <point x="244" y="616"/>
      <point x="244" y="639" type="curve" smooth="yes"/>
      <point x="244" y="658"/>
      <point x="233" y="669"/>
      <point x="215" y="669" type="curve" smooth="yes"/>
      <point x="197" y="669"/>
      <point x="179" y="651"/>
      <point x="179" y="627" type="curve" smooth="yes"/>
      <point x="179" y="610"/>
      <point x="190" y="598"/>
    </contour>
    <contour>
      <point x="146" y="697" type="line"/>
      <point x="170" y="712" type="line"/>
      <point x="100" y="824" type="line"/>
      <point x="70" y="803" type="line"/>
    </contour>
    <contour>
      <point x="105" y="504" type="move" name="_aboveLC"/>
    </contour>
  </outline>
</glyph>
<glyph name="dieresismacron.cap" format="1">
  <advance width="0"/>
  <outline>
    <contour>
      <point x="136" y="682" type="move" name="_aboveUC"/>
    </contour>
    <contour>
      <point x="58" y="723" type="curve" smooth="yes"/>
      <point x="80" y="723"/>
      <point x="96" y="743"/>
      <point x="96" y="765" type="curve" smooth="yes"/>
      <point x="96" y="782"/>
      <point x="85" y="795"/>
      <point x="67" y="795" type="curve" smooth="yes"/>
      <point x="45" y="795"/>
      <point x="29" y="774"/>
      <point x="29" y="754" type="curve" smooth="yes"/>
      <point x="29" y="734"/>
      <point x="41" y="723"/>
    </contour>
    <contour>
      <point x="46" y="854" type="line"/>
      <point x="265" y="854" type="line"/>
      <point x="272" y="885" type="line"/>
      <point x="53" y="885" type="line"/>
    </contour>
    <contour>
      <point x="211" y="723" type="curve" smooth="yes"/>
      <point x="233" y="723"/>
      <point x="251" y="743"/>
      <point x="251" y="765" type="curve" smooth="yes"/>
      <point x="251" y="782"/>
      <point x="237" y="795"/>
      <point x="222" y="795" type="curve" smooth="yes"/>
      <point x="199" y="795"/>
      <point x="182" y="774"/>
      <point x="182" y="754" type="curve" smooth="yes"/>
      <point x="182" y="734"/>
      <point x="195" y="723"/>
    </contour>
  </outline>
</glyph>
<glyph name="dieresismacron" format="1">
  <advance width="0"/>
  <outline>
    <contour>
      <point x="62" y="504" type="move" name="_aboveLC"/>
    </contour>
    <contour>
      <point x="3" y="598" type="curve" smooth="yes"/>
      <point x="22" y="598"/>
      <point x="39" y="616"/>
      <point x="39" y="639" type="curve" smooth="yes"/>
      <point x="39" y="658"/>
      <point x="28" y="669"/>
      <point x="10" y="669" type="curve" smooth="yes"/>
      <point x="-8" y="669"/>
      <point x="-26" y="651"/>
      <point x="-26" y="627" type="curve" smooth="yes"/>
      <point x="-26" y="610"/>
      <point x="-15" y="598"/>
    </contour>
    <contour>
      <point x="-3" y="745" type="line"/>
      <point x="216" y="745" type="line"/>
      <point x="223" y="776" type="line"/>
      <point x="4" y="776" type="line"/>
    </contour>
    <contour>
      <point x="156" y="598" type="curve" smooth="yes"/>
      <point x="175" y="598"/>
      <point x="192" y="616"/>
      <point x="192" y="639" type="curve" smooth="yes"/>
      <point x="192" y="658"/>
      <point x="181" y="669"/>
      <point x="164" y="669" type="curve" smooth="yes"/>
      <point x="145" y="669"/>
      <point x="127" y="651"/>
      <point x="127" y="627" type="curve" smooth="yes"/>
      <point x="127" y="610"/>
      <point x="139" y="598"/>
    </contour>
  </outline>
</glyph>
<glyph name="dong" format="1">
  <advance width="462"/>
  <outline>
    <contour>
      <point x="190" y="107" type="curve" smooth="yes"/>
      <point x="237" y="107"/>
      <point x="286" y="134"/>
      <point x="323" y="166" type="curve"/>
      <point x="325" y="166" type="line"/>
      <point x="318" y="117" type="line"/>
      <point x="351" y="117" type="line"/>
      <point x="464" y="676" type="line"/>
      <point x="426" y="676" type="line"/>
      <point x="392" y="514" type="line"/>
      <point x="375" y="419" type="line"/>
      <point x="355" y="449"/>
      <point x="331" y="473"/>
      <point x="284" y="473" type="curve" smooth="yes"/>
      <point x="182" y="473"/>
      <point x="77" y="373"/>
      <point x="77" y="236" type="curve" smooth="yes"/>
      <point x="77" y="161"/>
      <point x="119" y="107"/>
    </contour>
    <contour>
      <point x="197" y="141" type="curve" smooth="yes"/>
      <point x="142" y="141"/>
      <point x="116" y="182"/>
      <point x="116" y="244" type="curve" smooth="yes"/>
      <point x="116" y="353"/>
      <point x="203" y="441"/>
      <point x="283" y="441" type="curve" smooth="yes"/>
      <point x="316" y="441"/>
      <point x="346" y="422"/>
      <point x="366" y="383" type="curve"/>
      <point x="331" y="205" type="line"/>
      <point x="282" y="163"/>
      <point x="241" y="141"/>
    </contour>
    <contour>
      <point x="271" y="564" type="line"/>
      <point x="440" y="564" type="line"/>
      <point x="519" y="568" type="line"/>
      <point x="526" y="595" type="line"/>
      <point x="278" y="595" type="line"/>
    </contour>
    <contour>
      <point x="35" y="0" type="line"/>
      <point x="357" y="0" type="line"/>
      <point x="364" y="31" type="line"/>
      <point x="42" y="31" type="line"/>
    </contour>
  </outline>
</glyph>
<glyph name="dotaccentcmb.cap" format="1">
  <outline>
    <contour>
      <point x="130" y="723" type="curve" smooth="yes"/>
      <point x="152" y="723"/>
      <point x="172" y="741"/>
      <point x="172" y="766" type="curve" smooth="yes"/>
      <point x="172" y="787"/>
      <point x="157" y="801"/>
      <point x="138" y="801" type="curve" smooth="yes"/>
      <point x="117" y="801"/>
      <point x="96" y="782"/>
      <point x="96" y="756" type="curve" smooth="yes"/>
      <point x="96" y="736"/>
      <point x="111" y="723"/>
    </contour>
    <contour>
      <point x="136" y="682" type="move" name="_aboveUC"/>
    </contour>
  </outline>
</glyph>
<glyph name="dotaccentcmb" format="1">
  <advance width="0"/>
  <outline>
    <contour>
      <point x="105" y="504" type="move" name="_aboveLC"/>
    </contour>
    <contour>
      <point x="137" y="685" type="move" name="aboveLC"/>
    </contour>
    <contour>
      <point x="120" y="596" type="curve" smooth="yes"/>
      <point x="142" y="596"/>
      <point x="162" y="615"/>
      <point x="162" y="640" type="curve" smooth="yes"/>
      <point x="162" y="661"/>
      <point x="147" y="674"/>
      <point x="128" y="674" type="curve" smooth="yes"/>
      <point x="107" y="674"/>
      <point x="86" y="655"/>
      <point x="86" y="629" type="curve" smooth="yes"/>
      <point x="86" y="610"/>
      <point x="101" y="596"/>
    </contour>
  </outline>
</glyph>
<glyph name="dotaccentcmb.cap" format="1">
  <advance width="0"/>
  <outline>
    <contour>
      <point x="136" y="682" type="move" name="_aboveUC"/>
    </contour>
    <contour>
      <point x="130" y="723" type="curve" smooth="yes"/>
      <point x="152" y="723"/>
      <point x="172" y="741"/>
      <point x="172" y="766" type="curve" smooth="yes"/>
      <point x="172" y="787"/>
      <point x="157" y="801"/>
      <point x="138" y="801" type="curve" smooth="yes"/>
      <point x="117" y="801"/>
      <point x="96" y="782"/>
      <point x="96" y="756" type="curve" smooth="yes"/>
      <point x="96" y="736"/>
      <point x="111" y="723"/>
    </contour>
  </outline>
</glyph>
<glyph name="dotbelowcmb" format="1">
  <outline>
    <component base="dotaccentcmb" xOffset="-157" yOffset="-800"/>
    <contour>
      <point x="-6" y="-30" type="move" name="_belowLC"/>
    </contour>
  </outline>
</glyph>
<glyph name="dotlessi" format="1">
  <advance width="220"/>
  <outline>
    <contour>
      <point x="40" y="0" type="line"/>
      <point x="82" y="0" type="line"/>
      <point x="178" y="480" type="line"/>
      <point x="137" y="480" type="line"/>
    </contour>
    <contour>
      <point x="60" y="0" type="move" name="ogonekLC"/>
    </contour>
    <contour>
      <point x="169" y="504" type="move" name="aboveLC"/>
    </contour>
    <contour>
      <point x="69" y="-22" type="move" name="belowLC"/>
    </contour>
  </outline>
</glyph>
<glyph name="e.sups" format="1">
  <advance width="318"/>
  <outline>
    <contour>
      <point x="63" y="394" type="curve" smooth="yes"/>
      <point x="63" y="308"/>
      <point x="110" y="261"/>
      <point x="185" y="261" type="curve" smooth="yes"/>
      <point x="226" y="261"/>
      <point x="261" y="278"/>
      <point x="287" y="293" type="curve"/>
      <point x="273" y="320" type="line"/>
      <point x="251" y="306"/>
      <point x="224" y="291"/>
      <point x="190" y="291" type="curve" smooth="yes"/>
      <point x="121" y="291"/>
      <point x="88" y="343"/>
      <point x="100" y="423" type="curve"/>
      <point x="321" y="423" type="line"/>
      <point x="327" y="438"/>
      <point x="332" y="458"/>
      <point x="332" y="481" type="curve" smooth="yes"/>
      <point x="332" y="537"/>
      <point x="309" y="595"/>
      <point x="231" y="595" type="curve" smooth="yes"/>
      <point x="148" y="595"/>
      <point x="63" y="513"/>
    </contour>
    <contour>
      <point x="106" y="451" type="line"/>
      <point x="122" y="518"/>
      <point x="179" y="565"/>
      <point x="228" y="565" type="curve" smooth="yes"/>
      <point x="279" y="565"/>
      <point x="300" y="525"/>
      <point x="300" y="483" type="curve" smooth="yes"/>
      <point x="300" y="474"/>
      <point x="300" y="464"/>
      <point x="296" y="451" type="curve"/>
    </contour>
  </outline>
</glyph>
<glyph name="eacute.sups" format="1">
  <advance width="318"/>
  <outline>
    <contour>
      <point x="208" y="803" type="line"/>
      <point x="225" y="784" type="line"/>
      <point x="340" y="876" type="line"/>
      <point x="317" y="902" type="line"/>
    </contour>
    <component base="e.sups"/>
  </outline>
</glyph>
<glyph name="egrave.sups" format="1">
  <advance width="318"/>
  <outline>
    <contour>
      <point x="244" y="645" type="line"/>
      <point x="272" y="645" type="line"/>
      <point x="232" y="736" type="line"/>
      <point x="195" y="736" type="line"/>
    </contour>
    <component base="e.sups" xOffset="2" yOffset="9"/>
  </outline>
</glyph>
<glyph name="eight" format="1">
  <advance width="462"/>
  <outline>
    <contour>
      <point x="215" y="-12" type="curve" smooth="yes"/>
      <point x="324" y="-12"/>
      <point x="418" y="58"/>
      <point x="418" y="173" type="curve" smooth="yes"/>
      <point x="418" y="242"/>
      <point x="361" y="292"/>
      <point x="328" y="315" type="curve"/>
      <point x="328" y="319" type="line"/>
      <point x="401" y="362"/>
      <point x="456" y="416"/>
      <point x="456" y="505" type="curve" smooth="yes"/>
      <point x="456" y="602"/>
      <point x="385" y="651"/>
      <point x="307" y="651" type="curve" smooth="yes"/>
      <point x="214" y="651"/>
      <point x="132" y="589"/>
      <point x="132" y="483" type="curve" smooth="yes"/>
      <point x="132" y="430"/>
      <point x="152" y="395"/>
      <point x="190" y="359" type="curve"/>
      <point x="190" y="355" type="line"/>
      <point x="110" y="318"/>
      <point x="34" y="256"/>
      <point x="34" y="154" type="curve" smooth="yes"/>
      <point x="34" y="43"/>
      <point x="123" y="-12"/>
    </contour>
    <contour>
      <point x="299" y="334" type="curve"/>
      <point x="221" y="371"/>
      <point x="171" y="408"/>
      <point x="171" y="486" type="curve" smooth="yes"/>
      <point x="171" y="568"/>
      <point x="235" y="617"/>
      <point x="304" y="617" type="curve" smooth="yes"/>
      <point x="364" y="617"/>
      <point x="417" y="576"/>
      <point x="417" y="501" type="curve" smooth="yes"/>
      <point x="417" y="424"/>
      <point x="359" y="369"/>
    </contour>
    <contour>
      <point x="216" y="22" type="curve" smooth="yes"/>
      <point x="143" y="22"/>
      <point x="74" y="69"/>
      <point x="74" y="158" type="curve" smooth="yes"/>
      <point x="74" y="243"/>
      <point x="132" y="294"/>
      <point x="214" y="338" type="curve"/>
      <point x="298" y="293"/>
      <point x="378" y="254"/>
      <point x="378" y="167" type="curve" smooth="yes"/>
      <point x="378" y="75"/>
      <point x="297" y="22"/>
    </contour>
  </outline>
</glyph>
<glyph name="eighthnote" format="1">
  <advance width="458"/>
  <outline>
    <contour>
      <point x="133" y="-21" type="curve" smooth="yes"/>
      <point x="206" y="-21"/>
      <point x="284" y="26"/>
      <point x="284" y="124" type="curve" smooth="yes"/>
      <point x="284" y="560" type="line"/>
      <point x="364" y="535"/>
      <point x="415" y="473"/>
      <point x="415" y="399" type="curve" smooth="yes"/>
      <point x="415" y="368"/>
      <point x="413" y="346"/>
      <point x="403" y="312" type="curve"/>
      <point x="424" y="305" type="line"/>
      <point x="435" y="335"/>
      <point x="447" y="377"/>
      <point x="447" y="419" type="curve" smooth="yes"/>
      <point x="447" y="501"/>
      <point x="424" y="553"/>
      <point x="339" y="617" type="curve" smooth="yes"/>
      <point x="291" y="657"/>
      <point x="283" y="666"/>
      <point x="277" y="694" type="curve"/>
      <point x="248" y="694" type="line"/>
      <point x="248" y="144" type="line"/>
      <point x="239" y="148"/>
      <point x="211" y="156"/>
      <point x="187" y="156" type="curve" smooth="yes"/>
      <point x="99" y="156"/>
      <point x="43" y="103"/>
      <point x="43" y="47" type="curve" smooth="yes"/>
      <point x="43" y="5"/>
      <point x="83" y="-21"/>
    </contour>
  </outline>
</glyph>
<glyph name="emdash" format="1">
  <advance width="768"/>
  <outline>
    <contour>
      <point x="36" y="234" type="line"/>
      <point x="725" y="234" type="line"/>
      <point x="733" y="268" type="line"/>
      <point x="43" y="268" type="line"/>
    </contour>
  </outline>
</glyph>
<glyph name="eogonek" format="1">
  <advance width="471"/>
  <outline>
    <contour>
      <point x="297" y="504" type="move" name="aboveLC"/>
    </contour>
    <contour>
      <point x="184" y="-140" type="curve" smooth="yes"/>
      <point x="184" y="-182"/>
      <point x="213" y="-203"/>
      <point x="252" y="-203" type="curve" smooth="yes"/>
      <point x="270" y="-203"/>
      <point x="293" y="-196"/>
      <point x="312" y="-185" type="curve"/>
      <point x="301" y="-158" type="line"/>
      <point x="287" y="-166"/>
      <point x="275" y="-170"/>
      <point x="260" y="-170" type="curve" smooth="yes"/>
      <point x="238" y="-170"/>
      <point x="222" y="-155"/>
      <point x="222" y="-130" type="curve" smooth="yes"/>
      <point x="222" y="-85"/>
      <point x="262" y="-30"/>
      <point x="370" y="40" type="curve"/>
      <point x="351" y="70" type="line"/>
      <point x="317" y="45"/>
      <point x="274" y="23"/>
      <point x="231" y="23" type="curve" smooth="yes"/>
      <point x="136" y="23"/>
      <point x="62" y="87"/>
      <point x="88" y="238" type="curve"/>
      <point x="423" y="238" type="line"/>
      <point x="429" y="257"/>
      <point x="436" y="288"/>
      <point x="436" y="322" type="curve" smooth="yes"/>
      <point x="436" y="421"/>
      <point x="396" y="492"/>
      <point x="292" y="492" type="curve" smooth="yes"/>
      <point x="169" y="492"/>
      <point x="42" y="368"/>
      <point x="42" y="186" type="curve" smooth="yes"/>
      <point x="42" y="57"/>
      <point x="114" y="-12"/>
      <point x="225" y="-12" type="curve" smooth="yes"/>
      <point x="236" y="-12"/>
      <point x="253" y="-10"/>
      <point x="267" y="-7" type="curve"/>
      <point x="232" y="-35"/>
      <point x="184" y="-86"/>
    </contour>
    <contour>
      <point x="94" y="271" type="line"/>
      <point x="120" y="380"/>
      <point x="203" y="457"/>
      <point x="288" y="457" type="curve" smooth="yes"/>
      <point x="370" y="457"/>
      <point x="398" y="393"/>
      <point x="398" y="328" type="curve" smooth="yes"/>
      <point x="398" y="307"/>
      <point x="396" y="290"/>
      <point x="392" y="271" type="curve"/>
    </contour>
  </outline>
</glyph>
<glyph name="f" format="1">
  <advance width="256"/>
  <outline>
    <contour>
      <point x="310" y="740" type="move" name="aboveLC"/>
    </contour>
    <contour>
      <point x="75" y="-22" type="move" name="belowLC"/>
    </contour>
    <contour>
      <point x="73" y="444" type="line"/>
      <point x="135" y="444" type="line"/>
      <point x="47" y="0" type="line"/>
      <point x="88" y="0" type="line"/>
      <point x="176" y="444" type="line"/>
      <point x="282" y="444" type="line"/>
      <point x="290" y="480" type="line"/>
      <point x="184" y="480" type="line"/>
      <point x="206" y="590" type="line" smooth="yes"/>
      <point x="218" y="648"/>
      <point x="249" y="695"/>
      <point x="297" y="695" type="curve" smooth="yes"/>
      <point x="322" y="695"/>
      <point x="339" y="687"/>
      <point x="354" y="678" type="curve"/>
      <point x="372" y="709" type="line"/>
      <point x="352" y="721"/>
      <point x="330" y="731"/>
      <point x="297" y="731" type="curve" smooth="yes"/>
      <point x="234" y="731"/>
      <point x="185" y="685"/>
      <point x="165" y="590" type="curve" smooth="yes"/>
      <point x="143" y="480" type="line"/>
      <point x="79" y="476" type="line"/>
    </contour>
  </outline>
</glyph>
<glyph name="f.sups" format="1">
  <advance width="178"/>
  <outline>
    <contour>
      <point x="65" y="269" type="line"/>
      <point x="100" y="269" type="line"/>
      <point x="177" y="656" type="line" smooth="yes"/>
      <point x="185" y="694"/>
      <point x="207" y="720"/>
      <point x="237" y="720" type="curve" smooth="yes"/>
      <point x="254" y="720"/>
      <point x="266" y="714"/>
      <point x="276" y="708" type="curve"/>
      <point x="290" y="736" type="line"/>
      <point x="271" y="746"/>
      <point x="256" y="750"/>
      <point x="237" y="750" type="curve" smooth="yes"/>
      <point x="191" y="750"/>
      <point x="154" y="717"/>
      <point x="142" y="653" type="curve" smooth="yes"/>
    </contour>
    <contour>
      <point x="80" y="556" type="line"/>
      <point x="231" y="556" type="line"/>
      <point x="236" y="587" type="line"/>
      <point x="130" y="587" type="line"/>
      <point x="85" y="584" type="line"/>
    </contour>
  </outline>
</glyph>
<glyph name="f_f" format="1">
  <advance width="508"/>
  <outline>
    <contour>
      <point x="47" y="0" type="line"/>
      <point x="88" y="0" type="line"/>
      <point x="204" y="580" type="line" smooth="yes"/>
      <point x="217" y="638"/>
      <point x="251" y="685"/>
      <point x="304" y="685" type="curve" smooth="yes"/>
      <point x="335" y="685"/>
      <point x="352" y="677"/>
      <point x="370" y="668" type="curve"/>
      <point x="388" y="701" type="line"/>
      <point x="364" y="711"/>
      <point x="342" y="721"/>
      <point x="304" y="721" type="curve" smooth="yes"/>
      <point x="237" y="721"/>
      <point x="185" y="675"/>
      <point x="163" y="580" type="curve" smooth="yes"/>
    </contour>
    <contour>
      <point x="299" y="0" type="line"/>
      <point x="340" y="0" type="line"/>
      <point x="459" y="590" type="line" smooth="yes"/>
      <point x="471" y="648"/>
      <point x="501" y="695"/>
      <point x="550" y="695" type="curve" smooth="yes"/>
      <point x="575" y="695"/>
      <point x="591" y="687"/>
      <point x="607" y="678" type="curve"/>
      <point x="624" y="711" type="line"/>
      <point x="603" y="721"/>
      <point x="583" y="731"/>
      <point x="550" y="731" type="curve" smooth="yes"/>
      <point x="487" y="731"/>
      <point x="438" y="685"/>
      <point x="418" y="590" type="curve" smooth="yes"/>
    </contour>
    <contour>
      <point x="73" y="444" type="line"/>
      <point x="534" y="444" type="line"/>
      <point x="542" y="480" type="line"/>
      <point x="145" y="480" type="line"/>
      <point x="79" y="476" type="line"/>
    </contour>
  </outline>
</glyph>
<glyph name="f_t" format="1">
	<advance width="509"/>
	<outline>
		<contour>
			<point x="47" y="0" type="line"/>
			<point x="88" y="0" type="line"/>
			<point x="206" y="590" type="line" smooth="yes"/>
			<point x="218" y="648"/>
			<point x="249" y="695"/>
			<point x="297" y="695" type="curve" smooth="yes"/>
			<point x="322" y="695"/>
			<point x="339" y="687"/>
			<point x="354" y="678" type="curve"/>
			<point x="372" y="711" type="line"/>
			<point x="350" y="721"/>
			<point x="330" y="731"/>
			<point x="297" y="731" type="curve" smooth="yes"/>
			<point x="234" y="731"/>
			<point x="185" y="685"/>
			<point x="165" y="590" type="curve" smooth="yes"/>
		</contour>
		<contour>
			<point x="384" y="-12" type="curve" smooth="yes"/>
			<point x="415" y="-12"/>
			<point x="442" y="0"/>
			<point x="461" y="10" type="curve"/>
			<point x="450" y="41" type="line"/>
			<point x="434" y="33"/>
			<point x="415" y="24"/>
			<point x="392" y="24" type="curve" smooth="yes"/>
			<point x="340" y="24"/>
			<point x="324" y="47"/>
			<point x="324" y="91" type="curve" smooth="yes"/>
			<point x="324" y="105"/>
			<point x="326" y="117"/>
			<point x="328" y="129" type="curve" smooth="yes"/>
			<point x="393" y="444" type="line"/>
			<point x="523" y="444" type="line"/>
			<point x="531" y="480" type="line"/>
			<point x="401" y="480" type="line"/>
			<point x="429" y="617" type="line"/>
			<point x="394" y="617" type="line"/>
			<point x="361" y="480" type="line"/>
			<point x="145" y="480" type="line"/>
			<point x="79" y="476" type="line"/>
			<point x="73" y="444" type="line"/>
			<point x="352" y="444" type="line"/>
			<point x="287" y="131" type="line" smooth="yes"/>
			<point x="284" y="114"/>
			<point x="283" y="101"/>
			<point x="283" y="83" type="curve" smooth="yes"/>
			<point x="283" y="32"/>
			<point x="309" y="-12"/>
		</contour>
	</outline>
</glyph>
<glyph name="figuredash" format="1">
  <advance width="462"/>
  <outline>
    <contour>
      <point x="36" y="234" type="line"/>
      <point x="417" y="234" type="line"/>
      <point x="427" y="268" type="line"/>
      <point x="43" y="268" type="line"/>
    </contour>
  </outline>
</glyph>
<glyph name="fisheye" format="1">
  <advance width="400"/>
  <outline>
    <contour>
      <point x="200" y="92" type="curve" smooth="yes"/>
      <point x="284" y="92"/>
      <point x="361" y="156"/>
      <point x="361" y="264" type="curve" smooth="yes"/>
      <point x="361" y="371"/>
      <point x="284" y="436"/>
      <point x="200" y="436" type="curve" smooth="yes"/>
      <point x="117" y="436"/>
      <point x="40" y="371"/>
      <point x="40" y="264" type="curve" smooth="yes"/>
      <point x="40" y="156"/>
      <point x="117" y="92"/>
    </contour>
    <contour>
      <point x="200" y="125" type="curve" smooth="yes"/>
      <point x="138" y="125"/>
      <point x="75" y="173"/>
      <point x="75" y="264" type="curve" smooth="yes"/>
      <point x="75" y="354"/>
      <point x="138" y="403"/>
      <point x="200" y="403" type="curve" smooth="yes"/>
      <point x="263" y="403"/>
      <point x="325" y="354"/>
      <point x="325" y="264" type="curve" smooth="yes"/>
      <point x="325" y="173"/>
      <point x="263" y="125"/>
    </contour>
    <contour>
      <point x="200" y="210" type="curve" smooth="yes"/>
      <point x="225" y="210"/>
      <point x="250" y="231"/>
      <point x="250" y="264" type="curve" smooth="yes"/>
      <point x="250" y="297"/>
      <point x="225" y="318"/>
      <point x="200" y="318" type="curve" smooth="yes"/>
      <point x="175" y="318"/>
      <point x="150" y="297"/>
      <point x="150" y="264" type="curve" smooth="yes"/>
      <point x="150" y="231"/>
      <point x="175" y="210"/>
    </contour>
  </outline>
</glyph>
<glyph name="five.dnom" format="1">
  <advance width="346"/>
  <outline>
    <contour>
      <point x="131" y="-12" type="curve" smooth="yes"/>
      <point x="207" y="-12"/>
      <point x="277" y="47"/>
      <point x="277" y="140" type="curve" smooth="yes"/>
      <point x="277" y="210"/>
      <point x="231" y="254"/>
      <point x="166" y="254" type="curve" smooth="yes"/>
      <point x="145" y="254"/>
      <point x="121" y="248"/>
      <point x="101" y="235" type="curve"/>
      <point x="137" y="359" type="line"/>
      <point x="301" y="359" type="line"/>
      <point x="308" y="390" type="line"/>
      <point x="112" y="390" type="line"/>
      <point x="60" y="207" type="line"/>
      <point x="76" y="190" type="line"/>
      <point x="103" y="211"/>
      <point x="122" y="224"/>
      <point x="159" y="224" type="curve" smooth="yes"/>
      <point x="208" y="224"/>
      <point x="241" y="190"/>
      <point x="241" y="134" type="curve" smooth="yes"/>
      <point x="241" y="64"/>
      <point x="186" y="19"/>
      <point x="138" y="19" type="curve" smooth="yes"/>
      <point x="78" y="19"/>
      <point x="48" y="49"/>
      <point x="29" y="86" type="curve"/>
      <point x="1" y="68" type="line"/>
      <point x="22" y="27"/>
      <point x="67" y="-12"/>
    </contour>
  </outline>
</glyph>
<glyph name="five" format="1">
  <advance width="462"/>
  <outline>
    <contour>
      <point x="174" y="-12" type="curve" smooth="yes"/>
      <point x="297" y="-12"/>
      <point x="405" y="84"/>
      <point x="405" y="233" type="curve" smooth="yes"/>
      <point x="405" y="345"/>
      <point x="335" y="401"/>
      <point x="239" y="401" type="curve" smooth="yes"/>
      <point x="199" y="401"/>
      <point x="167" y="390"/>
      <point x="142" y="377" type="curve"/>
      <point x="204" y="603" type="line"/>
      <point x="442" y="603" type="line"/>
      <point x="450" y="639" type="line"/>
      <point x="175" y="639" type="line"/>
      <point x="95" y="348" type="line"/>
      <point x="117" y="331" type="line"/>
      <point x="157" y="353"/>
      <point x="186" y="366"/>
      <point x="232" y="366" type="curve" smooth="yes"/>
      <point x="311" y="366"/>
      <point x="364" y="320"/>
      <point x="364" y="225" type="curve" smooth="yes"/>
      <point x="364" y="105"/>
      <point x="276" y="24"/>
      <point x="179" y="24" type="curve" smooth="yes"/>
      <point x="92" y="24"/>
      <point x="54" y="73"/>
      <point x="27" y="116" type="curve"/>
      <point x="-3" y="93" type="line"/>
      <point x="27" y="43"/>
      <point x="82" y="-12"/>
    </contour>
  </outline>
</glyph>
<glyph name="five.tnum" format="1">
  <advance width="462"/>
  <outline>
    <contour>
      <point x="159" y="-85" type="curve" smooth="yes"/>
      <point x="282" y="-85"/>
      <point x="391" y="10"/>
      <point x="391" y="159" type="curve" smooth="yes"/>
      <point x="391" y="271"/>
      <point x="320" y="331"/>
      <point x="224" y="331" type="curve" smooth="yes"/>
      <point x="185" y="331"/>
      <point x="152" y="320"/>
      <point x="127" y="307" type="curve"/>
      <point x="190" y="534" type="line"/>
      <point x="428" y="534" type="line"/>
      <point x="436" y="571" type="line"/>
      <point x="161" y="571" type="line"/>
      <point x="80" y="278" type="line"/>
      <point x="102" y="261" type="line"/>
      <point x="143" y="283"/>
      <point x="171" y="296"/>
      <point x="217" y="296" type="curve" smooth="yes"/>
      <point x="296" y="296"/>
      <point x="349" y="246"/>
      <point x="349" y="151" type="curve" smooth="yes"/>
      <point x="349" y="31"/>
      <point x="262" y="-48"/>
      <point x="165" y="-48" type="curve" smooth="yes"/>
      <point x="78" y="-48"/>
      <point x="39" y="1"/>
      <point x="13" y="43" type="curve"/>
      <point x="-17" y="21" type="line"/>
      <point x="12" y="-29"/>
      <point x="67" y="-85"/>
    </contour>
  </outline>
</glyph>
<glyph name="four" format="1">
  <advance width="462"/>
  <outline>
    <contour>
      <point x="287" y="0" type="line"/>
      <point x="325" y="189" type="line"/>
      <point x="414" y="189" type="line"/>
      <point x="421" y="225" type="line"/>
      <point x="332" y="225" type="line"/>
      <point x="415" y="639" type="line"/>
      <point x="377" y="639" type="line"/>
      <point x="12" y="215" type="line"/>
      <point x="8" y="189" type="line"/>
      <point x="285" y="189" type="line"/>
      <point x="247" y="0" type="line"/>
    </contour>
    <contour>
      <point x="67" y="225" type="line"/>
      <point x="284" y="479" type="line" smooth="yes"/>
      <point x="308" y="508"/>
      <point x="336" y="541"/>
      <point x="363" y="577" type="curve"/>
      <point x="367" y="577" type="line"/>
      <point x="357" y="535"/>
      <point x="345" y="491"/>
      <point x="339" y="458" type="curve" smooth="yes"/>
      <point x="292" y="225" type="line"/>
    </contour>
  </outline>
</glyph>
<glyph name="fraction" format="1">
  <advance width="78"/>
  <outline>
    <contour>
      <point x="-209" y="-12" type="line"/>
      <point x="-173" y="-12" type="line"/>
      <point x="317" y="672" type="line"/>
      <point x="281" y="672" type="line"/>
    </contour>
  </outline>
</glyph>
<glyph name="g" format="1">
  <advance width="521"/>
  <outline>
    <contour>
      <point x="167" y="-231" type="curve" smooth="yes"/>
      <point x="278" y="-231"/>
      <point x="350" y="-159"/>
      <point x="374" y="-41" type="curve" smooth="yes"/>
      <point x="479" y="480" type="line"/>
      <point x="445" y="480" type="line"/>
      <point x="426" y="414" type="line"/>
      <point x="422" y="414" type="line"/>
      <point x="397" y="461"/>
      <point x="354" y="492"/>
      <point x="299" y="492" type="curve" smooth="yes"/>
      <point x="172" y="492"/>
      <point x="44" y="347"/>
      <point x="44" y="169" type="curve" smooth="yes"/>
      <point x="44" y="58"/>
      <point x="101" y="-2"/>
      <point x="183" y="-2" type="curve" smooth="yes"/>
      <point x="249" y="-2"/>
      <point x="307" y="33"/>
      <point x="361" y="86" type="curve"/>
      <point x="337" y="-26" type="line" smooth="yes"/>
      <point x="316" y="-128"/>
      <point x="263" y="-195"/>
      <point x="169" y="-195" type="curve" smooth="yes"/>
      <point x="110" y="-195"/>
      <point x="63" y="-168"/>
      <point x="27" y="-135" type="curve"/>
      <point x="4" y="-165" type="line"/>
      <point x="46" y="-200"/>
      <point x="98" y="-231"/>
    </contour>
    <contour>
      <point x="191" y="35" type="curve" smooth="yes"/>
      <point x="126" y="35"/>
      <point x="86" y="82"/>
      <point x="86" y="176" type="curve" smooth="yes"/>
      <point x="86" y="314"/>
      <point x="190" y="456"/>
      <point x="298" y="456" type="curve" smooth="yes"/>
      <point x="343" y="456"/>
      <point x="381" y="431"/>
      <point x="417" y="369" type="curve"/>
      <point x="367" y="132" type="line"/>
      <point x="313" y="72"/>
      <point x="244" y="35"/>
    </contour>
    <contour>
      <point x="313" y="504" type="move" name="aboveLC"/>
    </contour>
    <contour>
      <point x="161" y="-251" type="move" name="belowLC"/>
    </contour>
  </outline>
</glyph>
<glyph name="g.supa" format="1">
  <advance width="315"/>
  <outline>
    <contour>
      <point x="89" y="454" type="curve" smooth="yes"/>
      <point x="89" y="424"/>
      <point x="101" y="401"/>
      <point x="119" y="385" type="curve"/>
      <point x="119" y="381" type="line"/>
      <point x="97" y="364"/>
      <point x="85" y="348"/>
      <point x="85" y="326" type="curve" smooth="yes"/>
      <point x="85" y="308"/>
      <point x="93" y="292"/>
      <point x="103" y="285" type="curve"/>
      <point x="103" y="281" type="line"/>
      <point x="69" y="265"/>
      <point x="25" y="238"/>
      <point x="25" y="193" type="curve" smooth="yes"/>
      <point x="25" y="133"/>
      <point x="85" y="119"/>
      <point x="132" y="119" type="curve" smooth="yes"/>
      <point x="212" y="119"/>
      <point x="291" y="153"/>
      <point x="291" y="221" type="curve" smooth="yes"/>
      <point x="291" y="264"/>
      <point x="265" y="281"/>
      <point x="182" y="293" type="curve" smooth="yes"/>
      <point x="129" y="301"/>
      <point x="118" y="309"/>
      <point x="118" y="335" type="curve" smooth="yes"/>
      <point x="118" y="349"/>
      <point x="130" y="363"/>
      <point x="142" y="372" type="curve"/>
      <point x="152" y="368"/>
      <point x="162" y="366"/>
      <point x="176" y="366" type="curve" smooth="yes"/>
      <point x="252" y="366"/>
      <point x="307" y="429"/>
      <point x="307" y="506" type="curve" smooth="yes"/>
      <point x="307" y="523"/>
      <point x="302" y="543"/>
      <point x="292" y="557" type="curve"/>
      <point x="357" y="557" type="line"/>
      <point x="363" y="587" type="line"/>
      <point x="260" y="587" type="line"/>
      <point x="249" y="592"/>
      <point x="235" y="595"/>
      <point x="220" y="595" type="curve" smooth="yes"/>
      <point x="145" y="595"/>
      <point x="89" y="532"/>
    </contour>
    <contour>
      <point x="130" y="270" type="curve"/>
      <point x="148" y="266"/>
      <point x="158" y="264"/>
      <point x="171" y="263" type="curve" smooth="yes"/>
      <point x="234" y="256"/>
      <point x="256" y="245"/>
      <point x="256" y="214" type="curve" smooth="yes"/>
      <point x="256" y="177"/>
      <point x="202" y="147"/>
      <point x="135" y="147" type="curve" smooth="yes"/>
      <point x="93" y="147"/>
      <point x="58" y="161"/>
      <point x="58" y="199" type="curve" smooth="yes"/>
      <point x="58" y="230"/>
      <point x="93" y="257"/>
    </contour>
    <contour>
      <point x="218" y="566" type="curve" smooth="yes"/>
      <point x="256" y="566"/>
      <point x="276" y="541"/>
      <point x="276" y="501" type="curve" smooth="yes"/>
      <point x="276" y="447"/>
      <point x="234" y="394"/>
      <point x="179" y="394" type="curve" smooth="yes"/>
      <point x="142" y="394"/>
      <point x="122" y="419"/>
      <point x="122" y="460" type="curve" smooth="yes"/>
      <point x="122" y="513"/>
      <point x="164" y="566"/>
    </contour>
  </outline>
</glyph>
<glyph name="g.sups" format="1">
  <advance width="347"/>
  <outline>
    <contour>
      <point x="334" y="587" type="line"/>
      <point x="321" y="545" type="line"/>
      <point x="317" y="545" type="line"/>
      <point x="300" y="580"/>
      <point x="271" y="595"/>
      <point x="239" y="595" type="curve" smooth="yes"/>
      <point x="149" y="595"/>
      <point x="63" y="498"/>
      <point x="63" y="384" type="curve" smooth="yes"/>
      <point x="63" y="313"/>
      <point x="101" y="273"/>
      <point x="157" y="273" type="curve" smooth="yes"/>
      <point x="200" y="273"/>
      <point x="237" y="292"/>
      <point x="271" y="320" type="curve"/>
      <point x="275" y="320" type="line"/>
      <point x="263" y="261" type="line" smooth="yes"/>
      <point x="247" y="193"/>
      <point x="210" y="148"/>
      <point x="153" y="148" type="curve" smooth="yes"/>
      <point x="117" y="148"/>
      <point x="82" y="166"/>
      <point x="57" y="187" type="curve"/>
      <point x="38" y="162" type="line"/>
      <point x="72" y="133"/>
      <point x="113" y="118"/>
      <point x="151" y="118" type="curve" smooth="yes"/>
      <point x="227" y="118"/>
      <point x="279" y="174"/>
      <point x="296" y="257" type="curve" smooth="yes"/>
      <point x="361" y="587" type="line"/>
    </contour>
    <contour>
      <point x="164" y="304" type="curve" smooth="yes"/>
      <point x="126" y="304"/>
      <point x="98" y="332"/>
      <point x="98" y="389" type="curve" smooth="yes"/>
      <point x="98" y="475"/>
      <point x="168" y="564"/>
      <point x="238" y="564" type="curve" smooth="yes"/>
      <point x="264" y="564"/>
      <point x="289" y="551"/>
      <point x="311" y="509" type="curve"/>
      <point x="283" y="362" type="line"/>
      <point x="247" y="328"/>
      <point x="201" y="304"/>
    </contour>
  </outline>
</glyph>
<glyph name="gravecmb.cap" format="1">
  <advance width="0"/>
  <outline>
    <contour>
      <point x="136" y="682" type="move" name="_aboveUC"/>
    </contour>
    <contour>
      <point x="147" y="702" type="line"/>
      <point x="171" y="723" type="line"/>
      <point x="63" y="854" type="line"/>
      <point x="31" y="826" type="line"/>
    </contour>
  </outline>
</glyph>
<glyph name="gravecmb" format="1">
  <advance width="0"/>
  <outline>
    <contour>
      <point x="105" y="504" type="move" name="_aboveLC"/>
    </contour>
    <contour>
      <point x="150" y="570" type="line"/>
      <point x="177" y="590" type="line"/>
      <point x="68" y="758" type="line"/>
      <point x="31" y="731" type="line"/>
    </contour>
  </outline>
</glyph>
<glyph name="guarani" format="1">
  <advance width="462"/>
  <outline>
    <contour>
      <point x="229" y="-12" type="curve" smooth="yes"/>
      <point x="303" y="-12"/>
      <point x="353" y="22"/>
      <point x="389" y="62" type="curve"/>
      <point x="438" y="312" type="line"/>
      <point x="287" y="312" type="line"/>
      <point x="279" y="276" type="line"/>
      <point x="392" y="276" type="line"/>
      <point x="352" y="77" type="line"/>
      <point x="330" y="51"/>
      <point x="287" y="24"/>
      <point x="234" y="24" type="curve" smooth="yes"/>
      <point x="145" y="24"/>
      <point x="94" y="105"/>
      <point x="94" y="230" type="curve" smooth="yes"/>
      <point x="94" y="454"/>
      <point x="219" y="616"/>
      <point x="349" y="616" type="curve" smooth="yes"/>
      <point x="405" y="616"/>
      <point x="434" y="582"/>
      <point x="457" y="536" type="curve"/>
      <point x="490" y="556" type="line"/>
      <point x="465" y="607"/>
      <point x="424" y="652"/>
      <point x="352" y="652" type="curve" smooth="yes"/>
      <point x="198" y="652"/>
      <point x="52" y="477"/>
      <point x="52" y="224" type="curve" smooth="yes"/>
      <point x="52" y="82"/>
      <point x="118" y="-12"/>
    </contour>
    <contour>
      <point x="181" y="-110" type="line"/>
      <point x="217" y="-110" type="line"/>
      <point x="238" y="-2" type="line"/>
      <point x="203" y="-2" type="line"/>
    </contour>
    <contour>
      <point x="327" y="631" type="line"/>
      <point x="363" y="631" type="line"/>
      <point x="387" y="750" type="line"/>
      <point x="352" y="750" type="line"/>
    </contour>
  </outline>
</glyph>
<glyph name="guilsinglright" format="1">
  <advance width="240"/>
  <outline>
    <contour>
      <point x="40" y="72" type="line"/>
      <point x="197" y="226" type="line"/>
      <point x="205" y="266" type="line"/>
      <point x="103" y="430" type="line"/>
      <point x="78" y="415" type="line"/>
      <point x="167" y="251" type="line"/>
      <point x="21" y="92" type="line"/>
    </contour>
  </outline>
</glyph>
<glyph name="h" format="1">
  <advance width="504"/>
  <outline>
    <contour>
      <point x="40" y="0" type="line"/>
      <point x="82" y="0" type="line"/>
      <point x="153" y="354" type="line"/>
      <point x="225" y="425"/>
      <point x="281" y="455"/>
      <point x="323" y="455" type="curve" smooth="yes"/>
      <point x="384" y="455"/>
      <point x="409" y="425"/>
      <point x="409" y="366" type="curve" smooth="yes"/>
      <point x="409" y="347"/>
      <point x="406" y="333"/>
      <point x="401" y="304" type="curve" smooth="yes"/>
      <point x="339" y="0" type="line"/>
      <point x="380" y="0" type="line"/>
      <point x="442" y="310" type="line" smooth="yes"/>
      <point x="448" y="338"/>
      <point x="450" y="351"/>
      <point x="450" y="375" type="curve" smooth="yes"/>
      <point x="450" y="445"/>
      <point x="418" y="492"/>
      <point x="336" y="492" type="curve" smooth="yes"/>
      <point x="278" y="492"/>
      <point x="224" y="455"/>
      <point x="162" y="403" type="curve"/>
      <point x="158" y="403" type="line"/>
      <point x="171" y="453" type="line"/>
      <point x="225" y="719" type="line"/>
      <point x="184" y="719" type="line"/>
    </contour>
    <contour>
      <point x="211" y="730" type="move" name="aboveLC"/>
    </contour>
    <contour>
      <point x="222" y="-22" type="move" name="belowLC"/>
    </contour>
  </outline>
</glyph>
<glyph name="h.sups" format="1">
  <advance width="344"/>
  <outline>
    <contour>
      <point x="63" y="269" type="line"/>
      <point x="98" y="269" type="line"/>
      <point x="143" y="497" type="line"/>
      <point x="189" y="543"/>
      <point x="225" y="564"/>
      <point x="259" y="564" type="curve" smooth="yes"/>
      <point x="290" y="564"/>
      <point x="306" y="545"/>
      <point x="306" y="507" type="curve" smooth="yes"/>
      <point x="306" y="495"/>
      <point x="304" y="486"/>
      <point x="300" y="468" type="curve" smooth="yes"/>
      <point x="261" y="269" type="line"/>
      <point x="295" y="269" type="line"/>
      <point x="335" y="473" type="line" smooth="yes"/>
      <point x="338" y="486"/>
      <point x="341" y="501"/>
      <point x="341" y="516" type="curve" smooth="yes"/>
      <point x="341" y="564"/>
      <point x="323" y="595"/>
      <point x="267" y="595" type="curve" smooth="yes"/>
      <point x="227" y="595"/>
      <point x="191" y="571"/>
      <point x="154" y="540" type="curve"/>
      <point x="150" y="540" type="line"/>
      <point x="166" y="613" type="line"/>
      <point x="192" y="742" type="line"/>
      <point x="157" y="742" type="line"/>
    </contour>
  </outline>
</glyph>
<glyph name="hoicmb.cap" format="1">
  <advance width="0"/>
  <outline>
    <contour>
      <point x="136" y="682" type="move" name="_aboveUC"/>
    </contour>
    <contour>
      <point x="83" y="702" type="line"/>
      <point x="133" y="715"/>
      <point x="183" y="737"/>
      <point x="194" y="789" type="curve" smooth="yes"/>
      <point x="202" y="839"/>
      <point x="152" y="861"/>
      <point x="86" y="863" type="curve"/>
      <point x="77" y="831" type="line"/>
      <point x="129" y="829"/>
      <point x="158" y="814"/>
      <point x="152" y="783" type="curve" smooth="yes"/>
      <point x="148" y="755"/>
      <point x="118" y="740"/>
      <point x="79" y="729" type="curve"/>
    </contour>
  </outline>
</glyph>
<glyph name="hoicmb" format="1">
  <advance width="0"/>
  <outline>
    <contour>
      <point x="105" y="504" type="move" name="_aboveLC"/>
    </contour>
    <contour>
      <point x="91" y="552" type="line"/>
      <point x="151" y="568"/>
      <point x="196" y="594"/>
      <point x="198" y="646" type="curve" smooth="yes"/>
      <point x="199" y="682"/>
      <point x="170" y="711"/>
      <point x="95" y="717" type="curve"/>
      <point x="88" y="687" type="line"/>
      <point x="148" y="680"/>
      <point x="162" y="666"/>
      <point x="162" y="641" type="curve" smooth="yes"/>
      <point x="161" y="610"/>
      <point x="134" y="593"/>
      <point x="84" y="577" type="curve"/>
    </contour>
  </outline>
</glyph>
<glyph name="horncmb" format="1">
  <advance width="0"/>
  <outline>
    <contour>
      <point x="95" y="480" type="move" name="_hornLC"/>
    </contour>
    <contour>
      <point x="82" y="442" type="line"/>
      <point x="175" y="443"/>
      <point x="228" y="494"/>
      <point x="228" y="552" type="curve" smooth="yes"/>
      <point x="228" y="565"/>
      <point x="225" y="576"/>
      <point x="219" y="591" type="curve"/>
      <point x="184" y="576" type="line"/>
      <point x="188" y="563"/>
      <point x="188" y="556"/>
      <point x="188" y="546" type="curve" smooth="yes"/>
      <point x="188" y="499"/>
      <point x="137" y="471"/>
      <point x="80" y="470" type="curve"/>
    </contour>
  </outline>
</glyph>
<glyph name="hungarumlautcmb.cap" format="1">
  <advance width="0"/>
  <outline>
    <contour>
      <point x="136" y="682" type="move" name="_aboveUC"/>
    </contour>
    <contour>
      <point x="70" y="712" type="line"/>
      <point x="190" y="842" type="line"/>
      <point x="160" y="865" type="line"/>
      <point x="46" y="727" type="line"/>
    </contour>
    <contour>
      <point x="214" y="712" type="line"/>
      <point x="334" y="842" type="line"/>
      <point x="304" y="865" type="line"/>
      <point x="190" y="727" type="line"/>
    </contour>
  </outline>
</glyph>
<glyph name="hungarumlautcmb" format="1">
  <advance width="0"/>
  <outline>
    <contour>
      <point x="105" y="504" type="move" name="_aboveLC"/>
    </contour>
    <contour>
      <point x="59" y="570" type="line"/>
      <point x="178" y="708" type="line"/>
      <point x="133" y="714" type="line"/>
      <point x="27" y="574" type="line"/>
    </contour>
    <contour>
      <point x="190" y="570" type="line"/>
      <point x="308" y="708" type="line"/>
      <point x="264" y="714" type="line"/>
      <point x="158" y="574" type="line"/>
    </contour>
  </outline>
</glyph>
<glyph name="hyphen" format="1">
  <advance width="287"/>
  <outline>
    <contour>
      <point x="36" y="232" type="line"/>
      <point x="245" y="232" type="line"/>
      <point x="253" y="269" type="line"/>
      <point x="43" y="269" type="line"/>
    </contour>
  </outline>
</glyph>
<glyph name="i" format="1">
  <advance width="220"/>
  <outline>
    <contour>
      <point x="40" y="0" type="line"/>
      <point x="82" y="0" type="line"/>
      <point x="178" y="480" type="line"/>
      <point x="137" y="480" type="line"/>
    </contour>
    <contour>
      <point x="183" y="596" type="curve" smooth="yes"/>
      <point x="205" y="596"/>
      <point x="225" y="615"/>
      <point x="225" y="640" type="curve" smooth="yes"/>
      <point x="225" y="661"/>
      <point x="210" y="674"/>
      <point x="192" y="674" type="curve" smooth="yes"/>
      <point x="170" y="674"/>
      <point x="150" y="655"/>
      <point x="150" y="629" type="curve" smooth="yes"/>
      <point x="150" y="610"/>
      <point x="165" y="596"/>
    </contour>
    <contour>
      <point x="48" y="0" type="move" name="ogonekLC"/>
    </contour>
    <contour>
      <point x="202" y="683" type="move" name="aboveLC"/>
    </contour>
    <contour>
      <point x="67" y="-22" type="move" name="belowLC"/>
    </contour>
  </outline>
</glyph>
<glyph name="i.sups" format="1">
  <advance width="154"/>
  <outline>
    <contour>
      <point x="160" y="659" type="curve" smooth="yes"/>
      <point x="178" y="659"/>
      <point x="192" y="674"/>
      <point x="192" y="692" type="curve" smooth="yes"/>
      <point x="192" y="708"/>
      <point x="180" y="719"/>
      <point x="166" y="719" type="curve" smooth="yes"/>
      <point x="148" y="719"/>
      <point x="134" y="703"/>
      <point x="134" y="686" type="curve" smooth="yes"/>
      <point x="134" y="670"/>
      <point x="146" y="659"/>
    </contour>
    <contour>
      <point x="63" y="269" type="line"/>
      <point x="98" y="269" type="line"/>
      <point x="160" y="587" type="line"/>
      <point x="126" y="587" type="line"/>
    </contour>
  </outline>
</glyph>
<glyph name="j" format="1">
  <advance width="220"/>
  <outline>
    <contour>
      <point x="-57" y="-229" type="curve" smooth="yes"/>
      <point x="9" y="-229"/>
      <point x="45" y="-176"/>
      <point x="64" y="-88" type="curve" smooth="yes"/>
      <point x="178" y="480" type="line"/>
      <point x="137" y="480" type="line"/>
      <point x="21" y="-93" type="line" smooth="yes"/>
      <point x="7" y="-154"/>
      <point x="-17" y="-193"/>
      <point x="-57" y="-193" type="curve" smooth="yes"/>
      <point x="-81" y="-193"/>
      <point x="-92" y="-188"/>
      <point x="-104" y="-180" type="curve"/>
      <point x="-120" y="-213" type="line"/>
      <point x="-103" y="-222"/>
      <point x="-86" y="-229"/>
    </contour>
    <contour>
      <point x="184" y="596" type="curve" smooth="yes"/>
      <point x="205" y="596"/>
      <point x="226" y="615"/>
      <point x="226" y="640" type="curve" smooth="yes"/>
      <point x="226" y="661"/>
      <point x="211" y="674"/>
      <point x="192" y="674" type="curve" smooth="yes"/>
      <point x="170" y="674"/>
      <point x="150" y="655"/>
      <point x="150" y="629" type="curve" smooth="yes"/>
      <point x="150" y="610"/>
      <point x="165" y="596"/>
    </contour>
    <contour>
      <point x="202" y="683" type="move" name="aboveLC"/>
    </contour>
    <contour>
      <point x="-40" y="-231" type="move" name="belowLC"/>
    </contour>
  </outline>
</glyph>
<glyph name="j.sups" format="1">
  <advance width="154"/>
  <outline>
    <contour>
      <point x="0" y="119" type="curve" smooth="yes"/>
      <point x="49" y="119"/>
      <point x="76" y="153"/>
      <point x="87" y="212" type="curve" smooth="yes"/>
      <point x="160" y="587" type="line"/>
      <point x="126" y="587" type="line"/>
      <point x="52" y="213" type="line" smooth="yes"/>
      <point x="45" y="176"/>
      <point x="30" y="149"/>
      <point x="0" y="149" type="curve" smooth="yes"/>
      <point x="-15" y="149"/>
      <point x="-25" y="155"/>
      <point x="-33" y="159" type="curve"/>
      <point x="-47" y="133" type="line"/>
      <point x="-32" y="125"/>
      <point x="-17" y="119"/>
    </contour>
    <contour>
      <point x="160" y="659" type="curve" smooth="yes"/>
      <point x="178" y="659"/>
      <point x="192" y="674"/>
      <point x="192" y="692" type="curve" smooth="yes"/>
      <point x="192" y="708"/>
      <point x="180" y="719"/>
      <point x="166" y="719" type="curve" smooth="yes"/>
      <point x="148" y="719"/>
      <point x="134" y="703"/>
      <point x="134" y="686" type="curve" smooth="yes"/>
      <point x="134" y="670"/>
      <point x="146" y="659"/>
    </contour>
  </outline>
</glyph>
<glyph name="k" format="1">
  <advance width="447"/>
  <outline>
    <contour>
      <point x="213" y="730" type="move" name="aboveLC"/>
    </contour>
    <contour>
      <point x="212" y="-22" type="move" name="belowLC"/>
    </contour>
    <contour>
      <point x="40" y="0" type="line"/>
      <point x="82" y="0" type="line"/>
      <point x="107" y="125" type="line"/>
      <point x="238" y="258" type="line"/>
      <point x="342" y="0" type="line"/>
      <point x="385" y="0" type="line"/>
      <point x="269" y="285" type="line"/>
      <point x="457" y="480" type="line"/>
      <point x="407" y="480" type="line"/>
      <point x="123" y="190" type="line"/>
      <point x="120" y="190" type="line"/>
      <point x="225" y="719" type="line"/>
      <point x="184" y="719" type="line"/>
    </contour>
  </outline>
</glyph>
<glyph name="k.sups" format="1">
  <advance width="307"/>
  <outline>
    <contour>
      <point x="63" y="269" type="line"/>
      <point x="98" y="269" type="line"/>
      <point x="114" y="354" type="line"/>
      <point x="199" y="438" type="line"/>
      <point x="268" y="269" type="line"/>
      <point x="303" y="269" type="line"/>
      <point x="225" y="458" type="line"/>
      <point x="348" y="587" type="line"/>
      <point x="309" y="587" type="line"/>
      <point x="128" y="407" type="line"/>
      <point x="124" y="407" type="line"/>
      <point x="192" y="742" type="line"/>
      <point x="157" y="742" type="line"/>
    </contour>
  </outline>
</glyph>
<glyph name="l.alt" format="1">
  <advance width="222"/>
  <outline>
    <contour>
      <point x="40" y="0" type="line"/>
      <point x="82" y="0" type="line"/>
      <point x="225" y="719" type="line"/>
      <point x="184" y="719" type="line"/>
    </contour>
    <contour>
      <point x="209" y="730" type="move" name="aboveLC"/>
    </contour>
    <contour>
      <point x="63" y="-22" type="move" name="belowLC"/>
    </contour>
  </outline>
</glyph>
<glyph name="l" format="1">
  <advance width="232"/>
  <outline>
    <contour>
      <point x="209" y="730" type="move" name="aboveLC"/>
    </contour>
    <contour>
      <point x="63" y="-22" type="move" name="belowLC"/>
    </contour>
    <contour>
      <point x="92" y="-12" type="curve" smooth="yes"/>
      <point x="107" y="-12"/>
      <point x="115" y="-10"/>
      <point x="126" y="-5" type="curve"/>
      <point x="123" y="28" type="line"/>
      <point x="113" y="24"/>
      <point x="111" y="24"/>
      <point x="106" y="24" type="curve" smooth="yes"/>
      <point x="96" y="24"/>
      <point x="92" y="30"/>
      <point x="92" y="39" type="curve" smooth="yes"/>
      <point x="92" y="43"/>
      <point x="92" y="49"/>
      <point x="94" y="59" type="curve" smooth="yes"/>
      <point x="225" y="719" type="line"/>
      <point x="184" y="719" type="line"/>
      <point x="53" y="62" type="line" smooth="yes"/>
      <point x="50" y="50"/>
      <point x="48" y="39"/>
      <point x="48" y="31" type="curve" smooth="yes"/>
      <point x="48" y="3"/>
      <point x="66" y="-12"/>
    </contour>
  </outline>
</glyph>
<glyph name="l.supa" format="1">
  <advance width="155"/>
  <outline>
    <contour>
      <point x="63" y="269" type="line"/>
      <point x="98" y="269" type="line"/>
      <point x="192" y="742" type="line"/>
      <point x="157" y="742" type="line"/>
    </contour>
  </outline>
</glyph>
<glyph name="l.sups" format="1">
  <advance width="155"/>
  <outline>
    <contour>
      <point x="75" y="325" type="line"/>
      <point x="72" y="316"/>
      <point x="70" y="306"/>
      <point x="70" y="297" type="curve" smooth="yes"/>
      <point x="70" y="275"/>
      <point x="82" y="261"/>
      <point x="104" y="261" type="curve" smooth="yes"/>
      <point x="115" y="261"/>
      <point x="125" y="263"/>
      <point x="133" y="266" type="curve"/>
      <point x="131" y="296" type="line"/>
      <point x="125" y="293"/>
      <point x="120" y="293"/>
      <point x="117" y="293" type="curve" smooth="yes"/>
      <point x="110" y="293"/>
      <point x="105" y="297"/>
      <point x="105" y="304" type="curve" smooth="yes"/>
      <point x="105" y="308"/>
      <point x="105" y="310"/>
      <point x="107" y="318" type="curve" smooth="yes"/>
      <point x="192" y="742" type="line"/>
      <point x="157" y="742" type="line"/>
    </contour>
  </outline>
</glyph>
<glyph name="less" format="1">
  <advance width="462"/>
  <outline>
    <contour>
      <point x="442" y="150" type="line"/>
      <point x="442" y="189" type="line"/>
      <point x="219" y="279" type="line"/>
      <point x="96" y="328" type="line"/>
      <point x="96" y="332" type="line"/>
      <point x="219" y="382" type="line"/>
      <point x="442" y="472" type="line"/>
      <point x="442" y="510" type="line"/>
      <point x="46" y="348" type="line"/>
      <point x="46" y="312" type="line"/>
    </contour>
  </outline>
</glyph>
<glyph name="lessequal" format="1">
  <advance width="462"/>
  <outline>
    <contour>
      <point x="442" y="156" type="line"/>
      <point x="442" y="194" type="line"/>
      <point x="220" y="283" type="line"/>
      <point x="96" y="331" type="line"/>
      <point x="96" y="335" type="line"/>
      <point x="220" y="383" type="line"/>
      <point x="442" y="472" type="line"/>
      <point x="442" y="510" type="line"/>
      <point x="46" y="352" type="line"/>
      <point x="46" y="314" type="line"/>
    </contour>
    <contour>
      <point x="48" y="0" type="line"/>
      <point x="442" y="0" type="line"/>
      <point x="442" y="35" type="line"/>
      <point x="48" y="35" type="line"/>
    </contour>
  </outline>
</glyph>
<glyph name="lira" format="1">
  <advance width="462"/>
  <outline>
    <contour>
      <point x="7" y="0" type="line"/>
      <point x="363" y="0" type="line"/>
      <point x="369" y="37" type="line"/>
      <point x="96" y="37" type="line"/>
      <point x="96" y="41" type="line"/>
      <point x="165" y="102"/>
      <point x="199" y="175"/>
      <point x="199" y="277" type="curve" smooth="yes"/>
      <point x="199" y="331"/>
      <point x="189" y="394"/>
      <point x="189" y="443" type="curve" smooth="yes"/>
      <point x="189" y="546"/>
      <point x="249" y="616"/>
      <point x="333" y="616" type="curve" smooth="yes"/>
      <point x="378" y="616"/>
      <point x="412" y="586"/>
      <point x="434" y="547" type="curve"/>
      <point x="466" y="570" type="line"/>
      <point x="442" y="611"/>
      <point x="401" y="652"/>
      <point x="336" y="652" type="curve" smooth="yes"/>
      <point x="225" y="652"/>
      <point x="149" y="573"/>
      <point x="149" y="440" type="curve" smooth="yes"/>
      <point x="149" y="388"/>
      <point x="159" y="320"/>
      <point x="159" y="270" type="curve" smooth="yes"/>
      <point x="159" y="169"/>
      <point x="112" y="76"/>
      <point x="12" y="24" type="curve"/>
    </contour>
    <contour>
      <point x="70" y="349" type="line"/>
      <point x="357" y="349" type="line"/>
      <point x="364" y="379" type="line"/>
      <point x="167" y="379" type="line"/>
      <point x="77" y="375" type="line"/>
    </contour>
    <contour>
      <point x="49" y="250" type="line"/>
      <point x="336" y="250" type="line"/>
      <point x="343" y="280" type="line"/>
      <point x="164" y="280" type="line"/>
      <point x="56" y="275" type="line"/>
    </contour>
  </outline>
</glyph>
<glyph name="liraturkish" format="1">
  <advance width="462"/>
  <outline>
    <contour>
      <point x="131" y="30" type="curve"/>
      <point x="186" y="307" type="line"/>
      <point x="376" y="385" type="line"/>
      <point x="383" y="419" type="line"/>
      <point x="193" y="341" type="line"/>
      <point x="209" y="425" type="line"/>
      <point x="401" y="503" type="line"/>
      <point x="408" y="537" type="line"/>
      <point x="217" y="459" type="line"/>
      <point x="253" y="640" type="line"/>
      <point x="212" y="640" type="line"/>
      <point x="173" y="443" type="line"/>
      <point x="64" y="399" type="line"/>
      <point x="57" y="365" type="line"/>
      <point x="165" y="409" type="line"/>
      <point x="148" y="325" type="line"/>
      <point x="40" y="281" type="line"/>
      <point x="33" y="247" type="line"/>
      <point x="141" y="291" type="line"/>
      <point x="80" y="-12" type="line"/>
      <point x="278" y="-9"/>
      <point x="438" y="81"/>
      <point x="433" y="278" type="curve"/>
      <point x="394" y="266" type="line"/>
      <point x="395" y="116"/>
      <point x="271" y="33"/>
    </contour>
  </outline>
</glyph>
<glyph name="logicalnot" format="1">
  <advance width="462"/>
  <outline>
    <contour>
      <point x="405" y="108" type="line"/>
      <point x="442" y="108" type="line"/>
      <point x="442" y="348" type="line"/>
      <point x="48" y="348" type="line"/>
      <point x="48" y="314" type="line"/>
      <point x="405" y="314" type="line"/>
    </contour>
  </outline>
</glyph>
<glyph name="lslash.alt" format="1">
  <advance width="224"/>
  <outline>
    <contour>
      <point x="51" y="327" type="line"/>
      <point x="125" y="371" type="line"/>
      <point x="151" y="382" type="line"/>
      <point x="254" y="444" type="line"/>
      <point x="241" y="473" type="line"/>
      <point x="160" y="424" type="line"/>
      <point x="133" y="412" type="line"/>
      <point x="39" y="356" type="line"/>
    </contour>
    <component base="l.alt" xOffset="1"/>
  </outline>
</glyph>
<glyph name="lslash" format="1">
  <advance width="233"/>
  <outline>
    <contour>
      <point x="42" y="320" type="line"/>
      <point x="120" y="365" type="line"/>
      <point x="155" y="385" type="line"/>
      <point x="243" y="438" type="line"/>
      <point x="250" y="481" type="line"/>
      <point x="163" y="428" type="line"/>
      <point x="129" y="409" type="line"/>
      <point x="50" y="364" type="line"/>
    </contour>
    <component base="l" xOffset="1"/>
  </outline>
</glyph>
<glyph name="m.sups" format="1">
  <advance width="526"/>
  <outline>
    <contour>
      <point x="63" y="269" type="line"/>
      <point x="98" y="269" type="line"/>
      <point x="143" y="497" type="line"/>
      <point x="183" y="539"/>
      <point x="223" y="564"/>
      <point x="251" y="564" type="curve" smooth="yes"/>
      <point x="284" y="564"/>
      <point x="301" y="545"/>
      <point x="301" y="507" type="curve" smooth="yes"/>
      <point x="301" y="495"/>
      <point x="299" y="485"/>
      <point x="295" y="468" type="curve" smooth="yes"/>
      <point x="255" y="269" type="line"/>
      <point x="289" y="269" type="line"/>
      <point x="335" y="497" type="line"/>
      <point x="373" y="539"/>
      <point x="413" y="564"/>
      <point x="441" y="564" type="curve" smooth="yes"/>
      <point x="474" y="564"/>
      <point x="490" y="545"/>
      <point x="490" y="507" type="curve" smooth="yes"/>
      <point x="490" y="497"/>
      <point x="488" y="485"/>
      <point x="484" y="468" type="curve" smooth="yes"/>
      <point x="445" y="269" type="line"/>
      <point x="479" y="269" type="line"/>
      <point x="519" y="473" type="line" smooth="yes"/>
      <point x="523" y="491"/>
      <point x="525" y="503"/>
      <point x="525" y="515" type="curve" smooth="yes"/>
      <point x="525" y="565"/>
      <point x="505" y="595"/>
      <point x="449" y="595" type="curve" smooth="yes"/>
      <point x="414" y="595"/>
      <point x="376" y="570"/>
      <point x="333" y="533" type="curve"/>
      <point x="329" y="565"/>
      <point x="314" y="595"/>
      <point x="259" y="595" type="curve" smooth="yes"/>
      <point x="224" y="595"/>
      <point x="187" y="571"/>
      <point x="153" y="539" type="curve"/>
      <point x="149" y="539" type="line"/>
      <point x="154" y="587" type="line"/>
      <point x="126" y="587" type="line"/>
    </contour>
  </outline>
</glyph>
<glyph name="macronacute.cap" format="1">
  <outline>
    <contour>
      <point x="10" y="734" type="line"/>
      <point x="247" y="734" type="line"/>
      <point x="254" y="768" type="line"/>
      <point x="17" y="768" type="line"/>
    </contour>
    <contour>
      <point x="139" y="826" type="line"/>
      <point x="259" y="914" type="line"/>
      <point x="233" y="941" type="line"/>
      <point x="120" y="846" type="line"/>
    </contour>
  </outline>
</glyph>
<glyph name="macronacute" format="1">
  <advance width="0"/>
  <outline>
    <contour>
      <point x="100" y="707" type="line"/>
      <point x="199" y="803" type="line"/>
      <point x="157" y="810" type="line"/>
      <point x="69" y="712" type="line"/>
    </contour>
    <contour>
      <point x="-27" y="606" type="line"/>
      <point x="194" y="606" type="line"/>
      <point x="199" y="640" type="line"/>
      <point x="-21" y="640" type="line"/>
    </contour>
  </outline>
</glyph>
<glyph name="macronbelowcmb" format="1">
  <advance width="0"/>
  <outline>
    <contour>
      <point x="-6" y="-30" type="move" name="_belowLC"/>
    </contour>
    <component base="macroncmb" xOffset="-151" yOffset="-771"/>
  </outline>
</glyph>
<glyph name="macroncmb.cap" format="1">
  <advance width="0"/>
  <outline>
    <contour>
      <point x="136" y="682" type="move" name="_aboveUC"/>
    </contour>
    <contour>
      <point x="19" y="734" type="line"/>
      <point x="238" y="734" type="line"/>
      <point x="245" y="768" type="line"/>
      <point x="26" y="768" type="line"/>
    </contour>
  </outline>
</glyph>
<glyph name="macroncmb" format="1">
  <outline>
    <contour>
      <point x="0" y="606" type="line"/>
      <point x="239" y="606" type="line"/>
      <point x="244" y="640" type="line"/>
      <point x="6" y="640" type="line"/>
    </contour>
    <contour>
      <point x="105" y="504" type="move" name="_aboveLC"/>
    </contour>
  </outline>
</glyph>
<glyph name="n.sups" format="1">
  <advance width="345"/>
  <outline>
    <contour>
      <point x="63" y="269" type="line"/>
      <point x="98" y="269" type="line"/>
      <point x="143" y="497" type="line"/>
      <point x="189" y="543"/>
      <point x="225" y="564"/>
      <point x="259" y="564" type="curve" smooth="yes"/>
      <point x="290" y="564"/>
      <point x="306" y="545"/>
      <point x="306" y="507" type="curve" smooth="yes"/>
      <point x="306" y="495"/>
      <point x="304" y="486"/>
      <point x="300" y="468" type="curve" smooth="yes"/>
      <point x="261" y="269" type="line"/>
      <point x="295" y="269" type="line"/>
      <point x="335" y="473" type="line" smooth="yes"/>
      <point x="339" y="491"/>
      <point x="341" y="500"/>
      <point x="341" y="516" type="curve" smooth="yes"/>
      <point x="341" y="564"/>
      <point x="323" y="595"/>
      <point x="267" y="595" type="curve" smooth="yes"/>
      <point x="226" y="595"/>
      <point x="190" y="571"/>
      <point x="153" y="539" type="curve"/>
      <point x="149" y="539" type="line"/>
      <point x="154" y="587" type="line"/>
      <point x="126" y="587" type="line"/>
    </contour>
  </outline>
</glyph>
<glyph name="naira" format="1">
  <advance width="462"/>
  <outline>
    <contour>
      <point x="41" y="0" type="line"/>
      <point x="78" y="0" type="line"/>
      <point x="152" y="373" type="line"/>
      <point x="188" y="573" type="line"/>
      <point x="190" y="573" type="line"/>
      <point x="212" y="413" type="line"/>
      <point x="275" y="0" type="line"/>
      <point x="316" y="0" type="line"/>
      <point x="446" y="640" type="line"/>
      <point x="409" y="640" type="line"/>
      <point x="335" y="263" type="line"/>
      <point x="301" y="64" type="line"/>
      <point x="297" y="64" type="line"/>
      <point x="277" y="225" type="line"/>
      <point x="209" y="640" type="line"/>
      <point x="170" y="640" type="line"/>
    </contour>
    <contour>
      <point x="34" y="348" type="line"/>
      <point x="456" y="348" type="line"/>
      <point x="463" y="375" type="line"/>
      <point x="120" y="375" type="line"/>
      <point x="41" y="371" type="line"/>
    </contour>
    <contour>
      <point x="14" y="247" type="line"/>
      <point x="436" y="247" type="line"/>
      <point x="443" y="275" type="line"/>
      <point x="100" y="275" type="line"/>
      <point x="21" y="271" type="line"/>
    </contour>
  </outline>
</glyph>
<glyph name="nine.tnum" format="1">
	<advance width="462"/>
	<outline>
		<contour>
			<point x="135" y="-83" type="curve" smooth="yes"/>
			<point x="298" y="-83"/>
			<point x="422" y="112"/>
			<point x="422" y="373" type="curve" smooth="yes"/>
			<point x="422" y="495"/>
			<point x="360" y="583"/>
			<point x="257" y="583" type="curve" smooth="yes"/>
			<point x="142" y="583"/>
			<point x="52" y="478"/>
			<point x="52" y="347" type="curve" smooth="yes"/>
			<point x="52" y="241"/>
			<point x="116" y="171"/>
			<point x="210" y="171" type="curve" smooth="yes"/>
			<point x="262" y="171"/>
			<point x="329" y="198"/>
			<point x="381" y="258" type="curve"/>
			<point x="384" y="303" type="line"/>
			<point x="323" y="226"/>
			<point x="253" y="207"/>
			<point x="216" y="207" type="curve" smooth="yes"/>
			<point x="137" y="207"/>
			<point x="91" y="266"/>
			<point x="91" y="357" type="curve" smooth="yes"/>
			<point x="91" y="458"/>
			<point x="170" y="548"/>
			<point x="255" y="548" type="curve" smooth="yes"/>
			<point x="334" y="548"/>
			<point x="382" y="473"/>
			<point x="382" y="369" type="curve" smooth="yes"/>
			<point x="382" y="137"/>
			<point x="271" y="-47"/>
			<point x="137" y="-47" type="curve" smooth="yes"/>
			<point x="93" y="-47"/>
			<point x="62" y="-25"/>
			<point x="38" y="17" type="curve"/>
			<point x="7" y="-5" type="line"/>
			<point x="33" y="-51"/>
			<point x="72" y="-83"/>
		</contour>
	</outline>
</glyph>
<glyph name="nine.dnom" format="1">
  <advance width="348"/>
  <outline>
    <contour>
      <point x="100" y="-12" type="curve" smooth="yes"/>
      <point x="201" y="-12"/>
      <point x="294" y="81"/>
      <point x="294" y="253" type="curve" smooth="yes"/>
      <point x="294" y="348"/>
      <point x="236" y="402"/>
      <point x="172" y="402" type="curve" smooth="yes"/>
      <point x="108" y="402"/>
      <point x="43" y="349"/>
      <point x="43" y="255" type="curve" smooth="yes"/>
      <point x="43" y="197"/>
      <point x="83" y="151"/>
      <point x="149" y="151" type="curve" smooth="yes"/>
      <point x="195" y="151"/>
      <point x="238" y="179"/>
      <point x="260" y="210" type="curve"/>
      <point x="262" y="248" type="line"/>
      <point x="232" y="201"/>
      <point x="188" y="180"/>
      <point x="154" y="180" type="curve" smooth="yes"/>
      <point x="107" y="180"/>
      <point x="79" y="212"/>
      <point x="79" y="261" type="curve" smooth="yes"/>
      <point x="79" y="326"/>
      <point x="122" y="371"/>
      <point x="169" y="371" type="curve" smooth="yes"/>
      <point x="215" y="371"/>
      <point x="258" y="334"/>
      <point x="258" y="246" type="curve" smooth="yes"/>
      <point x="258" y="100"/>
      <point x="181" y="19"/>
      <point x="102" y="19" type="curve" smooth="yes"/>
      <point x="74" y="19"/>
      <point x="51" y="27"/>
      <point x="33" y="45" type="curve"/>
      <point x="10" y="20" type="line"/>
      <point x="33" y="-1"/>
      <point x="64" y="-12"/>
    </contour>
  </outline>
</glyph>
<glyph name="numbersign" format="1">
  <advance width="464"/>
  <outline>
    <contour>
      <point x="41" y="0" type="line"/>
      <point x="75" y="0" type="line"/>
      <point x="142" y="214" type="line"/>
      <point x="283" y="214" type="line"/>
      <point x="216" y="0" type="line"/>
      <point x="250" y="0" type="line"/>
      <point x="317" y="214" type="line"/>
      <point x="403" y="214" type="line"/>
      <point x="412" y="250" type="line"/>
      <point x="329" y="250" type="line"/>
      <point x="381" y="420" type="line"/>
      <point x="463" y="420" type="line"/>
      <point x="473" y="456" type="line"/>
      <point x="392" y="456" type="line"/>
      <point x="453" y="650" type="line"/>
      <point x="418" y="650" type="line"/>
      <point x="357" y="456" type="line"/>
      <point x="217" y="456" type="line"/>
      <point x="278" y="650" type="line"/>
      <point x="243" y="650" type="line"/>
      <point x="182" y="456" type="line"/>
      <point x="97" y="456" type="line"/>
      <point x="87" y="420" type="line"/>
      <point x="170" y="420" type="line"/>
      <point x="118" y="250" type="line"/>
      <point x="36" y="250" type="line"/>
      <point x="27" y="214" type="line"/>
      <point x="108" y="214" type="line"/>
    </contour>
    <contour>
      <point x="153" y="250" type="line"/>
      <point x="205" y="420" type="line"/>
      <point x="347" y="420" type="line"/>
      <point x="295" y="250" type="line"/>
    </contour>
  </outline>
</glyph>
<glyph name="o.sups" format="1">
  <advance width="342"/>
  <outline>
    <contour>
      <point x="173" y="261" type="curve" smooth="yes"/>
      <point x="259" y="261"/>
      <point x="347" y="343"/>
      <point x="347" y="469" type="curve" smooth="yes"/>
      <point x="347" y="548"/>
      <point x="305" y="595"/>
      <point x="236" y="595" type="curve" smooth="yes"/>
      <point x="151" y="595"/>
      <point x="63" y="513"/>
      <point x="63" y="387" type="curve" smooth="yes"/>
      <point x="63" y="308"/>
      <point x="105" y="261"/>
    </contour>
    <contour>
      <point x="176" y="291" type="curve" smooth="yes"/>
      <point x="125" y="291"/>
      <point x="97" y="328"/>
      <point x="97" y="390" type="curve" smooth="yes"/>
      <point x="97" y="483"/>
      <point x="163" y="564"/>
      <point x="234" y="564" type="curve" smooth="yes"/>
      <point x="285" y="564"/>
      <point x="313" y="528"/>
      <point x="313" y="465" type="curve" smooth="yes"/>
      <point x="313" y="372"/>
      <point x="247" y="291"/>
    </contour>
  </outline>
</glyph>
<glyph name="ogonekcmb" format="1">
  <outline>
    <contour>
      <point x="-30" y="-203" type="curve" smooth="yes"/>
      <point x="-12" y="-203"/>
      <point x="10" y="-196"/>
      <point x="30" y="-185" type="curve"/>
      <point x="18" y="-158" type="line"/>
      <point x="4" y="-166"/>
      <point x="-7" y="-170"/>
      <point x="-23" y="-170" type="curve" smooth="yes"/>
      <point x="-44" y="-170"/>
      <point x="-60" y="-155"/>
      <point x="-60" y="-130" type="curve" smooth="yes"/>
      <point x="-60" y="-85"/>
      <point x="-21" y="-36"/>
      <point x="38" y="4" type="curve"/>
      <point x="-1" y="4" type="line"/>
      <point x="-49" y="-29"/>
      <point x="-99" y="-86"/>
      <point x="-99" y="-140" type="curve" smooth="yes"/>
      <point x="-99" y="-182"/>
      <point x="-70" y="-203"/>
    </contour>
    <contour>
      <point x="0" y="0" type="move" name="_ogonekLC"/>
    </contour>
  </outline>
</glyph>
<glyph name="ogonekcmb.cap" format="1">
  <advance width="0"/>
  <outline>
    <contour>
      <point x="0" y="0" type="move" name="_ogonekUC"/>
    </contour>
    <contour>
      <point x="-31" y="-204" type="curve" smooth="yes"/>
      <point x="-13" y="-204"/>
      <point x="10" y="-198"/>
      <point x="29" y="-187" type="curve"/>
      <point x="17" y="-159" type="line"/>
      <point x="4" y="-167"/>
      <point x="-8" y="-171"/>
      <point x="-23" y="-171" type="curve" smooth="yes"/>
      <point x="-45" y="-171"/>
      <point x="-61" y="-155"/>
      <point x="-61" y="-130" type="curve" smooth="yes"/>
      <point x="-61" y="-86"/>
      <point x="-20" y="-35"/>
      <point x="38" y="4" type="curve"/>
      <point x="-2" y="4" type="line"/>
      <point x="-50" y="-29"/>
      <point x="-100" y="-87"/>
      <point x="-100" y="-141" type="curve" smooth="yes"/>
      <point x="-100" y="-183"/>
      <point x="-71" y="-204"/>
    </contour>
  </outline>
</glyph>
<glyph name="ohorn" format="1">
  <advance width="505"/>
  <outline>
    <contour>
      <point x="318" y="504" type="move" name="aboveLC"/>
    </contour>
    <contour>
      <point x="189" y="-22" type="move" name="belowLC"/>
    </contour>
    <contour>
      <point x="407" y="444" type="line"/>
      <point x="486" y="454"/>
      <point x="526" y="499"/>
      <point x="526" y="552" type="curve" smooth="yes"/>
      <point x="526" y="565"/>
      <point x="524" y="576"/>
      <point x="517" y="591" type="curve"/>
      <point x="482" y="576" type="line"/>
      <point x="486" y="563"/>
      <point x="487" y="556"/>
      <point x="487" y="546" type="curve" smooth="yes"/>
      <point x="487" y="499"/>
      <point x="439" y="472"/>
      <point x="381" y="470" type="curve"/>
    </contour>
    <component base="o"/>
  </outline>
</glyph>
<glyph name="one" format="1">
  <advance width="462"/>
  <outline>
    <contour>
      <point x="30" y="0" type="line"/>
      <point x="353" y="0" type="line"/>
      <point x="359" y="36" type="line"/>
      <point x="222" y="36" type="line"/>
      <point x="344" y="639" type="line"/>
      <point x="310" y="639" type="line"/>
      <point x="278" y="620"/>
      <point x="232" y="606"/>
      <point x="182" y="599" type="curve"/>
      <point x="176" y="571" type="line"/>
      <point x="289" y="571" type="line"/>
      <point x="181" y="36" type="line"/>
      <point x="38" y="36" type="line"/>
    </contour>
  </outline>
</glyph>
<glyph name="one.tnum" format="1">
  <advance width="462"/>
  <outline>
    <contour>
      <point x="30" y="0" type="line"/>
      <point x="353" y="0" type="line"/>
      <point x="359" y="36" type="line"/>
      <point x="222" y="36" type="line"/>
      <point x="330" y="571" type="line"/>
      <point x="297" y="571" type="line"/>
      <point x="265" y="552"/>
      <point x="219" y="537"/>
      <point x="168" y="531" type="curve"/>
      <point x="162" y="503" type="line"/>
      <point x="275" y="503" type="line"/>
      <point x="181" y="36" type="line"/>
      <point x="38" y="36" type="line"/>
    </contour>
  </outline>
</glyph>
<glyph name="oogonek" format="1">
  <advance width="504"/>
  <outline>
    <contour>
      <point x="320" y="504" type="move" name="aboveLC"/>
    </contour>
    <contour>
      <point x="184" y="-203" type="curve" smooth="yes"/>
      <point x="202" y="-203"/>
      <point x="225" y="-196"/>
      <point x="244" y="-185" type="curve"/>
      <point x="233" y="-158" type="line"/>
      <point x="219" y="-166"/>
      <point x="207" y="-170"/>
      <point x="192" y="-170" type="curve" smooth="yes"/>
      <point x="170" y="-170"/>
      <point x="154" y="-155"/>
      <point x="154" y="-130" type="curve" smooth="yes"/>
      <point x="154" y="-91"/>
      <point x="194" y="-36"/>
      <point x="264" y="-6" type="curve" smooth="yes"/>
      <point x="381" y="46"/>
      <point x="460" y="152"/>
      <point x="460" y="302" type="curve" smooth="yes"/>
      <point x="460" y="423"/>
      <point x="395" y="492"/>
      <point x="297" y="492" type="curve" smooth="yes"/>
      <point x="167" y="492"/>
      <point x="44" y="358"/>
      <point x="44" y="178" type="curve" smooth="yes"/>
      <point x="44" y="59"/>
      <point x="102" y="-6"/>
      <point x="200" y="-11" type="curve"/>
      <point x="164" y="-31"/>
      <point x="116" y="-86"/>
      <point x="116" y="-140" type="curve" smooth="yes"/>
      <point x="116" y="-182"/>
      <point x="145" y="-203"/>
    </contour>
    <contour>
      <point x="210" y="24" type="curve" smooth="yes"/>
      <point x="130" y="24"/>
      <point x="85" y="80"/>
      <point x="85" y="184" type="curve" smooth="yes"/>
      <point x="85" y="331"/>
      <point x="191" y="456"/>
      <point x="294" y="456" type="curve" smooth="yes"/>
      <point x="373" y="456"/>
      <point x="418" y="401"/>
      <point x="418" y="297" type="curve" smooth="yes"/>
      <point x="418" y="149"/>
      <point x="313" y="24"/>
    </contour>
  </outline>
</glyph>
<glyph name="p.sups" format="1">
  <advance width="352"/>
  <outline>
    <contour>
      <point x="103" y="310" type="line"/>
      <point x="107" y="310" type="line"/>
      <point x="124" y="275"/>
      <point x="154" y="261"/>
      <point x="185" y="261" type="curve" smooth="yes"/>
      <point x="275" y="261"/>
      <point x="361" y="357"/>
      <point x="361" y="478" type="curve" smooth="yes"/>
      <point x="361" y="554"/>
      <point x="323" y="595"/>
      <point x="267" y="595" type="curve" smooth="yes"/>
      <point x="223" y="595"/>
      <point x="189" y="575"/>
      <point x="155" y="547" type="curve"/>
      <point x="151" y="547" type="line"/>
      <point x="154" y="587" type="line"/>
      <point x="126" y="587" type="line"/>
      <point x="35" y="130" type="line"/>
      <point x="70" y="130" type="line"/>
      <point x="92" y="239" type="line"/>
    </contour>
    <contour>
      <point x="261" y="564" type="curve" smooth="yes"/>
      <point x="298" y="564"/>
      <point x="326" y="536"/>
      <point x="326" y="473" type="curve" smooth="yes"/>
      <point x="326" y="381"/>
      <point x="256" y="292"/>
      <point x="186" y="292" type="curve" smooth="yes"/>
      <point x="159" y="292"/>
      <point x="135" y="305"/>
      <point x="113" y="346" type="curve"/>
      <point x="145" y="508" type="line"/>
      <point x="181" y="542"/>
      <point x="223" y="564"/>
    </contour>
  </outline>
</glyph>
<glyph name="p.sups" format="1">
  <advance width="352"/>
  <outline>
    <contour>
      <point x="103" y="447" type="line"/>
      <point x="107" y="447" type="line"/>
      <point x="124" y="412"/>
      <point x="154" y="398"/>
      <point x="185" y="398" type="curve" smooth="yes"/>
      <point x="275" y="398"/>
      <point x="361" y="494"/>
      <point x="361" y="615" type="curve" smooth="yes"/>
      <point x="361" y="691"/>
      <point x="323" y="731"/>
      <point x="267" y="731" type="curve" smooth="yes"/>
      <point x="223" y="731"/>
      <point x="189" y="712"/>
      <point x="155" y="684" type="curve"/>
      <point x="151" y="684" type="line"/>
      <point x="154" y="723" type="line"/>
      <point x="126" y="723" type="line"/>
      <point x="35" y="267" type="line"/>
      <point x="70" y="267" type="line"/>
      <point x="92" y="375" type="line"/>
    </contour>
    <contour>
      <point x="261" y="701" type="curve" smooth="yes"/>
      <point x="298" y="701"/>
      <point x="326" y="672"/>
      <point x="326" y="610" type="curve" smooth="yes"/>
      <point x="326" y="518"/>
      <point x="256" y="428"/>
      <point x="186" y="428" type="curve" smooth="yes"/>
      <point x="159" y="428"/>
      <point x="135" y="442"/>
      <point x="113" y="483" type="curve"/>
      <point x="145" y="644" type="line"/>
      <point x="181" y="678"/>
      <point x="223" y="701"/>
    </contour>
  </outline>
</glyph>
<glyph name="parenleft.dnom" format="1">
  <advance width="210"/>
  <outline>
    <contour>
      <point x="80" y="-74" type="curve"/>
      <point x="105" y="-60" type="line"/>
      <point x="82" y="-12"/>
      <point x="74" y="58"/>
      <point x="74" y="112" type="curve" smooth="yes"/>
      <point x="74" y="227"/>
      <point x="114" y="334"/>
      <point x="207" y="443" type="curve"/>
      <point x="185" y="459" type="line"/>
      <point x="84" y="344"/>
      <point x="40" y="244"/>
      <point x="40" y="114" type="curve" smooth="yes"/>
      <point x="40" y="45"/>
      <point x="54" y="-21"/>
    </contour>
  </outline>
</glyph>
<glyph name="parenleft" format="1">
  <advance width="268"/>
  <outline>
    <contour>
      <point x="126" y="-175" type="curve"/>
      <point x="155" y="-165" type="line"/>
      <point x="123" y="-86"/>
      <point x="108" y="29"/>
      <point x="108" y="127" type="curve" smooth="yes"/>
      <point x="108" y="346"/>
      <point x="186" y="539"/>
      <point x="328" y="713" type="curve"/>
      <point x="302" y="730" type="line"/>
      <point x="157" y="545"/>
      <point x="70" y="367"/>
      <point x="70" y="134" type="curve" smooth="yes"/>
      <point x="70" y="24"/>
      <point x="93" y="-89"/>
    </contour>
  </outline>
</glyph>
